<svg width="1152" height="1067" viewBox="0 0 1152 1067" fill="none" xmlns="http://www.w3.org/2000/svg">
<g clip-path="url(#clip0_188_57)">
<rect width="1152" height="1067" rx="50" fill="#023E33"/>
<g filter="url(#filter0_d_188_57)">
<path d="M110.32 1064.06C98.247 1065 87.5801 1061.51 78.3194 1053.59C69.0586 1045.68 63.9491 1035.67 62.9908 1023.59L42.4273 760.175C41.4848 748.102 44.9806 737.434 52.9148 728.172C60.8489 718.91 70.8446 713.801 82.9019 712.845L214.608 702.564L261.937 743.038L437.544 729.329C449.617 728.387 460.292 731.882 469.569 739.815C478.845 747.748 483.947 757.744 484.873 769.804L502.01 989.313C502.952 1001.39 499.464 1012.06 491.546 1021.34C483.627 1030.61 473.624 1035.71 461.535 1036.64L110.32 1064.06Z" fill="#B3FFF1"/>
<g filter="url(#filter1_d_188_57)">
<g clip-path="url(#clip1_188_57)">
<path d="M279.632 993.609C223.282 998.008 174.041 955.899 169.642 899.549C165.242 843.199 207.352 793.957 263.702 789.558C320.052 785.159 369.293 827.269 373.693 883.619C378.092 939.969 335.982 989.21 279.632 993.609ZM265.207 940.73C268.794 952.081 273.002 958.9 277.026 958.585C283.371 958.09 287.415 939.965 287.633 914.819C311.165 923.695 329.537 926.457 332.295 920.705C335.049 914.966 321.389 902.374 299.745 889.578C319.224 873.655 330.813 859.149 327.226 853.88C324.908 850.487 316.692 851.584 305.266 856.094C304.819 855.431 304.205 854.897 303.486 854.547C302.767 854.196 301.969 854.041 301.171 854.098C300.518 854.158 299.885 854.356 299.314 854.677C298.742 854.999 298.245 855.438 297.855 855.965C297.465 856.492 297.191 857.096 297.05 857.736C296.909 858.376 296.906 859.039 297.039 859.681C292.893 861.635 288.479 863.93 283.875 866.515C279.753 841.65 272.941 824.321 266.583 824.817C260.232 825.313 256.194 843.438 255.975 868.578C232.444 859.707 214.066 856.946 211.314 862.698C209.593 866.296 214.292 872.576 223.364 879.9C223.3 880.289 223.284 880.685 223.315 881.078C223.518 883.686 225.724 885.637 228.242 885.44C228.866 885.394 229.473 885.215 230.023 884.916C234.514 888.072 239.132 891.044 243.864 893.825C224.385 909.748 212.796 924.254 216.389 929.523C219.982 934.785 237.763 929.246 259.734 916.888C260.656 922.455 261.715 927.646 262.865 932.348C262.286 932.841 261.832 933.465 261.542 934.168C261.252 934.871 261.134 935.634 261.199 936.392C261.376 938.668 263.094 940.452 265.207 940.73ZM268.134 940.097C268.871 939.632 269.465 938.973 269.852 938.193C270.239 937.412 270.404 936.54 270.329 935.673C270.255 934.486 269.731 933.373 268.864 932.56C267.997 931.746 266.852 931.294 265.664 931.296C264.475 926.256 263.48 920.746 262.657 915.216C266.183 913.165 269.664 911.037 273.097 908.832C277.031 910.578 280.885 912.196 284.624 913.662C284.52 919.923 284.201 926.178 283.67 932.418C281.901 950.609 277.764 954.73 277.764 954.73C276.919 956.066 275.895 955.197 275.895 955.197C271.75 951.081 269.211 943.048 269.211 943.048C268.826 942.074 268.467 941.09 268.134 940.097ZM232.099 882.573C232.383 881.874 232.499 881.118 232.44 880.365C232.236 877.751 230.031 875.806 227.506 876.003C226.523 876.079 225.593 876.479 224.861 877.14C215.361 869.349 214.278 865.257 214.278 865.257L214.277 865.244C213.545 863.839 214.813 863.387 214.813 863.387C220.448 861.856 228.675 863.697 228.675 863.697C236.366 864.829 246.278 868.122 255.969 871.946C255.988 876.054 256.099 880.161 256.302 884.264C252.835 886.78 249.516 889.297 246.387 891.793C241.536 888.862 236.77 885.783 232.099 882.573ZM298.649 862.468C299.096 862.853 299.614 863.146 300.175 863.33C300.735 863.514 301.326 863.586 301.914 863.541C304.184 863.364 305.931 861.496 306.107 859.224C317.49 854.653 322.255 854.71 323.948 855.034C324.224 855.087 324.472 855.236 324.648 855.455C324.823 855.674 324.915 855.948 324.908 856.229C324.856 859.678 319.281 866.336 319.281 866.336C312.498 874.166 305.083 881.425 297.11 888.039C293.443 885.934 289.728 883.914 285.968 881.98C285.532 877.872 285.005 873.774 284.386 869.689C289.063 867.137 293.823 864.728 298.649 862.468ZM297.24 891.602C324.063 908.036 328.818 916.024 329.655 918.441C329.746 918.705 329.74 918.993 329.64 919.253C329.539 919.513 329.35 919.729 329.105 919.864C326.093 921.542 317.541 920.061 317.541 920.061C307.366 918.109 297.369 915.325 287.65 911.738C287.635 907.691 287.517 903.472 287.308 899.146C290.788 896.628 294.099 894.099 297.24 891.602ZM257.307 898.043C254.615 896.59 251.95 895.086 249.314 893.534C251.734 891.658 254.157 889.833 256.524 888.096C256.73 891.415 256.991 894.731 257.307 898.043ZM257.647 901.416C258.107 905.659 258.633 909.769 259.236 913.712C253.72 916.755 248.101 919.605 242.389 922.258C225.736 929.768 220.099 928.232 220.099 928.232C218.516 928.163 218.771 926.835 218.771 926.835C220.269 921.2 225.969 914.994 225.969 914.994C230.799 908.907 238.618 901.978 246.774 895.516C250.226 897.492 253.864 899.472 257.647 901.423L257.647 901.416ZM286.332 885.576C289.755 887.266 291.795 888.332 291.795 888.332C292.777 888.916 293.739 889.482 294.668 890.045C291.79 892.374 289.229 894.332 287.129 895.868C286.922 892.431 286.656 889.004 286.332 885.576ZM284.675 910.623C281.23 909.307 278.253 908.064 275.888 907.03C278.817 905.105 281.713 903.129 284.574 901.104C284.676 904.381 284.695 907.587 284.675 910.623ZM261.094 903.162C264.049 904.637 267.029 906.064 270.031 907.442C267.374 909.08 264.737 910.627 262.205 912.056C261.796 909.096 261.425 906.131 261.094 903.162ZM260.733 899.854C260.251 895.222 259.84 890.583 259.499 885.939C263.176 883.293 266.892 880.702 270.645 878.165C275.512 880.352 279.909 882.434 283.416 884.136C283.608 886.263 283.675 887.451 283.675 887.451C284.036 890.891 284.293 894.342 284.444 897.797C282.517 899.167 281.399 899.883 281.399 899.883C278.613 901.899 275.766 903.831 272.863 905.675C270.714 904.688 269.531 904.075 269.531 904.075C266.557 902.752 263.624 901.349 260.733 899.854ZM273.803 876.052C276.975 873.944 278.925 872.714 278.925 872.714C279.884 872.171 280.83 871.641 281.753 871.133C282.337 874.751 282.752 877.926 283.042 880.489C279.987 878.958 276.908 877.479 273.803 876.052ZM258.923 873.133C261.772 874.297 264.585 875.489 267.282 876.67C264.573 878.459 261.893 880.292 259.243 882.167C258.992 878.376 258.896 876.08 258.896 876.08L258.923 873.133ZM258.991 869.734C259.763 838.29 264.293 830.167 265.964 828.227C266.147 828.016 266.398 827.876 266.674 827.832C266.95 827.788 267.233 827.843 267.472 827.988C270.434 829.765 273.442 837.895 273.442 837.895C277.284 848.733 279.714 859.392 281.235 868.03C277.615 870.129 274.042 872.307 270.518 874.563C266.713 872.867 262.869 871.257 258.991 869.734ZM272.253 899.423C274.34 899.26 276.277 898.274 277.637 896.684C278.998 895.093 279.671 893.027 279.508 890.94C279.345 888.853 278.36 886.916 276.769 885.556C275.178 884.195 273.112 883.522 271.025 883.685C268.938 883.848 267.001 884.833 265.641 886.424C264.28 888.015 263.607 890.081 263.77 892.168C263.933 894.255 264.918 896.192 266.509 897.552C268.1 898.913 270.166 899.586 272.253 899.423Z" fill="#023E33"/>
</g>
</g>
</g>
<g filter="url(#filter2_d_188_57)">
<path d="M449.314 1029.27C437.633 1032.46 426.501 1031.04 415.918 1025C405.336 1018.96 398.44 1010.09 395.231 998.397L325.604 743.523C322.413 731.841 323.845 720.707 329.901 710.121C335.956 699.535 344.815 692.641 356.479 689.44L483.916 654.627L537.999 685.501L707.915 639.083C719.596 635.892 730.737 637.322 741.338 643.374C751.938 649.425 758.825 658.287 761.998 669.958L820.02 882.353C823.211 894.034 821.788 905.173 815.751 915.77C809.714 926.366 800.845 933.255 789.146 936.436L449.314 1029.27Z" fill="#B3FFF1"/>
<g filter="url(#filter3_d_188_57)">
<g clip-path="url(#clip2_188_57)">
<path d="M631.005 702.046L462.734 748.014C458.271 749.233 454.476 752.175 452.182 756.193C449.889 760.211 449.285 764.975 450.504 769.438L496.472 937.708C497.691 942.171 500.633 945.967 504.651 948.261C508.669 950.554 513.433 951.158 517.896 949.939L686.166 903.97C690.629 902.751 694.425 899.809 696.719 895.791C699.012 891.774 699.616 887.009 698.397 882.547L652.429 714.276C651.209 709.813 648.267 706.018 644.25 703.724C640.232 701.43 635.467 700.827 631.005 702.046ZM579.276 767.781C577.266 766.634 575.794 764.735 575.184 762.502C574.574 760.269 574.876 757.886 576.023 755.876C577.171 753.866 579.07 752.394 581.302 751.784C583.535 751.174 585.919 751.476 587.929 752.624L601.777 760.538L609.677 746.682C610.825 744.672 612.724 743.201 614.956 742.591C617.189 741.981 619.573 742.283 621.583 743.43C623.593 744.578 625.064 746.476 625.674 748.709C626.284 750.942 625.982 753.325 624.835 755.335L616.921 769.183L630.776 777.084C631.771 777.652 632.645 778.411 633.347 779.317C634.049 780.223 634.566 781.258 634.868 782.363C635.17 783.469 635.251 784.623 635.107 785.76C634.963 786.897 634.597 787.994 634.028 788.989C633.46 789.985 632.702 790.858 631.796 791.56C630.89 792.262 629.855 792.779 628.749 793.081C627.644 793.383 626.49 793.464 625.353 793.32C624.216 793.176 623.119 792.81 622.123 792.242L608.275 784.327L600.374 798.183C599.227 800.193 597.328 801.665 595.095 802.275C592.863 802.885 590.479 802.583 588.469 801.435C586.459 800.288 584.987 798.389 584.378 796.156C583.768 793.924 584.07 791.54 585.217 789.53L593.131 775.682L579.276 767.781ZM571.414 881.07L554.587 885.667L559.184 902.494C559.793 904.726 559.491 907.108 558.345 909.117C557.198 911.125 555.3 912.596 553.068 913.206C550.837 913.816 548.455 913.514 546.446 912.367C544.437 911.22 542.966 909.322 542.357 907.091L537.76 890.264L520.933 894.861C518.701 895.47 516.319 895.168 514.31 894.022C512.301 892.875 510.83 890.977 510.221 888.746C509.611 886.514 509.913 884.132 511.06 882.123C512.207 880.114 514.104 878.643 516.336 878.034L533.163 873.437L528.566 856.61C527.956 854.378 528.258 851.996 529.405 849.987C530.552 847.978 532.45 846.507 534.681 845.898C536.913 845.288 539.295 845.59 541.304 846.737C543.313 847.884 544.784 849.782 545.393 852.013L549.99 868.84L566.817 864.243C569.048 863.634 571.431 863.935 573.439 865.082C575.448 866.229 576.919 868.127 577.529 870.358C578.138 872.59 577.837 874.972 576.69 876.981C575.543 878.99 573.645 880.461 571.414 881.07ZM548.43 796.935L497.949 810.725C495.717 811.335 493.335 811.033 491.326 809.886C489.317 808.74 487.846 806.842 487.237 804.61C486.627 802.379 486.929 799.997 488.076 797.988C489.223 795.979 491.12 794.508 493.352 793.898L543.833 780.108C546.064 779.498 548.446 779.8 550.455 780.947C552.464 782.094 553.935 783.992 554.545 786.223C555.154 788.455 554.853 790.837 553.706 792.846C552.559 794.854 550.661 796.325 548.43 796.935ZM660.146 874.913L609.665 888.704C607.433 889.313 605.051 889.011 603.042 887.865C601.033 886.718 599.562 884.82 598.953 882.589C598.343 880.357 598.645 877.975 599.792 875.966C600.939 873.957 602.836 872.486 605.068 871.877L655.549 858.086C657.78 857.477 660.163 857.778 662.171 858.925C664.18 860.072 665.651 861.97 666.261 864.201C666.87 866.433 666.569 868.815 665.422 870.824C664.275 872.833 662.377 874.304 660.146 874.913ZM650.952 841.259L600.471 855.05C598.24 855.659 595.857 855.357 593.849 854.211C591.84 853.064 590.369 851.166 589.759 848.934C589.15 846.703 589.451 844.321 590.598 842.312C591.745 840.303 593.643 838.832 595.874 838.223L646.355 824.432C648.587 823.822 650.969 824.124 652.978 825.271C654.987 826.418 656.458 828.316 657.067 830.547C657.677 832.779 657.375 835.161 656.228 837.17C655.081 839.179 653.184 840.65 650.952 841.259Z" fill="#023E33"/>
</g>
</g>
</g>
<g filter="url(#filter4_d_188_57)">
<path d="M793.664 916.378C782.704 921.528 771.493 922.036 760.03 917.901C748.568 913.767 740.252 906.216 735.083 895.249L622.726 656.116C617.576 645.156 617.075 633.942 621.223 622.473C625.371 611.004 632.915 602.692 643.855 597.535L763.422 541.357L822.003 562.486L981.425 487.582C992.385 482.432 1003.61 481.928 1015.09 486.069C1026.57 490.21 1034.88 497.758 1040.01 508.711L1133.64 707.988C1138.79 718.948 1139.3 730.166 1135.17 741.642C1131.04 753.118 1123.49 761.427 1112.51 766.57L793.664 916.378Z" fill="#B3FFF1"/>
<g filter="url(#filter5_d_188_57)">
<g clip-path="url(#clip3_188_57)">
<path fill-rule="evenodd" clip-rule="evenodd" d="M760.189 656.277C752.465 677.738 763.495 701.213 785.563 748.183C807.632 795.152 818.666 818.637 840.107 826.37C861.573 834.104 885.047 823.075 932.017 801.006C978.987 778.937 1002.47 767.903 1010.2 746.452C1017.95 725.017 1006.91 701.522 984.84 654.552C962.772 607.583 951.737 584.098 930.282 576.359C908.851 568.621 885.356 579.66 838.387 601.729C791.417 623.798 767.932 634.832 760.189 656.277ZM818.033 702.761C818.587 700.643 819.959 698.832 821.848 697.726C823.737 696.619 825.988 696.308 828.106 696.861L831.942 697.856C840.33 700.045 847.47 701.909 852.866 704.178C858.609 706.588 863.8 710 866.688 716.148C869.577 722.295 868.894 728.479 867.079 734.428C865.381 740.031 862.258 746.716 858.59 754.57L856.906 758.159C856.465 759.167 855.826 760.077 855.027 760.835C854.229 761.593 853.287 762.183 852.256 762.572C851.226 762.96 850.129 763.139 849.029 763.097C847.928 763.055 846.848 762.793 845.85 762.328C844.853 761.862 843.958 761.201 843.22 760.385C842.481 759.568 841.914 758.612 841.55 757.573C841.186 756.534 841.034 755.432 841.103 754.334C841.171 753.235 841.458 752.161 841.948 751.175L843.367 748.136C847.358 739.571 849.967 733.966 851.284 729.625C852.537 725.509 852.145 724.027 851.742 723.17C851.34 722.313 850.454 721.075 846.481 719.402C842.289 717.65 836.314 716.066 827.178 713.681L823.933 712.834C821.816 712.28 820.004 710.908 818.898 709.019C817.792 707.13 817.481 704.879 818.033 702.761ZM956.539 704.34C957.47 706.322 957.576 708.593 956.833 710.653C956.09 712.713 954.559 714.393 952.577 715.324L902.758 738.732C900.776 739.663 898.505 739.769 896.445 739.026C894.385 738.283 892.705 736.752 891.773 734.77C890.842 732.788 890.737 730.517 891.48 728.458C892.222 726.398 893.753 724.717 895.735 723.786L945.555 700.378C947.536 699.447 949.807 699.342 951.867 700.084C953.927 700.827 955.607 702.358 956.539 704.34Z" fill="#023E33"/>
</g>
</g>
</g>
<path d="M178 464C178 573 271.983 573 272.218 682" stroke="#B3FFF1" stroke-width="20"/>
<path d="M334 232C334 232 778.885 232 780 518" stroke="#B3FFF1" stroke-width="20"/>
<path d="M325 408C409 408 409 622.463 493 623" stroke="#B3FFF1" stroke-width="20"/>
<path d="M257.417 35.8334H114.75C102.926 35.8334 91.5861 40.5305 83.2251 48.8915C74.8642 57.2525 70.167 68.5925 70.167 80.4167V383.583C70.167 395.408 74.8642 406.748 83.2251 415.109C91.5861 423.47 102.926 428.167 114.75 428.167H257.417C269.241 428.167 280.581 423.47 288.942 415.109C297.303 406.748 302 395.408 302 383.583V80.4167C302 68.5925 297.303 57.2525 288.942 48.8915C280.581 40.5305 269.241 35.8334 257.417 35.8334ZM186.084 410.333C171.282 410.333 159.334 398.385 159.334 383.583C159.334 368.782 171.282 356.833 186.084 356.833C200.885 356.833 212.834 368.782 212.834 383.583C212.834 398.385 200.885 410.333 186.084 410.333ZM266.334 339H105.834V89.3334H266.334V339Z" fill="#B3FFF1"/>
</g>
<defs>
<filter id="filter0_d_188_57" x="32.2773" y="693.564" width="475.883" height="377.647" filterUnits="userSpaceOnUse" color-interpolation-filters="sRGB">
<feFlood flood-opacity="0" result="BackgroundImageFix"/>
<feColorMatrix in="SourceAlpha" type="matrix" values="0 0 0 0 0 0 0 0 0 0 0 0 0 0 0 0 0 0 127 0" result="hardAlpha"/>
<feOffset dx="-2" dy="-1"/>
<feGaussianBlur stdDeviation="4"/>
<feComposite in2="hardAlpha" operator="out"/>
<feColorMatrix type="matrix" values="0 0 0 0 0 0 0 0 0 0 0 0 0 0 0 0 0 0 0.25 0"/>
<feBlend mode="normal" in2="BackgroundImageFix" result="effect1_dropShadow_188_57"/>
<feBlend mode="normal" in="SourceGraphic" in2="effect1_dropShadow_188_57" result="shape"/>
</filter>
<filter id="filter1_d_188_57" x="157.677" y="781.594" width="227.98" height="227.98" filterUnits="userSpaceOnUse" color-interpolation-filters="sRGB">
<feFlood flood-opacity="0" result="BackgroundImageFix"/>
<feColorMatrix in="SourceAlpha" type="matrix" values="0 0 0 0 0 0 0 0 0 0 0 0 0 0 0 0 0 0 127 0" result="hardAlpha"/>
<feOffset dy="4"/>
<feGaussianBlur stdDeviation="2"/>
<feComposite in2="hardAlpha" operator="out"/>
<feColorMatrix type="matrix" values="0 0 0 0 0 0 0 0 0 0 0 0 0 0 0 0 0 0 0.25 0"/>
<feBlend mode="normal" in2="BackgroundImageFix" result="effect1_dropShadow_188_57"/>
<feBlend mode="normal" in="SourceGraphic" in2="effect1_dropShadow_188_57" result="shape"/>
</filter>
<filter id="filter2_d_188_57" x="313.952" y="628.431" width="513.724" height="409.495" filterUnits="userSpaceOnUse" color-interpolation-filters="sRGB">
<feFlood flood-opacity="0" result="BackgroundImageFix"/>
<feColorMatrix in="SourceAlpha" type="matrix" values="0 0 0 0 0 0 0 0 0 0 0 0 0 0 0 0 0 0 127 0" result="hardAlpha"/>
<feOffset dx="-2" dy="-1"/>
<feGaussianBlur stdDeviation="4"/>
<feComposite in2="hardAlpha" operator="out"/>
<feColorMatrix type="matrix" values="0 0 0 0 0 0 0 0 0 0 0 0 0 0 0 0 0 0 0.25 0"/>
<feBlend mode="normal" in2="BackgroundImageFix" result="effect1_dropShadow_188_57"/>
<feBlend mode="normal" in="SourceGraphic" in2="effect1_dropShadow_188_57" result="shape"/>
</filter>
<filter id="filter3_d_188_57" x="443.783" y="696.716" width="260.354" height="262.963" filterUnits="userSpaceOnUse" color-interpolation-filters="sRGB">
<feFlood flood-opacity="0" result="BackgroundImageFix"/>
<feColorMatrix in="SourceAlpha" type="matrix" values="0 0 0 0 0 0 0 0 0 0 0 0 0 0 0 0 0 0 127 0" result="hardAlpha"/>
<feOffset dy="4"/>
<feGaussianBlur stdDeviation="2"/>
<feComposite in2="hardAlpha" operator="out"/>
<feColorMatrix type="matrix" values="0 0 0 0 0 0 0 0 0 0 0 0 0 0 0 0 0 0 0.25 0"/>
<feBlend mode="normal" in2="BackgroundImageFix" result="effect1_dropShadow_188_57"/>
<feBlend mode="normal" in="SourceGraphic" in2="effect1_dropShadow_188_57" result="shape"/>
</filter>
<filter id="filter4_d_188_57" x="608.447" y="474.3" width="535.478" height="453.363" filterUnits="userSpaceOnUse" color-interpolation-filters="sRGB">
<feFlood flood-opacity="0" result="BackgroundImageFix"/>
<feColorMatrix in="SourceAlpha" type="matrix" values="0 0 0 0 0 0 0 0 0 0 0 0 0 0 0 0 0 0 127 0" result="hardAlpha"/>
<feOffset dx="-2" dy="-1"/>
<feGaussianBlur stdDeviation="4"/>
<feComposite in2="hardAlpha" operator="out"/>
<feColorMatrix type="matrix" values="0 0 0 0 0 0 0 0 0 0 0 0 0 0 0 0 0 0 0.25 0"/>
<feBlend mode="normal" in2="BackgroundImageFix" result="effect1_dropShadow_188_57"/>
<feBlend mode="normal" in="SourceGraphic" in2="effect1_dropShadow_188_57" result="shape"/>
</filter>
<filter id="filter5_d_188_57" x="735.16" y="555.326" width="300.082" height="300.083" filterUnits="userSpaceOnUse" color-interpolation-filters="sRGB">
<feFlood flood-opacity="0" result="BackgroundImageFix"/>
<feColorMatrix in="SourceAlpha" type="matrix" values="0 0 0 0 0 0 0 0 0 0 0 0 0 0 0 0 0 0 127 0" result="hardAlpha"/>
<feOffset dy="4"/>
<feGaussianBlur stdDeviation="2"/>
<feComposite in2="hardAlpha" operator="out"/>
<feColorMatrix type="matrix" values="0 0 0 0 0 0 0 0 0 0 0 0 0 0 0 0 0 0 0.25 0"/>
<feBlend mode="normal" in2="BackgroundImageFix" result="effect1_dropShadow_188_57"/>
<feBlend mode="normal" in="SourceGraphic" in2="effect1_dropShadow_188_57" result="shape"/>
</filter>
<clipPath id="clip0_188_57">
<rect width="1152" height="1067" rx="50" fill="white"/>
</clipPath>
<clipPath id="clip1_188_57">
<rect x="161.677" y="797.523" width="204.672" height="204.672" rx="40" transform="rotate(-4.46382 161.677 797.523)" fill="white"/>
</clipPath>
<clipPath id="clip2_188_57">
<rect x="447.783" y="750.652" width="204.672" height="208.393" rx="25" transform="rotate(-15.2793 447.783 750.652)" fill="white"/>
</clipPath>
<clipPath id="clip3_188_57">
<rect x="739.16" y="648.693" width="219.557" height="219.557" rx="25" transform="rotate(-25.1665 739.16 648.693)" fill="white"/>
</clipPath>
</defs>
</svg>
