<svg width="1067" height="1067" viewBox="0 0 1067 1067" fill="none" xmlns="http://www.w3.org/2000/svg">
<g clip-path="url(#clip0_187_39)">
<rect width="1067" height="1067" rx="50" fill="#023E33"/>
<g filter="url(#filter0_d_187_39)">
<path d="M113.153 555.407C101.354 558.131 90.2875 556.265 79.9538 549.808C69.6202 543.35 63.0825 534.217 60.3408 522.406L0.905823 264.965C-1.81828 253.166 0.0554216 242.098 6.52692 231.761C12.9984 221.424 22.1251 214.888 33.9068 212.153L162.627 182.435L215.44 215.436L387.067 175.813C398.867 173.089 409.942 174.961 420.293 181.429C430.645 187.897 437.173 197.026 439.88 208.814L489.409 423.348C492.133 435.147 490.268 446.221 483.814 456.569C477.36 466.917 468.225 473.448 456.408 476.161L113.153 555.407Z" fill="#B3FFF1"/>
<g filter="url(#filter1_d_187_39)">
<g clip-path="url(#clip1_187_39)">
<path d="M270.132 460.605C215.059 473.319 160.113 438.985 147.399 383.912C134.684 328.84 169.018 273.893 224.091 261.179C279.164 248.464 334.11 282.798 346.825 337.871C359.539 392.944 325.205 447.89 270.132 460.605ZM248.018 410.453C253.25 421.146 258.424 427.264 262.356 426.356C268.557 424.924 269.867 406.4 266.35 381.499C290.939 386.785 309.517 386.789 311.391 380.691C313.262 374.607 297.884 364.182 274.581 354.74C291.48 336.102 300.788 320.037 296.459 315.359C293.663 312.348 285.701 314.652 275.07 320.808C274.53 320.219 273.844 319.782 273.081 319.542C272.318 319.302 271.505 319.268 270.724 319.442C270.088 319.599 269.491 319.888 268.974 320.291C268.456 320.694 268.03 321.201 267.722 321.78C267.415 322.359 267.233 322.997 267.189 323.651C267.145 324.306 267.24 324.962 267.467 325.577C263.657 328.124 259.632 331.048 255.464 334.289C247.696 310.311 238.387 294.185 232.174 295.62C225.966 297.053 224.663 315.576 228.179 340.47C203.591 335.19 185.007 335.188 183.139 341.284C181.972 345.098 187.55 350.611 197.609 356.507C197.604 356.901 197.646 357.295 197.735 357.679C198.324 360.228 200.794 361.831 203.256 361.262C203.866 361.123 204.44 360.857 204.94 360.48C209.849 362.934 214.857 365.188 219.949 367.235C203.05 385.873 193.742 401.938 198.078 406.615C202.412 411.286 219.174 403.169 239.066 387.687C240.805 393.055 242.623 398.031 244.458 402.511C243.958 403.084 243.602 403.769 243.42 404.507C243.237 405.246 243.234 406.017 243.41 406.757C243.924 408.982 245.887 410.492 248.018 410.453ZM250.819 409.392C251.478 408.823 251.968 408.083 252.235 407.254C252.502 406.425 252.536 405.538 252.333 404.691C252.083 403.529 251.4 402.505 250.422 401.83C249.444 401.154 248.245 400.877 247.069 401.055C245.146 396.248 243.344 390.946 241.709 385.6C244.892 383.048 248.018 380.426 251.086 377.737C255.236 378.88 259.287 379.907 263.202 380.802C264.028 387.009 264.642 393.243 265.042 399.492C265.994 417.744 262.514 422.433 262.514 422.433C261.877 423.88 260.735 423.172 260.735 423.172C256.025 419.717 252.322 412.15 252.322 412.15C251.797 411.244 251.295 410.325 250.819 409.392ZM206.644 357.854C206.821 357.121 206.824 356.356 206.654 355.62C206.064 353.065 203.595 351.469 201.127 352.039C200.166 352.26 199.306 352.793 198.68 353.555C188.129 347.261 186.451 343.375 186.451 343.375L186.448 343.363C185.516 342.081 186.701 341.446 186.701 341.446C192.047 339.096 200.456 339.695 200.456 339.695C208.23 339.673 218.521 341.459 228.672 343.802C229.301 347.861 230.021 351.906 230.83 355.933C227.775 358.936 224.866 361.918 222.143 364.851C216.91 362.673 211.741 360.335 206.644 357.854ZM269.472 328.094C269.972 328.408 270.528 328.621 271.11 328.72C271.691 328.819 272.286 328.802 272.861 328.67C275.08 328.158 276.53 326.051 276.366 323.778C286.945 317.568 291.666 316.918 293.388 316.986C293.669 316.998 293.936 317.109 294.142 317.299C294.349 317.49 294.481 317.747 294.514 318.026C294.975 321.445 290.451 328.857 290.451 328.857C284.905 337.607 278.649 345.885 271.746 353.609C267.807 352.073 263.834 350.626 259.828 349.271C258.788 345.273 257.658 341.299 256.44 337.352C260.686 334.133 265.036 331.045 269.472 328.094ZM272.404 357.114C301.369 369.384 307.258 376.578 308.444 378.844C308.573 379.092 308.61 379.377 308.549 379.649C308.488 379.921 308.333 380.163 308.111 380.332C305.381 382.44 296.704 382.244 296.704 382.244C286.352 381.824 276.053 380.555 265.909 378.45C265.294 374.45 264.551 370.296 263.702 366.048C266.769 363.042 269.669 360.049 272.404 357.114ZM233.869 369.411C230.991 368.373 228.133 367.282 225.296 366.139C227.41 363.924 229.536 361.759 231.618 359.69C232.315 362.942 233.066 366.183 233.869 369.411ZM234.706 372.696C235.791 376.824 236.921 380.81 238.103 384.621C233.1 388.448 227.966 392.101 222.71 395.572C207.358 405.471 201.555 404.789 201.555 404.789C199.979 404.956 200.034 403.604 200.034 403.604C200.679 397.81 205.395 390.826 205.395 390.826C209.268 384.09 215.971 376.076 223.078 368.475C226.785 369.917 230.677 371.336 234.708 372.703L234.706 372.696ZM260.722 352.774C264.358 353.937 266.534 354.688 266.534 354.688C267.592 355.12 268.627 355.537 269.629 355.956C267.129 358.686 264.887 361.002 263.038 362.834C262.323 359.466 261.552 356.116 260.722 352.774ZM262.802 377.789C259.2 376.999 256.071 376.212 253.579 375.54C256.19 373.202 258.76 370.818 261.289 368.391C261.876 371.616 262.371 374.784 262.802 377.789ZM238.374 373.911C241.516 374.931 244.674 375.9 247.847 376.817C245.464 378.832 243.085 380.753 240.793 382.542C239.949 379.676 239.143 376.798 238.374 373.911ZM237.526 370.693C236.362 366.184 235.267 361.658 234.24 357.115C237.484 353.953 240.774 350.839 244.109 347.774C249.247 349.213 253.904 350.62 257.625 351.782C258.13 353.858 258.373 355.023 258.373 355.023C259.241 358.371 260.007 361.745 260.669 365.14C258.967 366.78 257.968 367.654 257.968 367.654C255.512 370.062 252.983 372.395 250.386 374.649C248.114 373.992 246.853 373.561 246.853 373.561C243.716 372.695 240.607 371.742 237.526 370.693ZM246.919 345.215C249.742 342.66 251.489 341.154 251.489 341.154C252.356 340.474 253.213 339.81 254.05 339.171C255.165 342.661 256.046 345.74 256.713 348.231C253.466 347.171 250.2 346.165 246.919 345.215ZM231.77 344.538C234.76 345.265 237.719 346.026 240.562 346.794C238.148 348.966 235.77 351.176 233.427 353.424C232.616 349.712 232.181 347.456 232.181 347.456L231.77 344.538ZM231.333 341.166C227.429 309.955 230.703 301.25 232.067 299.084C232.217 298.847 232.445 298.671 232.711 298.587C232.978 298.503 233.265 298.515 233.523 298.623C236.716 299.94 240.898 307.535 240.898 307.535C246.306 317.682 250.291 327.862 253.077 336.179C249.809 338.792 246.599 341.476 243.449 344.231C239.434 343.118 235.394 342.096 231.333 341.166ZM248.855 368.557C250.895 368.086 252.664 366.824 253.773 365.049C254.882 363.274 255.241 361.131 254.77 359.091C254.299 357.051 253.037 355.282 251.262 354.173C249.487 353.064 247.344 352.705 245.304 353.176C243.264 353.647 241.495 354.909 240.386 356.684C239.277 358.459 238.918 360.602 239.389 362.642C239.86 364.681 241.122 366.451 242.897 367.56C244.672 368.669 246.815 369.028 248.855 368.557Z" fill="#023E33"/>
</g>
</g>
</g>
<g filter="url(#filter2_d_187_39)">
<path d="M610.908 476.16C599.109 473.436 589.981 466.907 583.523 456.574C577.066 446.24 575.194 435.165 577.907 423.348L637.342 165.907C640.066 154.107 646.602 144.981 656.95 138.527C667.298 132.073 678.367 130.199 690.155 132.906L818.875 162.623L851.876 215.436L1023.5 255.059C1035.3 257.783 1044.44 264.321 1050.91 274.672C1057.37 285.024 1059.24 296.09 1056.5 307.872L1006.98 522.406C1004.25 534.205 997.721 543.341 987.384 549.812C977.047 556.284 965.973 558.149 954.163 555.407L610.908 476.16Z" fill="#B3FFF1"/>
<g filter="url(#filter3_d_187_39)">
<g clip-path="url(#clip2_187_39)">
<path fill-rule="evenodd" clip-rule="evenodd" d="M745.319 250.978C725.984 263.078 720.15 288.35 708.476 338.916C696.802 389.482 690.965 414.765 703.043 434.094C715.14 453.439 740.412 459.274 790.978 470.948C841.544 482.622 866.827 488.459 886.159 476.37C905.496 464.304 911.336 439.011 923.01 388.445C934.684 337.88 940.521 312.597 928.434 293.254C916.367 273.927 891.073 268.088 840.507 256.414C789.942 244.74 764.659 238.903 745.319 250.978ZM762.072 323.27C763.816 321.947 766.014 321.371 768.183 321.668C770.352 321.965 772.314 323.112 773.637 324.855L776.039 328.008C781.281 334.913 785.742 340.79 788.583 345.909C791.608 351.352 793.581 357.242 792.054 363.861C790.526 370.479 786.168 374.919 781.064 378.475C776.268 381.83 769.681 385.157 761.943 389.065L758.402 390.846C757.432 391.366 756.367 391.686 755.271 391.789C754.175 391.891 753.069 391.773 752.019 391.442C750.969 391.111 749.996 390.573 749.157 389.86C748.318 389.147 747.63 388.274 747.134 387.291C746.637 386.309 746.342 385.237 746.266 384.138C746.19 383.04 746.334 381.938 746.691 380.896C747.047 379.854 747.608 378.894 748.341 378.073C749.073 377.251 749.963 376.584 750.957 376.111L753.95 374.599C762.381 370.331 767.896 367.537 771.614 364.938C775.143 362.476 775.75 361.069 775.963 360.146C776.176 359.224 776.245 357.703 774.155 353.933C771.942 349.964 768.223 345.027 762.514 337.506L760.487 334.835C759.164 333.091 758.588 330.893 758.885 328.724C759.183 326.555 760.329 324.594 762.072 323.27ZM869.992 410.1C869.499 412.234 868.179 414.085 866.322 415.245C864.465 416.406 862.223 416.781 860.09 416.288L806.456 403.906C804.322 403.413 802.472 402.093 801.311 400.236C800.151 398.379 799.776 396.137 800.268 394.003C800.761 391.87 802.081 390.019 803.938 388.859C805.795 387.698 808.037 387.323 810.171 387.816L863.804 400.198C865.938 400.691 867.789 402.011 868.949 403.868C870.109 405.725 870.485 407.967 869.992 410.1Z" fill="#023E33"/>
</g>
</g>
</g>
<g filter="url(#filter4_d_187_39)">
<g filter="url(#filter5_d_187_39)">
<path d="M341.035 465.284C328.926 465.284 318.563 460.976 309.946 452.359C301.33 443.743 297.015 433.373 297 421.248V157.035C297 144.926 301.315 134.563 309.946 125.946C318.577 117.33 328.94 113.015 341.035 113H473.142L517.177 157.035H693.319C705.429 157.035 715.799 161.351 724.43 169.982C733.061 178.613 737.369 188.976 737.355 201.071V421.248C737.355 433.358 733.046 443.728 724.43 452.359C715.814 460.99 705.444 465.298 693.319 465.284H341.035Z" fill="#B3FFF1"/>
</g>
<g filter="url(#filter6_d_187_39)">
<g clip-path="url(#clip3_187_39)">
<path d="M602.535 197.505H428.099C423.473 197.505 419.036 199.343 415.764 202.614C412.493 205.885 410.655 210.322 410.655 214.948V389.385C410.655 394.011 412.493 398.448 415.764 401.719C419.036 404.99 423.473 406.828 428.099 406.828H602.535C607.161 406.828 611.598 404.99 614.87 401.719C618.141 398.448 619.979 394.011 619.979 389.385V214.948C619.979 210.322 618.141 205.885 614.87 202.614C611.598 199.343 607.161 197.505 602.535 197.505ZM535.312 247.285C533.675 245.648 532.756 243.428 532.756 241.114C532.756 238.799 533.675 236.58 535.312 234.943C536.948 233.307 539.168 232.387 541.482 232.387C543.797 232.387 546.017 233.307 547.653 234.943L558.926 246.227L570.199 234.943C571.836 233.307 574.055 232.387 576.37 232.387C578.684 232.387 580.904 233.307 582.54 234.943C584.177 236.58 585.096 238.799 585.096 241.114C585.096 243.428 584.177 245.648 582.54 247.285L571.257 258.557L582.54 269.83C583.351 270.641 583.994 271.603 584.432 272.662C584.871 273.72 585.096 274.855 585.096 276.001C585.096 277.147 584.871 278.282 584.432 279.341C583.994 280.399 583.351 281.361 582.54 282.172C581.73 282.982 580.768 283.625 579.709 284.063C578.65 284.502 577.516 284.728 576.37 284.728C575.224 284.728 574.089 284.502 573.03 284.063C571.971 283.625 571.009 282.982 570.199 282.172L558.926 270.888L547.653 282.172C546.017 283.808 543.797 284.728 541.482 284.728C539.168 284.728 536.948 283.808 535.312 282.172C533.675 280.535 532.756 278.316 532.756 276.001C532.756 273.687 533.675 271.467 535.312 269.83L546.596 258.557L535.312 247.285ZM497.873 354.497H480.43V371.941C480.43 374.254 479.511 376.473 477.875 378.108C476.24 379.744 474.021 380.663 471.708 380.663C469.395 380.663 467.176 379.744 465.541 378.108C463.905 376.473 462.986 374.254 462.986 371.941V354.497H445.543C443.229 354.497 441.011 353.578 439.375 351.943C437.74 350.307 436.821 348.089 436.821 345.776C436.821 343.462 437.74 341.244 439.375 339.608C441.011 337.973 443.229 337.054 445.543 337.054H462.986V319.61C462.986 317.297 463.905 315.079 465.541 313.443C467.176 311.807 469.395 310.888 471.708 310.888C474.021 310.888 476.24 311.807 477.875 313.443C479.511 315.079 480.43 317.297 480.43 319.61V337.054H497.873C500.187 337.054 502.405 337.973 504.041 339.608C505.676 341.244 506.595 343.462 506.595 345.776C506.595 348.089 505.676 350.307 504.041 351.943C502.405 353.578 500.187 354.497 497.873 354.497ZM497.873 267.279H445.543C443.229 267.279 441.011 266.36 439.375 264.725C437.74 263.089 436.821 260.871 436.821 258.557C436.821 256.244 437.74 254.026 439.375 252.39C441.011 250.755 443.229 249.836 445.543 249.836H497.873C500.187 249.836 502.405 250.755 504.041 252.39C505.676 254.026 506.595 256.244 506.595 258.557C506.595 260.871 505.676 263.089 504.041 264.725C502.405 266.36 500.187 267.279 497.873 267.279ZM585.092 371.941H532.761C530.447 371.941 528.229 371.022 526.593 369.386C524.958 367.751 524.039 365.532 524.039 363.219C524.039 360.906 524.958 358.688 526.593 357.052C528.229 355.416 530.447 354.497 532.761 354.497H585.092C587.405 354.497 589.623 355.416 591.259 357.052C592.894 358.688 593.813 360.906 593.813 363.219C593.813 365.532 592.894 367.751 591.259 369.386C589.623 371.022 587.405 371.941 585.092 371.941ZM585.092 337.054H532.761C530.447 337.054 528.229 336.135 526.593 334.499C524.958 332.864 524.039 330.645 524.039 328.332C524.039 326.019 524.958 323.8 526.593 322.165C528.229 320.529 530.447 319.61 532.761 319.61H585.092C587.405 319.61 589.623 320.529 591.259 322.165C592.894 323.8 593.813 326.019 593.813 328.332C593.813 330.645 592.894 332.864 591.259 334.499C589.623 336.135 587.405 337.054 585.092 337.054Z" fill="#023E33"/>
</g>
</g>
</g>
<g filter="url(#filter7_d_187_39)">
<path d="M517 704V684.657C517 657.042 539.386 634.657 567 634.657H772.159C799.773 634.657 822.159 612.271 822.159 584.657V565.313" stroke="#B3FFF1" stroke-width="20"/>
</g>
<g filter="url(#filter8_d_187_39)">
<path d="M245.157 565.313V584.657C245.157 612.271 267.543 634.657 295.157 634.657H467C494.614 634.657 517 657.042 517 684.657V704" stroke="#B3FFF1" stroke-width="20"/>
</g>
<g filter="url(#filter9_d_187_39)">
<path d="M517 704V599.5C517 599.5 517 599.5 517 599.5V599.5C517 599.5 517 599.5 517 599.5V495" stroke="#B3FFF1" stroke-width="20"/>
</g>
<g clip-path="url(#clip4_187_39)">
<g filter="url(#filter10_d_187_39)">
<path d="M569.25 738.5H461.25C452.299 738.5 443.715 742.056 437.385 748.385C431.056 754.714 427.5 763.299 427.5 772.25V1001.75C427.5 1010.7 431.056 1019.29 437.385 1025.61C443.715 1031.94 452.299 1035.5 461.25 1035.5H569.25C578.201 1035.5 586.786 1031.94 593.115 1025.61C599.444 1019.29 603 1010.7 603 1001.75V772.25C603 763.299 599.444 754.714 593.115 748.385C586.786 742.056 578.201 738.5 569.25 738.5ZM515.25 1022C504.045 1022 495 1012.95 495 1001.75C495 990.545 504.045 981.5 515.25 981.5C526.455 981.5 535.5 990.545 535.5 1001.75C535.5 1012.95 526.455 1022 515.25 1022ZM576 968H454.5V779H576V968Z" fill="#B3FFF1"/>
</g>
</g>
</g>
<defs>
<filter id="filter0_d_187_39" x="-11.8047" y="174.602" width="509.927" height="402.518" filterUnits="userSpaceOnUse" color-interpolation-filters="sRGB">
<feFlood flood-opacity="0" result="BackgroundImageFix"/>
<feColorMatrix in="SourceAlpha" type="matrix" values="0 0 0 0 0 0 0 0 0 0 0 0 0 0 0 0 0 0 127 0" result="hardAlpha"/>
<feOffset dx="-2" dy="11"/>
<feGaussianBlur stdDeviation="4.75"/>
<feComposite in2="hardAlpha" operator="out"/>
<feColorMatrix type="matrix" values="0 0 0 0 0 0 0 0 0 0 0 0 0 0 0 0 0 0 0.4 0"/>
<feBlend mode="normal" in2="BackgroundImageFix" result="effect1_dropShadow_187_39"/>
<feBlend mode="normal" in="SourceGraphic" in2="effect1_dropShadow_187_39" result="shape"/>
</filter>
<filter id="filter1_d_187_39" x="120.378" y="238.158" width="253.467" height="253.467" filterUnits="userSpaceOnUse" color-interpolation-filters="sRGB">
<feFlood flood-opacity="0" result="BackgroundImageFix"/>
<feColorMatrix in="SourceAlpha" type="matrix" values="0 0 0 0 0 0 0 0 0 0 0 0 0 0 0 0 0 0 127 0" result="hardAlpha"/>
<feOffset dy="4"/>
<feGaussianBlur stdDeviation="2"/>
<feComposite in2="hardAlpha" operator="out"/>
<feColorMatrix type="matrix" values="0 0 0 0 0 0 0 0 0 0 0 0 0 0 0 0 0 0 0.25 0"/>
<feBlend mode="normal" in2="BackgroundImageFix" result="effect1_dropShadow_187_39"/>
<feBlend mode="normal" in="SourceGraphic" in2="effect1_dropShadow_187_39" result="shape"/>
</filter>
<filter id="filter2_d_187_39" x="565.203" y="131.706" width="500.021" height="445.425" filterUnits="userSpaceOnUse" color-interpolation-filters="sRGB">
<feFlood flood-opacity="0" result="BackgroundImageFix"/>
<feColorMatrix in="SourceAlpha" type="matrix" values="0 0 0 0 0 0 0 0 0 0 0 0 0 0 0 0 0 0 127 0" result="hardAlpha"/>
<feOffset dx="-2" dy="11"/>
<feGaussianBlur stdDeviation="4.75"/>
<feComposite in2="hardAlpha" operator="out"/>
<feColorMatrix type="matrix" values="0 0 0 0 0 0 0 0 0 0 0 0 0 0 0 0 0 0 0.4 0"/>
<feBlend mode="normal" in2="BackgroundImageFix" result="effect1_dropShadow_187_39"/>
<feBlend mode="normal" in="SourceGraphic" in2="effect1_dropShadow_187_39" result="shape"/>
</filter>
<filter id="filter3_d_187_39" x="680.083" y="232.021" width="271.319" height="271.319" filterUnits="userSpaceOnUse" color-interpolation-filters="sRGB">
<feFlood flood-opacity="0" result="BackgroundImageFix"/>
<feColorMatrix in="SourceAlpha" type="matrix" values="0 0 0 0 0 0 0 0 0 0 0 0 0 0 0 0 0 0 127 0" result="hardAlpha"/>
<feOffset dy="4"/>
<feGaussianBlur stdDeviation="2"/>
<feComposite in2="hardAlpha" operator="out"/>
<feColorMatrix type="matrix" values="0 0 0 0 0 0 0 0 0 0 0 0 0 0 0 0 0 0 0.25 0"/>
<feBlend mode="normal" in2="BackgroundImageFix" result="effect1_dropShadow_187_39"/>
<feBlend mode="normal" in="SourceGraphic" in2="effect1_dropShadow_187_39" result="shape"/>
</filter>
<filter id="filter4_d_187_39" x="285.5" y="113" width="459.354" height="372.784" filterUnits="userSpaceOnUse" color-interpolation-filters="sRGB">
<feFlood flood-opacity="0" result="BackgroundImageFix"/>
<feColorMatrix in="SourceAlpha" type="matrix" values="0 0 0 0 0 0 0 0 0 0 0 0 0 0 0 0 0 0 127 0" result="hardAlpha"/>
<feOffset dx="-2" dy="11"/>
<feGaussianBlur stdDeviation="4.75"/>
<feComposite in2="hardAlpha" operator="out"/>
<feColorMatrix type="matrix" values="0 0 0 0 0 0 0 0 0 0 0 0 0 0 0 0 0 0 0.4 0"/>
<feBlend mode="normal" in2="BackgroundImageFix" result="effect1_dropShadow_187_39"/>
<feBlend mode="normal" in="SourceGraphic" in2="effect1_dropShadow_187_39" result="shape"/>
</filter>
<filter id="filter5_d_187_39" x="293" y="113" width="448.354" height="360.284" filterUnits="userSpaceOnUse" color-interpolation-filters="sRGB">
<feFlood flood-opacity="0" result="BackgroundImageFix"/>
<feColorMatrix in="SourceAlpha" type="matrix" values="0 0 0 0 0 0 0 0 0 0 0 0 0 0 0 0 0 0 127 0" result="hardAlpha"/>
<feOffset dy="4"/>
<feGaussianBlur stdDeviation="2"/>
<feComposite in2="hardAlpha" operator="out"/>
<feColorMatrix type="matrix" values="0 0 0 0 0 0 0 0 0 0 0 0 0 0 0 0 0 0 0.4 0"/>
<feBlend mode="normal" in2="BackgroundImageFix" result="effect1_dropShadow_187_39"/>
<feBlend mode="normal" in="SourceGraphic" in2="effect1_dropShadow_187_39" result="shape"/>
</filter>
<filter id="filter6_d_187_39" x="408.981" y="196.109" width="212.672" height="216.393" filterUnits="userSpaceOnUse" color-interpolation-filters="sRGB">
<feFlood flood-opacity="0" result="BackgroundImageFix"/>
<feColorMatrix in="SourceAlpha" type="matrix" values="0 0 0 0 0 0 0 0 0 0 0 0 0 0 0 0 0 0 127 0" result="hardAlpha"/>
<feOffset dy="4"/>
<feGaussianBlur stdDeviation="2"/>
<feComposite in2="hardAlpha" operator="out"/>
<feColorMatrix type="matrix" values="0 0 0 0 0 0 0 0 0 0 0 0 0 0 0 0 0 0 0.25 0"/>
<feBlend mode="normal" in2="BackgroundImageFix" result="effect1_dropShadow_187_39"/>
<feBlend mode="normal" in="SourceGraphic" in2="effect1_dropShadow_187_39" result="shape"/>
</filter>
<filter id="filter7_d_187_39" x="495.5" y="565.313" width="344.159" height="159.187" filterUnits="userSpaceOnUse" color-interpolation-filters="sRGB">
<feFlood flood-opacity="0" result="BackgroundImageFix"/>
<feColorMatrix in="SourceAlpha" type="matrix" values="0 0 0 0 0 0 0 0 0 0 0 0 0 0 0 0 0 0 127 0" result="hardAlpha"/>
<feOffset dx="-2" dy="11"/>
<feGaussianBlur stdDeviation="4.75"/>
<feComposite in2="hardAlpha" operator="out"/>
<feColorMatrix type="matrix" values="0 0 0 0 0 0 0 0 0 0 0 0 0 0 0 0 0 0 0.4 0"/>
<feBlend mode="normal" in2="BackgroundImageFix" result="effect1_dropShadow_187_39"/>
<feBlend mode="normal" in="SourceGraphic" in2="effect1_dropShadow_187_39" result="shape"/>
</filter>
<filter id="filter8_d_187_39" x="223.657" y="565.313" width="310.843" height="159.187" filterUnits="userSpaceOnUse" color-interpolation-filters="sRGB">
<feFlood flood-opacity="0" result="BackgroundImageFix"/>
<feColorMatrix in="SourceAlpha" type="matrix" values="0 0 0 0 0 0 0 0 0 0 0 0 0 0 0 0 0 0 127 0" result="hardAlpha"/>
<feOffset dx="-2" dy="11"/>
<feGaussianBlur stdDeviation="4.75"/>
<feComposite in2="hardAlpha" operator="out"/>
<feColorMatrix type="matrix" values="0 0 0 0 0 0 0 0 0 0 0 0 0 0 0 0 0 0 0.4 0"/>
<feBlend mode="normal" in2="BackgroundImageFix" result="effect1_dropShadow_187_39"/>
<feBlend mode="normal" in="SourceGraphic" in2="effect1_dropShadow_187_39" result="shape"/>
</filter>
<filter id="filter9_d_187_39" x="495.5" y="495" width="39" height="229.5" filterUnits="userSpaceOnUse" color-interpolation-filters="sRGB">
<feFlood flood-opacity="0" result="BackgroundImageFix"/>
<feColorMatrix in="SourceAlpha" type="matrix" values="0 0 0 0 0 0 0 0 0 0 0 0 0 0 0 0 0 0 127 0" result="hardAlpha"/>
<feOffset dx="-2" dy="11"/>
<feGaussianBlur stdDeviation="4.75"/>
<feComposite in2="hardAlpha" operator="out"/>
<feColorMatrix type="matrix" values="0 0 0 0 0 0 0 0 0 0 0 0 0 0 0 0 0 0 0.4 0"/>
<feBlend mode="normal" in2="BackgroundImageFix" result="effect1_dropShadow_187_39"/>
<feBlend mode="normal" in="SourceGraphic" in2="effect1_dropShadow_187_39" result="shape"/>
</filter>
<filter id="filter10_d_187_39" x="416" y="738.5" width="194.5" height="317.5" filterUnits="userSpaceOnUse" color-interpolation-filters="sRGB">
<feFlood flood-opacity="0" result="BackgroundImageFix"/>
<feColorMatrix in="SourceAlpha" type="matrix" values="0 0 0 0 0 0 0 0 0 0 0 0 0 0 0 0 0 0 127 0" result="hardAlpha"/>
<feOffset dx="-2" dy="11"/>
<feGaussianBlur stdDeviation="4.75"/>
<feComposite in2="hardAlpha" operator="out"/>
<feColorMatrix type="matrix" values="0 0 0 0 0 0 0 0 0 0 0 0 0 0 0 0 0 0 0.4 0"/>
<feBlend mode="normal" in2="BackgroundImageFix" result="effect1_dropShadow_187_39"/>
<feBlend mode="normal" in="SourceGraphic" in2="effect1_dropShadow_187_39" result="shape"/>
</filter>
<clipPath id="clip0_187_39">
<rect width="1067" height="1067" rx="50" fill="white"/>
</clipPath>
<clipPath id="clip1_187_39">
<rect x="124.378" y="284.199" width="204.672" height="204.672" rx="40" transform="rotate(-13 124.378 284.199)" fill="white"/>
</clipPath>
<clipPath id="clip2_187_39">
<rect x="733.473" y="232.021" width="219.557" height="219.557" rx="25" transform="rotate(13 733.473 232.021)" fill="white"/>
</clipPath>
<clipPath id="clip3_187_39">
<rect x="412.981" y="196.109" width="204.672" height="208.393" rx="25" fill="white"/>
</clipPath>
<clipPath id="clip4_187_39">
<rect width="324" height="324" fill="white" transform="translate(360 725)"/>
</clipPath>
</defs>
</svg>
