<svg width="53" height="52" viewBox="0 0 53 52" fill="none" xmlns="http://www.w3.org/2000/svg">
<g filter="url(#filter0_d_156_113)">
<path d="M6.30774 21.4952C6.30774 13.8807 6.30774 10.0724 8.67427 7.70793C11.0388 5.3414 14.847 5.3414 22.4615 5.3414H30.5385C38.153 5.3414 41.9612 5.3414 44.3257 7.70793C46.6923 10.0724 46.6923 13.8807 46.6923 21.4952V25.5337C46.6923 33.1482 46.6923 36.9564 44.3257 39.3209C41.9612 41.6875 38.153 41.6875 30.5385 41.6875H22.4615C14.847 41.6875 11.0388 41.6875 8.67427 39.3209C6.30774 36.9564 6.30774 33.1482 6.30774 25.5337V21.4952Z" stroke="#07F8CC" stroke-width="3"/>
<path opacity="0.5" d="M16.4039 5.3414V2.31256M36.5962 5.3414V2.31256M7.31738 15.4375H45.6827" stroke="#07F8CC" stroke-width="3" stroke-linecap="round"/>
<path d="M38.6154 31.5913C38.6154 32.1269 38.4026 32.6405 38.0239 33.0192C37.6453 33.3978 37.1317 33.6106 36.5961 33.6106C36.0606 33.6106 35.547 33.3978 35.1683 33.0192C34.7896 32.6405 34.5769 32.1269 34.5769 31.5913C34.5769 31.0558 34.7896 30.5422 35.1683 30.1635C35.547 29.7849 36.0606 29.5721 36.5961 29.5721C37.1317 29.5721 37.6453 29.7849 38.0239 30.1635C38.4026 30.5422 38.6154 31.0558 38.6154 31.5913ZM38.6154 23.5144C38.6154 24.05 38.4026 24.5636 38.0239 24.9422C37.6453 25.3209 37.1317 25.5337 36.5961 25.5337C36.0606 25.5337 35.547 25.3209 35.1683 24.9422C34.7896 24.5636 34.5769 24.05 34.5769 23.5144C34.5769 22.9789 34.7896 22.4653 35.1683 22.0866C35.547 21.7079 36.0606 21.4952 36.5961 21.4952C37.1317 21.4952 37.6453 21.7079 38.0239 22.0866C38.4026 22.4653 38.6154 22.9789 38.6154 23.5144ZM28.5192 31.5913C28.5192 32.1269 28.3065 32.6405 27.9278 33.0192C27.5491 33.3978 27.0355 33.6106 26.5 33.6106C25.9645 33.6106 25.4509 33.3978 25.0722 33.0192C24.6935 32.6405 24.4808 32.1269 24.4808 31.5913C24.4808 31.0558 24.6935 30.5422 25.0722 30.1635C25.4509 29.7849 25.9645 29.5721 26.5 29.5721C27.0355 29.5721 27.5491 29.7849 27.9278 30.1635C28.3065 30.5422 28.5192 31.0558 28.5192 31.5913ZM28.5192 23.5144C28.5192 24.05 28.3065 24.5636 27.9278 24.9422C27.5491 25.3209 27.0355 25.5337 26.5 25.5337C25.9645 25.5337 25.4509 25.3209 25.0722 24.9422C24.6935 24.5636 24.4808 24.05 24.4808 23.5144C24.4808 22.9789 24.6935 22.4653 25.0722 22.0866C25.4509 21.7079 25.9645 21.4952 26.5 21.4952C27.0355 21.4952 27.5491 21.7079 27.9278 22.0866C28.3065 22.4653 28.5192 22.9789 28.5192 23.5144ZM18.4231 31.5913C18.4231 32.1269 18.2104 32.6405 17.8317 33.0192C17.453 33.3978 16.9394 33.6106 16.4039 33.6106C15.8683 33.6106 15.3547 33.3978 14.9761 33.0192C14.5974 32.6405 14.3846 32.1269 14.3846 31.5913C14.3846 31.0558 14.5974 30.5422 14.9761 30.1635C15.3547 29.7849 15.8683 29.5721 16.4039 29.5721C16.9394 29.5721 17.453 29.7849 17.8317 30.1635C18.2104 30.5422 18.4231 31.0558 18.4231 31.5913ZM18.4231 23.5144C18.4231 24.05 18.2104 24.5636 17.8317 24.9422C17.453 25.3209 16.9394 25.5337 16.4039 25.5337C15.8683 25.5337 15.3547 25.3209 14.9761 24.9422C14.5974 24.5636 14.3846 24.05 14.3846 23.5144C14.3846 22.9789 14.5974 22.4653 14.9761 22.0866C15.3547 21.7079 15.8683 21.4952 16.4039 21.4952C16.9394 21.4952 17.453 21.7079 17.8317 22.0866C18.2104 22.4653 18.4231 22.9789 18.4231 23.5144Z" fill="#07F8CC"/>
</g>
<defs>
<filter id="filter0_d_156_113" x="0.807739" y="0.812561" width="51.3845" height="50.3749" filterUnits="userSpaceOnUse" color-interpolation-filters="sRGB">
<feFlood flood-opacity="0" result="BackgroundImageFix"/>
<feColorMatrix in="SourceAlpha" type="matrix" values="0 0 0 0 0 0 0 0 0 0 0 0 0 0 0 0 0 0 127 0" result="hardAlpha"/>
<feOffset dy="4"/>
<feGaussianBlur stdDeviation="2"/>
<feComposite in2="hardAlpha" operator="out"/>
<feColorMatrix type="matrix" values="0 0 0 0 0 0 0 0 0 0 0 0 0 0 0 0 0 0 0.25 0"/>
<feBlend mode="normal" in2="BackgroundImageFix" result="effect1_dropShadow_156_113"/>
<feBlend mode="normal" in="SourceGraphic" in2="effect1_dropShadow_156_113" result="shape"/>
</filter>
</defs>
</svg>
