<svg width="57" height="57" viewBox="0 0 57 57" fill="none" xmlns="http://www.w3.org/2000/svg">
<g clip-path="url(#clip0_102_265)">
<path d="M50.375 0.375C52.0326 0.375 53.6223 1.03348 54.7944 2.20558C55.9665 3.37768 56.625 4.9674 56.625 6.625V50.375C56.625 52.0326 55.9665 53.6223 54.7944 54.7944C53.6223 55.9665 52.0326 56.625 50.375 56.625H6.625C4.9674 56.625 3.37768 55.9665 2.20558 54.7944C1.03348 53.6223 0.375 52.0326 0.375 50.375V6.625C0.375 4.9674 1.03348 3.37768 2.20558 2.20558C3.37768 1.03348 4.9674 0.375 6.625 0.375H50.375ZM48.8125 48.8125V32.25C48.8125 29.5481 47.7392 26.9569 45.8287 25.0463C43.9181 23.1358 41.3269 22.0625 38.625 22.0625C35.9688 22.0625 32.875 23.6875 31.375 26.125V22.6562H22.6562V48.8125H31.375V33.4062C31.375 31 33.3125 29.0312 35.7188 29.0312C36.8791 29.0312 37.9919 29.4922 38.8123 30.3127C39.6328 31.1331 40.0938 32.2459 40.0938 33.4062V48.8125H48.8125ZM12.5 17.75C13.8924 17.75 15.2277 17.1969 16.2123 16.2123C17.1969 15.2277 17.75 13.8924 17.75 12.5C17.75 9.59375 15.4062 7.21875 12.5 7.21875C11.0993 7.21875 9.75602 7.77517 8.76559 8.76559C7.77517 9.75602 7.21875 11.0993 7.21875 12.5C7.21875 15.4062 9.59375 17.75 12.5 17.75ZM16.8438 48.8125V22.6562H8.1875V48.8125H16.8438Z" fill="#B3FFF1"/>
</g>
<defs>
<clipPath id="clip0_102_265">
<rect width="57" height="57" fill="white"/>
</clipPath>
</defs>
</svg>
