<svg width="65" height="57" viewBox="0 0 65 57" fill="none" xmlns="http://www.w3.org/2000/svg">
<g clip-path="url(#clip0_102_267)">
<path d="M21.1767 28.5988C21.1767 29.4327 21.1109 30.2336 20.9792 31.0017C20.7378 31.7478 20.4087 32.4281 19.9917 33.0425C19.5528 33.635 19.0152 34.1068 18.3788 34.4579C17.7205 34.8091 16.9414 34.9846 16.0417 34.9846C15.12 34.9846 14.341 34.7981 13.7046 34.425C13.0682 34.052 12.5416 33.5582 12.1246 32.9438C11.7077 32.3293 11.4114 31.6381 11.2359 30.87C11.0384 30.102 10.9396 29.312 10.9396 28.5C10.9396 27.71 11.0384 26.92 11.2359 26.13C11.4114 25.362 11.7077 24.6707 12.1246 24.0563C12.5416 23.4418 13.0902 22.9481 13.7705 22.575C14.4288 22.202 15.2188 22.0154 16.1405 22.0154C17.0841 22.0154 17.8741 22.202 18.5105 22.575C19.1688 22.97 19.6955 23.4747 20.0905 24.0892C20.4855 24.7256 20.7817 25.4278 20.9792 26.1959C21.1109 26.9859 21.1767 27.7868 21.1767 28.5988ZM65.4167 28.5V54.2079C65.4167 55.0638 65.1205 55.8209 64.528 56.4792C63.9135 57.0278 63.1784 57.3021 62.3225 57.3021H19.1359C18.28 57.3021 17.5449 57.0278 16.9305 56.4792C16.338 55.8209 16.0417 55.0638 16.0417 54.2079V44.9584H2.31546C1.59129 44.9584 0.94393 44.695 0.373374 44.1684C-0.153293 43.5978 -0.416626 42.9504 -0.416626 42.2263V14.7738C-0.416626 14.0496 -0.153293 13.4022 0.373374 12.8317C0.94393 12.305 1.59129 12.0417 2.31546 12.0417H20.1563V2.5946C20.1563 1.78266 20.4306 1.09141 20.9792 0.520854C21.5498 -0.0277574 22.241 -0.302063 23.053 -0.302063H58.4055C59.2174 -0.302063 59.9087 -0.0277574 60.4792 0.520854C61.0278 1.09141 61.3021 1.78266 61.3021 2.5946V25.34L64.7255 27.315H64.7584C64.9339 27.4467 65.0875 27.6222 65.2192 27.8417C65.3509 28.0392 65.4167 28.2586 65.4167 28.5ZM48.9584 5.88627V14.1154H57.1875V5.88627M48.9584 18.23V26.4592H57.1875V18.23M48.9584 30.5738V35.5771L57.3192 30.5738M34.5738 5.88627V14.1154H44.8438V5.88627M34.5738 18.23V26.4592H44.8438V18.23M34.5738 30.5738V36.1367L41.19 40.2184L44.8438 38.0459V30.5738M24.2709 5.88627V12.0417H30.0971C30.2288 12.0417 30.3495 12.0856 30.4592 12.1734V5.85335M16.0417 39.4284C17.6437 39.4284 19.092 39.1431 20.3867 38.5725C21.6595 38.002 22.7457 37.2229 23.6455 36.2354C24.5232 35.2479 25.1816 34.0739 25.6205 32.7134C26.0813 31.3528 26.3227 29.8825 26.3446 28.3025C26.3446 26.7884 26.1142 25.3729 25.6534 24.0563C25.2145 22.7615 24.5562 21.6314 23.6784 20.6659C22.8225 19.7003 21.7802 18.9432 20.5513 18.3946C19.3005 17.846 17.885 17.5717 16.305 17.5717C14.6153 17.5717 13.1121 17.846 11.7955 18.3946C10.5007 18.9432 9.40351 19.7113 8.50379 20.6988C7.60407 21.7082 6.92379 22.8932 6.46296 24.2538C6.00212 25.6363 5.77171 27.1395 5.77171 28.7634C5.77171 30.2995 6.00212 31.7259 6.46296 33.0425C6.94574 34.3372 7.62601 35.4564 8.50379 36.4C9.38157 37.3436 10.4459 38.0897 11.6967 38.6384C12.9695 39.165 14.4178 39.4284 16.0417 39.4284ZM20.1563 53.1875H54.1263L32.5 39.6917V42.2263C32.5 42.9504 32.2367 43.5978 31.71 44.1684C31.1395 44.695 30.4921 44.9584 29.768 44.9584H20.1563M61.3021 52.8254V32.9767L45.1071 42.6871L61.3021 52.8254Z" fill="#B3FFF1"/>
</g>
<defs>
<clipPath id="clip0_102_267">
<rect width="65" height="57" fill="white"/>
</clipPath>
</defs>
</svg>
