<svg width="68" height="59" viewBox="0 0 68 59" fill="none" xmlns="http://www.w3.org/2000/svg">
<g clip-path="url(#clip0_100_253)">
<path d="M67.25 10.575C64.7131 11.6755 62.0303 12.4031 59.285 12.735C62.1813 11.0047 64.3518 8.28262 65.3938 5.07373C62.672 6.69394 59.6926 7.83548 56.585 8.44873C54.5078 6.19616 51.7418 4.69673 48.7206 4.1856C45.6994 3.67447 42.5941 4.18056 39.8915 5.62449C37.189 7.06842 35.0421 9.36852 33.7877 12.164C32.5332 14.9596 32.2421 18.0924 32.96 21.0712C27.4568 20.7929 22.0737 19.3599 17.1605 16.8655C12.2472 14.3711 7.91361 10.8709 4.44125 6.59247C3.22334 8.71929 2.58338 11.1279 2.585 13.5787C2.58068 15.8548 3.13923 18.0966 4.21092 20.1045C5.28261 22.1125 6.83419 23.8242 8.7275 25.0875C6.52692 25.0276 4.37336 24.4371 2.45 23.3662V23.535C2.46649 26.724 3.58398 29.8094 5.61344 32.2694C7.64289 34.7293 10.4597 36.4128 13.5875 37.035C12.3835 37.4014 11.1335 37.5946 9.875 37.6087C9.00388 37.5985 8.13492 37.5196 7.27625 37.3725C8.16695 40.1157 9.8906 42.5131 12.2074 44.231C14.5242 45.9489 17.3188 46.902 20.2025 46.9575C15.3331 50.789 9.32111 52.8801 3.125 52.8975C1.99686 52.9012 0.869608 52.8335 -0.25 52.695C6.0762 56.7796 13.4485 58.9479 20.9788 58.9387C26.1752 58.9927 31.3303 58.0107 36.143 56.05C40.9557 54.0893 45.3295 51.1893 49.0088 47.5194C52.6882 43.8495 55.5994 39.4832 57.5724 34.6755C59.5454 29.8679 60.5406 24.7153 60.5 19.5187V17.73C63.1483 15.755 65.4325 13.3338 67.25 10.575Z" fill="#B3FFF1"/>
</g>
<defs>
<clipPath id="clip0_100_253">
<rect width="68" height="59" fill="white"/>
</clipPath>
</defs>
</svg>
