<svg width="430" height="420" viewBox="0 0 430 420" fill="none" xmlns="http://www.w3.org/2000/svg">
<g clip-path="url(#clip0_17_233)">
<mask id="mask0_17_233" style="mask-type:luminance" maskUnits="userSpaceOnUse" x="-112" y="0" width="687" height="420">
<path d="M574.217 0H-111.217V420H574.217V0Z" fill="white"/>
</mask>
<g mask="url(#mask0_17_233)">
<path d="M574.217 0H-111.217V420H574.217V0Z" fill="#74AAFD"/>
<path fill-rule="evenodd" clip-rule="evenodd" d="M39.0261 70.0887C77.4094 70.0887 108.526 38.9076 108.526 0.443573C108.526 -38.0204 77.4094 -69.2015 39.0261 -69.2015C0.642567 -69.2015 -30.4734 -38.0204 -30.4734 0.443573C-30.4734 38.9076 0.642567 70.0887 39.0261 70.0887Z" fill="white"/>
<path fill-rule="evenodd" clip-rule="evenodd" d="M107.817 95.4626C138.525 95.4626 163.417 70.5176 163.417 39.7465C163.417 8.97534 138.525 -15.9696 107.817 -15.9696C77.1101 -15.9696 52.2178 8.97534 52.2178 39.7465C52.2178 70.5176 77.1101 95.4626 107.817 95.4626Z" fill="white"/>
<path fill-rule="evenodd" clip-rule="evenodd" d="M219.459 161.293C287.572 161.293 342.788 105.961 342.788 37.706C342.788 -30.5491 287.572 -85.8809 219.459 -85.8809C151.346 -85.8809 96.1309 -30.5491 96.1309 37.706C96.1309 105.961 151.346 161.293 219.459 161.293Z" fill="white"/>
<path fill-rule="evenodd" clip-rule="evenodd" d="M366.692 88.365C420.576 88.365 464.257 44.5922 464.257 -9.40431C464.257 -63.4008 420.576 -107.174 366.692 -107.174C312.808 -107.174 269.127 -63.4008 269.127 -9.40431C269.127 44.5922 312.808 88.365 366.692 88.365Z" fill="white"/>
<path fill-rule="evenodd" clip-rule="evenodd" d="M505.691 28.5678C559.575 28.5678 603.256 -15.205 603.256 -69.2015C603.256 -123.198 559.575 -166.971 505.691 -166.971C451.807 -166.971 408.126 -123.198 408.126 -69.2015C408.126 -15.205 451.807 28.5678 505.691 28.5678Z" fill="white"/>
<path fill-rule="evenodd" clip-rule="evenodd" d="M137.464 233.399C136.989 241.157 136.515 248.914 136.042 256.674C139.089 255.794 158.48 250.078 157.283 255.874C156.424 260.029 150.973 264.526 148.194 267.42C145.637 270.085 143.006 272.679 140.306 275.198C145.267 273.296 150.271 271.494 155.309 269.808C159.121 268.534 162.962 267.288 166.87 266.332C168.32 265.977 172.235 264.529 173.605 265.516C177.205 268.112 157.673 287.227 154.997 289.922C158.78 288.159 162.654 286.558 166.595 285.185C169.439 284.193 178.227 280.401 180.745 283.639C183.44 287.103 176.764 295.056 174.914 297.577C172.26 301.19 169.386 304.657 166.37 307.972C178.905 319.251 193.637 329.289 209.315 335.53C220.808 340.104 232.1 341.27 244.231 338.759C256.692 336.179 268.642 331.232 280.003 325.575C286.675 322.254 293.258 318.659 299.532 314.62C296.945 311.471 294.435 308.254 291.995 304.989C288.514 300.326 284.236 295.231 282.25 289.681C280.307 284.248 287.597 285.309 291.092 285.604C296.155 286.031 301.203 286.938 306.165 288.022C302.657 285.579 299.213 283.036 295.838 280.412C291.438 276.991 285.571 273.124 282.691 268.204C280.158 263.876 285.717 264.969 288.286 265.535C294.412 266.887 300.373 269.192 306.216 271.439C310.496 273.085 314.749 274.808 318.96 276.623C316.346 274.347 313.819 271.96 311.392 269.487C308.126 266.163 303.726 262.103 302.262 257.525C299.282 248.203 319.328 255.235 322.751 256.674C322.118 247.016 321.488 237.358 320.856 227.7C294.312 234.774 267.767 241.85 241.225 248.927C238.356 249.692 234.765 251.358 231.774 251.446C229.063 251.526 225.791 250.305 223.149 249.8L175.114 240.607C162.563 238.204 150.015 235.802 137.464 233.399Z" fill="#FF5678"/>
<path fill-rule="evenodd" clip-rule="evenodd" d="M422.752 565.586C419.887 567.229 416.53 568.498 413.346 569.347C411.476 569.848 408.386 571.392 406.745 569.977C405.955 569.298 405.775 567.754 405.309 566.86C404.574 565.444 403.526 564.221 402.547 562.97C400.169 559.938 397.697 557.012 395.108 554.159C393.883 552.807 391.643 549.65 389.481 549.858C386.788 550.117 386.853 553.852 387.528 555.759C389.677 561.833 396.181 567.128 400.431 571.704C399.351 573.37 393.417 573.171 391.77 572.781C389.254 572.187 388.999 570.393 387.852 568.34C385.167 563.543 379.719 560.861 375.241 558.039C373.608 557.01 370.14 554.16 368.011 554.879C365.994 555.559 366.083 558.139 366.724 559.823C367.694 562.369 370.455 564.136 372.495 565.745C375.216 567.891 377.704 570.224 379.972 572.85C376.704 573.118 373.447 573.579 370.187 573.849C366.244 574.174 362.958 572.007 359.328 570.778C355.955 569.637 352.594 568.671 349.277 567.357C345.554 565.879 341.653 565.364 337.897 564.069C323.156 558.983 308.713 552.586 294.506 546.138C287.737 543.065 281.108 539.99 274.055 537.586C268.915 535.833 260.839 532.341 259.61 526.207C258.96 522.966 261.324 519.482 261.672 516.243C262.082 512.435 261.759 508.244 260.601 504.589C259.58 501.37 257.889 498.388 256.555 495.297C255.001 491.695 256.392 491.753 259.41 491.343C263.022 490.853 267.236 488.816 270.632 487.489C274.542 485.96 278.42 483.825 282.002 481.628C285.242 479.643 288.061 477.082 290.639 474.302C293.263 471.472 294.961 468.12 297.499 465.222C306.86 476.756 315.758 488.465 325.706 499.5C330.402 504.71 335.507 509.016 341.293 512.977C343.708 514.63 346.106 516.52 348.737 517.826C352.029 519.464 355.708 520.479 359.092 521.973C372.063 527.697 384.443 533.957 396.544 541.344C402.4 544.918 407.312 549.015 412.468 553.499C414.072 554.893 427.216 563.027 422.752 565.586ZM270.586 471.099C268.49 472.05 266.492 473.285 264.256 473.896C264.89 470.033 268.49 464.202 273.104 464.844C274.868 465.089 276.199 466.461 275.424 468.352C274.719 470.07 272.079 470.421 270.586 471.099ZM124.676 366.282C122.3 367.597 120.085 368.363 118.691 365.542C119.723 365.334 124.412 364.708 124.676 366.282ZM120.719 358.308C118.882 357.749 120.352 357.163 120.982 356.489C121.475 355.965 123.105 354.127 123.676 353.824C126.195 352.488 128.141 357.461 129.347 359.076C126.495 358.822 123.495 359.151 120.719 358.308ZM140.354 375.53C136.874 376.119 137.26 371.758 137.365 369.547C138.098 370.445 143.068 375.069 140.354 375.53ZM151.89 367.994C147.647 368.711 144.842 361.367 145.604 358.153C146.273 355.323 149.561 353.742 152.18 353.325C154.718 352.921 158.25 353.472 159.004 356.404C159.67 358.996 154.719 367.515 151.89 367.994ZM252.346 478.871C249.297 479.811 246.308 479.928 243.243 480.851C239.766 481.896 236.546 481.804 233.062 482.516C231.643 482.803 227.819 484.874 226.436 484.411C225.067 483.953 223.084 479.694 222.296 478.587C228.463 476.019 233.722 472.705 237.786 467.295C241.017 462.994 244.483 456.549 242.45 450.997C240.157 444.737 232.254 443.378 226.985 445.991C224.492 447.228 222.02 448.767 219.964 450.651C217.614 452.805 216.69 455.156 215.167 457.812C213.628 460.501 212.548 459.007 211.01 456.725C209.694 454.773 209.866 452.803 208.222 450.878C207.385 449.897 206.087 448.949 205.65 447.681C205.372 446.877 205.956 445.452 205.43 444.819C204.69 443.93 203.79 444.975 203.171 444.18C202.721 443.603 202.868 442.288 202.404 441.566C202 441.156 201.552 440.807 201.056 440.516C200.454 440.217 200.345 439.845 200.725 439.398C200.247 438.509 200.709 438.211 199.684 437.13C198.087 435.448 196.632 433.837 195.495 431.851C194.974 430.941 195.026 429.594 194.381 428.806C193.494 427.727 192.019 427.889 191.258 426.553C190.579 425.36 191.033 423.277 189.914 422.195C189.324 422.026 188.734 421.861 188.143 421.698C187.698 421.265 187.44 420.742 187.367 420.124C186.746 419.166 186.622 418.039 185.837 417.028C184.336 415.092 182.316 413.302 180.989 411.261C179.596 409.114 180.334 408.754 182.756 407.986C184.941 407.292 186.935 406.649 188.961 405.469C198.321 400.011 207.195 385.536 192.338 381.114C186.824 379.473 182.294 375.06 176.18 376.795C173.531 377.548 171.017 379.148 169.039 381.048C167.674 382.361 166.408 385.875 164.731 386.547C161.715 387.757 162.99 384.734 162.135 383.346C161.726 382.683 160.081 381.92 159.472 381.316C158.755 380.61 158.064 379.716 157.567 378.841C156.646 377.219 156.081 376.314 154.751 374.991C154.25 374.492 151.746 371.914 154.004 372.251C153.09 369.46 154.424 369.039 156.269 367.001C158.434 364.605 160.669 361.278 160.681 357.923C160.708 351.482 153.087 348.595 148.301 352.419C147.327 353.197 141.567 360.708 142.746 355.918C143.382 353.334 149.264 346.59 151.992 348.336C148.936 343.873 141.914 354.709 140.276 356.925C138.879 354.353 138.781 352.339 136.471 350.346C134.592 353.366 135.585 350.066 135.171 349.393C134.275 347.945 134.767 349.603 134.28 349.088C133.676 348.447 132.724 347.942 132.081 347.092C130.98 348.589 131.419 346.978 131.082 346.419C130.293 345.112 130.597 344.352 129.244 343.215C128.26 342.388 126.321 341.103 124.997 340.986C123.468 340.851 123.045 341.437 121.487 341.004C119.507 340.452 117.014 339.604 117.974 342.922C118.67 345.333 121.499 346.705 122.119 349.168C122.744 351.648 120.295 354.149 119.109 356.18C117.583 358.79 116.336 358.576 113.574 359.165C111.807 359.541 109.45 360.345 110.964 362.49C112.046 364.023 114.581 363.7 116.009 364.609C118.009 365.883 117.981 369.022 120.538 369.568C123.352 370.168 124.963 367.031 127.336 366.271C129.023 365.734 134.25 365.794 135.578 367.063C137.388 368.791 135.824 372.095 136.279 374.242C136.956 377.429 139.107 377.622 141.829 377.725C145.177 377.849 146.355 381.071 148.157 383.627C152.375 389.613 156.042 395.994 160.364 401.899C162.277 404.515 165.076 406.841 166.643 409.678C168.577 413.183 165.891 415.204 163.575 417.72C160.547 421.008 158.286 424.748 155.658 428.341C153.324 431.535 150.424 430.74 146.695 430.74C147.525 429.023 148.525 427.953 150.571 428.16C148.432 425.545 146.721 428.537 145.335 430.194C143.329 432.591 140.713 433.17 138.135 434.745C137.223 435.302 132.256 438.917 133.765 440.15C133.937 440.29 142.158 434.873 143.095 434.376C143.095 436.376 142.657 438.454 142.937 440.443C143.143 441.901 144.166 443.422 143.948 444.939C143.536 447.801 139.842 450.056 138.257 452.287C137.064 453.965 137.352 455.289 136.743 457.092C136.191 458.735 136.481 458.238 135.102 458.746C132.29 459.78 127.561 459.221 125.016 457.752C123.437 456.84 122.225 455.397 120.942 454.125C119.975 453.167 117.544 451.531 117.276 450.19C116.814 447.881 121.39 443.591 122.296 441.209C124.853 434.488 120.467 429.264 113.643 428.883C115.747 427.255 118.353 428.482 120.57 429.101C116.781 423.84 110.307 428.169 107.091 431.745C104.896 426.182 103.835 420.314 102.495 414.512C101.579 410.562 98.0998 403.512 99.6527 399.445C100.402 397.479 102.521 396.383 103.986 395.02C105.65 393.469 107.075 391.618 108.294 389.7C111.16 385.183 112.816 379.48 108.869 375.028C110.068 374.831 111.268 374.634 112.467 374.435C110.516 372.599 107.438 373.493 104.906 372.95C103.299 372.604 98.6753 372.828 97.604 371.917C96.3132 370.821 97.1401 365.781 97.1861 364.291C97.2924 360.806 97.5828 357.454 97.967 353.989C98.3318 350.717 98.2574 347.18 98.9338 343.965C99.4809 341.357 101.232 340.562 103.254 339.024C108.083 335.347 112.019 330.876 110.371 324.539C110.955 324.445 111.539 324.353 112.124 324.261C110.234 322.891 107.787 323.389 105.685 322.665C107.617 317.222 111.886 307.654 118.819 307.138C119.056 309.572 118.893 312.466 120.533 314.48C122.397 316.773 125.673 317.003 128.2 315.791C130.493 314.689 132.646 312.354 133.703 310.048C134.418 308.486 134.289 305.846 135.545 304.609C137.228 302.948 148.834 303.951 148.479 306.753C148.269 308.399 145.166 311.167 144.299 312.628C142.711 315.3 141.441 318.189 140.857 321.258C139.973 325.918 140.485 332.068 145.209 334.518C150.581 337.306 157.127 333.762 161.533 330.7C163.953 329.02 166.296 327.165 168.506 325.217C169.683 324.181 170.866 323.113 171.904 321.934C172.669 321.063 173.281 319.66 174.225 319.008C176.453 317.468 178.636 320.08 180.52 321.4C183.592 323.549 186.647 325.59 189.944 327.378C196.632 331.009 202.746 335.815 208.66 340.589C214.608 345.392 220.741 350.33 225.559 356.313C222.641 358.111 223.162 358.579 221.862 361.786C220.941 364.062 219.672 366 219.527 368.53C219.273 372.895 222.069 376.614 226.315 377.581C228.69 378.122 230.953 377.689 233.152 376.717C234.862 375.961 236.566 374.1 238.353 373.639C241.673 372.78 244.33 379.063 246.191 381.277C254.457 391.107 263.195 400.549 270.979 410.78C271.842 411.914 274.402 414.129 274.609 415.628C274.908 417.784 271.525 419.837 270.122 421.072C269.384 421.719 261.57 429.083 264.194 430.254C264.941 430.588 267.132 426.07 267.679 425.683C269.729 424.237 268.178 427.073 268.056 428.506C267.751 432.069 270.193 434.011 273.628 433.558C277.292 433.077 280.555 430.18 282.823 427.442C285.665 430.739 290.108 435.723 290.93 440.129C291.454 442.943 289.024 449.829 293.561 450.403C294.253 450.491 296.76 448.628 297.228 449.686C297.617 450.568 294.908 452.078 294.517 452.369C292.847 453.618 291.838 454.956 290.49 456.467C288.907 458.244 286.745 459.739 284.964 461.439C283.089 463.231 279.378 468.099 276.904 465.748C275.659 464.566 275.987 463.02 273.993 462.326C272.18 461.697 269.881 462.497 268.194 463.198C266.296 463.986 260.043 466.862 259.349 469.231C258.393 472.497 263.56 468.571 264.479 467.996C263.431 470.661 262.852 474.518 260.183 476.073C257.966 477.363 254.777 478.122 252.346 478.871ZM216.906 458.719C218.68 453.006 229.143 442.821 235.757 446.006C228.049 447.624 221.933 452.908 216.906 458.719ZM220.819 475.079C218.239 473.64 218.379 469.458 217.478 467.011C216.961 465.607 215.929 464.582 216.231 463.024C216.587 461.198 218.912 459.166 220.152 457.85C224.047 453.703 230.901 448.037 237.171 448.988C245.154 450.198 239.743 460.932 237.025 464.628C234.708 467.779 225.784 477.851 220.819 475.079ZM202.2 468.091C193.57 467.515 184.968 466.743 176.455 465.155C173.436 464.592 170.907 464.676 172.633 461.2C173.204 460.052 176.642 452.86 177.42 453.068C177.88 453.19 177.774 458.132 177.908 458.698C178.519 461.242 180.23 463.613 183.116 463.451C187.837 463.189 190.879 457.074 193.365 453.792C195.355 456.474 196.796 459.454 198.799 462.09C199.755 463.352 203.086 466.283 202.2 468.091ZM151.599 434.153C150.151 437.481 147.238 440.647 145.214 443.663C144.069 441.234 143.263 435.661 145.979 433.865C147.008 433.186 152.515 432.048 151.599 434.153ZM181.533 444.064C181.931 442.783 182.374 441.513 182.866 440.265C183.711 442.927 184.141 443.007 181.533 444.064ZM188.922 446.792C189.968 448.571 191.716 450.321 191.442 452.553C191.234 454.246 189.706 455.981 188.616 457.161C186.811 459.113 182.811 462.857 180.196 460.266C178.011 458.102 178.772 452.15 179.789 449.716C181.241 446.236 186.424 442.554 188.922 446.792ZM183.796 443.147C184.396 442.907 183.135 439.025 184.306 438.638C185.327 440.97 186.289 441.602 183.796 443.147ZM167.304 390.896C166.914 389.463 166.022 389.523 166.344 387.752C166.555 386.592 167.475 385.351 168.173 384.43C169.563 382.597 171.397 381.086 173.382 379.941C177.57 377.526 183.323 376.522 187.073 380.303C183.567 380.859 172.819 384.324 172.75 389.129C176.649 388.377 179.716 384.453 183.626 383.217C186.834 382.202 190.315 382.273 193.508 383.344C202.248 386.278 198.615 393.845 193.682 398.76C190.753 401.678 187.242 403.857 183.403 405.359C181.627 406.057 180.538 406.133 178.79 405.783C178.464 405.718 178.082 405.109 177.689 404.98C176.715 404.657 176.998 405.752 176.194 405.26C175.495 404.831 174 402.063 173.524 401.269C172.766 400.008 172.412 398.782 171.482 397.63C170.551 396.477 170.098 394.933 169.235 393.89C168.821 393.388 167.688 393.409 167.383 392.919C166.926 392.183 167.507 391.649 167.304 390.896ZM153.882 447.331C155.869 443.873 159.266 440.938 161.896 437.916C162.057 442.883 158.502 446.284 153.882 447.331ZM156.566 448.928C160.669 447.482 162.928 444.022 163.346 439.827C163.877 434.515 167.208 431.727 169.212 426.952C169.981 425.124 170.877 419.104 173.857 420.827C174.88 421.418 175.486 423.641 176.019 424.645C177.308 427.074 178.772 429.429 180.139 431.814C181.253 433.755 182.921 435.709 182.431 438.046C182.002 440.084 180.623 442.256 179.817 444.178C177.912 448.717 175.408 452.899 173.317 457.339C172.472 459.129 171.474 463.37 168.897 463.349C166.859 463.331 167.088 461.099 165.744 460.332C164.049 459.367 162.123 461.205 160.731 461.966C162.333 459.255 165.136 457.72 168.286 458.231C164.515 454.468 161.965 459.544 158.728 460.676C155.661 461.748 150.22 456.695 147.637 455.263C148.625 453.586 149.517 451.536 151.217 450.433C152.828 449.388 154.806 449.547 156.566 448.928ZM123.215 483.316C123.663 481.149 124.933 479.868 125.738 477.9C126.672 480.287 124.487 481.694 123.215 483.316ZM188.389 496.611C188.169 503.908 187.574 511.184 187.36 518.483C187.261 521.849 186.666 525.06 186.271 528.387C185.937 531.2 186.107 533.962 184.339 536.367C181.552 540.157 176.132 541.246 171.925 542.65C168.835 543.681 165.712 544.616 162.659 545.76C159.915 546.791 157.701 548.353 155.091 549.577C152.757 550.674 150.236 551.323 147.911 552.491C145.506 553.699 143.607 555.172 141.136 556.247C138.181 557.534 135.745 559.824 133.115 561.643C130.801 563.242 128.352 564.479 126.362 566.491C124.494 568.379 122.132 569.207 120.016 570.884C117.777 572.659 115.437 573.812 112.965 575.201C107.901 578.053 101.069 582.92 94.9763 580.152C96.7205 577.921 100.287 575.78 100.558 572.706C100.91 568.705 97.4323 570.178 95.419 571.455C92.3699 573.391 90.6824 575.728 88.361 578.308C85.6466 581.323 82.2185 579.295 78.8967 578.447C81.1685 576.399 83.4208 574.332 85.6873 572.281C87.6014 570.549 90.5283 568.677 91.6935 566.283C92.5275 564.571 92.4867 562.223 90.477 561.336C88.2282 560.342 85.6855 562.438 84.0193 563.685C79.5997 566.998 76.6869 571.2 73.7847 575.812C72.2407 578.264 71.5289 578.076 68.6887 577.586C65.6789 577.066 62.6682 576.512 59.6332 576.149C63.6537 572.011 68.1469 567.53 71.3217 562.692C72.3505 561.123 73.6926 556.991 70.5585 556.609C69.2677 556.453 66.6949 559.099 65.6992 559.812C61.3453 562.929 57.1594 566.862 54.2737 571.413C53.3209 572.916 53.0218 574.587 51.1771 574.711C48.7656 574.875 44.284 572.57 41.9575 571.856C46.404 566.242 50.8194 560.585 56.0143 555.635C60.7873 551.084 65.5486 547.778 71.1305 544.289C77.1136 540.547 82.686 536.241 88.1786 531.823C93.4376 527.591 98.9303 523.6 103.77 518.876C113.438 509.442 122.048 498.59 129.179 487.117C130.847 484.432 132.418 481.676 133.776 478.819C135.051 476.137 135.638 472.928 137.36 470.489C137.954 469.646 138.792 469.02 139.321 468.139C139.823 467.311 139.653 466.31 140.414 465.575C142.178 463.881 145.388 464.903 147.036 466.092C149.685 468.003 151.83 470.322 154.742 471.922C157.671 473.53 160.841 474.701 164.085 475.491C171.667 477.338 179.181 478.853 186.905 479.975C186.11 482.927 188.063 483.392 188.709 486.05C189.494 489.272 188.488 493.327 188.389 496.611ZM115.389 447.374C113.669 444.817 112.136 442.141 110.447 439.566C109.418 437.998 108.143 436.314 109.021 434.396C110.504 431.163 115.729 430.586 118.564 431.997C125.011 435.201 119.022 444.364 115.389 447.374ZM98.3247 388.863C97.7315 383.863 99.6403 380.316 104.156 377.693C107.375 375.825 109.965 378.378 109.526 381.785C108.859 386.975 103.322 392.747 99.0967 395.455C98.8205 393.26 98.5868 391.06 98.3247 388.863ZM97.6359 374.556C98.9692 373.497 102.535 374.849 104.079 374.941C101.956 376.799 99.8333 378.657 97.7121 380.514C97.5722 379.239 96.407 375.534 97.6359 374.556ZM104.798 326.264C115.539 324.866 103.175 336.412 100.064 338.222C100.57 335.764 101.813 326.654 104.798 326.264ZM133.393 306.05C131.95 311.968 120.738 318.423 120.621 308.729C120.577 305.117 122.603 305.409 125.56 305.063C127.245 304.865 134.217 302.666 133.393 306.05ZM94.6647 315.215C93.4057 318.524 92.3964 321.918 91.164 325.231C90.6169 326.699 89.9741 327.706 88.956 328.87C88.1025 329.841 87.0897 330.088 87.1233 331.623C88.191 331.417 89.025 330.78 89.8891 330.164C89.6784 333.211 88.6054 336.488 88.0848 339.524C87.4615 343.165 86.9427 346.806 86.7497 350.499C86.3318 358.526 86.3283 366.523 86.5036 374.556C86.5939 378.649 86.6346 382.745 86.8542 386.831C86.9657 388.866 87.0897 390.909 87.3393 392.93C87.442 393.746 88.0335 395.483 87.6687 396.248C86.2327 399.25 79.8794 391.003 77.1189 392.213C77.5156 389.929 76.6001 390.428 75.0703 389.305C74.3301 388.76 73.8485 387.834 73.0747 387.349C72.841 387.096 72.5842 386.872 72.3044 386.675C71.9839 386.238 71.6475 386.285 71.2934 386.813C68.184 384.952 67.3819 380.985 65.7123 378.314C64.8537 376.942 64.0245 376.728 63.8781 374.831C63.7511 373.177 63.9994 371.492 63.9324 369.831C63.8565 367.959 63.747 365.893 63.2226 364.08C62.6136 361.974 61.7761 362.146 60.1449 361.023C60.6476 360.803 60.9789 360.433 61.1394 359.914C60.6184 360.008 59.0352 360.653 58.642 360.189C57.8685 359.275 59.6936 359.154 60.1734 358.789C58.1265 357.878 58.5674 357.131 59.306 355.463C59.5151 354.991 59.7147 354.285 59.8924 353.888C60.2809 353.018 60.504 353.568 60.6324 352.488C60.7544 351.459 59.8429 349.432 59.5744 348.336C59.124 346.496 58.875 344.904 59.2794 342.986C59.6072 341.433 60.4886 340.028 60.5501 338.431C60.5676 337.982 59.8855 337.833 59.8763 337.402C59.8632 336.768 60.4525 336.49 60.6058 335.906C60.9972 334.408 60.8206 332.827 61.4901 331.406C62.0927 330.132 63.3097 328.482 64.1709 327.369C64.768 326.597 66.2327 325.728 66.3921 324.709C66.4983 324.035 65.4508 324.113 65.4974 323.604C65.5609 322.917 66.1371 322.694 66.2947 322.183C66.7303 320.779 66.8401 319.431 67.9662 318.355C69.3863 317.002 70.0025 317.569 70.061 315.337C70.0893 314.248 69.2199 314.079 69.6856 312.823C69.9388 312.141 70.686 311.739 71.1623 311.256C72.5824 309.822 73.5386 308.55 74.5479 306.779C75.4403 305.214 76.8657 304.304 77.7812 302.952C78.9728 301.19 77.1915 300.317 79.6085 299.82C79.265 298.727 78.9003 297.843 79.8051 296.917C80.3752 296.333 81.8237 296.69 82.3283 296.016C82.9073 295.24 82.0503 293.402 82.9233 292.9C83.6333 292.49 84.6957 293.75 85.8095 293.127C86.6594 292.651 87.9414 290.025 87.6687 289.062C89.8643 290.299 89.3172 289.447 90.3672 287.859C90.6027 287.502 91.3181 287.424 91.5199 287.064C91.9254 286.347 91.8334 285.614 92.4177 285.03C93.3916 284.058 94.9852 284.308 96.0582 283.614C96.9436 283.041 96.8958 282.422 97.6023 281.881C98.2078 281.42 99.1994 281.331 99.7855 280.852C100.936 279.913 100.947 278.923 102.387 278.114C104.09 277.157 105.599 276.345 107.148 275.076C108.159 274.249 109.117 272.784 110.3 272.239C111.934 271.485 113.207 271.431 114.808 270.354C115.963 269.577 117.055 268.293 118.19 267.638C119.045 267.143 119.647 267.249 120.726 266.944C122.666 266.392 123.139 264.559 124.724 263.814C125.811 263.301 127.394 263.77 128.588 263.502C132.304 262.666 135.975 260.863 139.702 259.864C144.255 258.647 148.837 257.579 153.423 256.503C149.209 262.224 143.84 267.388 138.397 271.932C136.611 273.424 126.819 280.225 132.095 283.13C134.215 284.296 138.817 280.531 140.529 279.61C143.973 277.757 147.541 276.272 151.148 274.774C156.982 272.349 164.58 268.039 171.063 268.385C167.116 273.236 162.19 277.129 157.676 281.414C153.528 285.352 147.277 289.044 149.234 295.489C143.406 294.005 138.174 292.249 132.117 292.639C129.402 292.813 126.688 292.485 123.987 292.866C121.05 293.281 118.284 294.266 115.461 295.13C113.229 295.813 110.76 295.868 108.706 297.004C107.713 297.554 106.486 298.338 105.593 299.02C104.403 299.928 104.134 300.53 103.199 301.727C99.8687 306.002 96.6443 310.009 94.6647 315.215ZM76.4425 396.095C76.2602 395.357 76.0955 394.681 75.8865 393.836C77.7405 394.981 77.7405 394.981 76.4425 396.095ZM62.4277 372.54C62.1989 372.856 61.2387 372.957 60.9596 372.684C60.6124 372.345 61.5252 371.021 61.6718 370.741C62.0337 371.019 62.8663 371.93 62.4277 372.54ZM58.4573 363.966C58.7029 363.063 58.949 362.16 59.1944 361.257C59.4958 362.094 60.855 363.019 60.8851 363.817C60.9038 364.346 58.7259 364.083 58.4573 363.966ZM59.2454 365.205C61.3731 366.608 61.5957 368.264 61.6591 370.686C59.1128 369.841 59.4783 367.371 59.2454 365.205ZM96.2477 269.629C96.0334 270.211 95.1215 272.026 94.454 270.755C94.2397 270.349 95.8032 269.795 96.2477 269.629ZM95.6368 267.65C96.1627 267.176 97.2233 267.767 97.8183 267.382C98.2344 267.114 98.0963 266.841 98.2928 266.681C98.3318 266.649 98.8984 265.5 99.1303 265.239C99.5412 264.781 100.435 264.494 100.935 264.08C102.328 262.923 103.114 261.403 103.991 259.855C105.037 258.006 105.37 257.793 107.058 256.947C108.221 256.363 109.122 255.65 110.07 254.658C111.16 253.517 111.079 252.699 111.975 251.452C112.418 250.836 113.053 250.76 113.57 250.263C114.187 249.668 114.502 248.836 115.072 248.237C115.32 247.977 116.111 247.979 116.26 247.756C116.451 247.475 116.6 246.35 116.779 246.144C117.119 246.606 117.461 247.067 117.801 247.529C119.146 245.16 120.127 243.203 122.376 241.625C124.736 239.97 126.776 237.548 129.216 236.066C129.765 235.732 130.882 235.592 131.302 235.102C132.01 234.27 131.396 233.532 131.913 232.826C132.499 232.027 133.636 232.673 134.381 232.329C135.325 231.893 135.594 230.619 136.809 230.759C132.814 235.493 132.866 242.858 132.653 248.772C132.561 251.32 134.163 252.603 131.798 254.474C129.786 256.065 126.95 255.593 124.572 256.638C121.586 257.953 118.392 258.652 115.345 259.798C112.193 260.984 109.659 263.058 106.626 264.43C103.952 265.64 102.125 267.359 99.6793 268.853C98.7691 269.409 97.3597 270.214 96.276 269.551C95.5961 269.135 94.7514 268.452 95.6368 267.65ZM140.752 227.957C140.927 227.283 144.336 225.515 145.175 224.939C146.434 224.073 148.297 221.956 149.703 222.797C150.19 220.843 152.09 218.67 153.768 218.255C155.629 217.795 158.826 216.194 160.656 214.8C161.191 214.392 161.368 213.795 161.999 213.412C163.095 212.747 164.182 213.111 165.237 212.202C165.4 212.064 166.861 209.647 166.919 209.67C166.994 209.929 167.061 210.19 167.121 210.454C168.23 209.839 169.218 209.349 169.908 208.563C170.066 208.384 169.05 207.92 169.37 207.567C169.763 207.136 170.64 207.619 171.036 207.209C169.802 213.347 170.721 221.248 176.938 224.36C169.545 225.16 162.324 222.934 154.84 224.302C151.256 224.956 147.615 226.032 144.356 227.682C142.36 228.693 139.807 232.317 137.818 230.558C138.608 229.504 139.81 228.849 140.752 227.957ZM176.626 210.296C179.39 206.907 183.583 205.568 187.808 206.781C192.752 208.201 190.666 211.663 189.921 215.506C188.493 213.41 185.402 211.331 182.771 211.269C179.04 211.18 180.449 214.294 182.689 215.41C184.727 216.423 188.221 216.705 189.678 218.549C191.098 220.343 190.555 223.278 190.783 225.393C189.68 225.228 188.577 225.065 187.472 224.9C188.398 219.961 184.322 219.724 180.522 218.331C176.681 216.925 173.48 214.15 176.626 210.296ZM189.009 198.136V202.72C187.472 201.841 185.935 200.963 184.396 200.085C185.935 199.435 187.472 198.786 189.009 198.136ZM201.368 234.753C206.501 236.146 211.599 237.62 216.534 239.542C218.326 240.241 220.29 240.488 222.046 241.277C223.718 242.026 223.969 241.948 223.374 243.417C221.708 247.53 217.761 246.821 214.303 246.191C208.89 245.206 203.589 243.84 198.243 242.555C193.018 241.3 187.682 240.477 182.537 238.903C177.255 237.29 172.109 235.762 166.677 234.696C165.092 234.386 152.552 233.232 152.648 231.919C160.545 230.892 168.676 231.905 176.609 232.011C184.855 232.123 193.372 232.581 201.368 234.753ZM194.399 218.84C194.498 216.013 194.537 213.176 194.887 210.364C197.237 213.268 199.358 214.14 202.319 211.416C205.156 208.809 205.788 207.45 209.382 209.901C212.5 212.026 215.449 211.929 218.758 210.067C220.777 208.934 224.021 204.295 226.144 205.25C227.155 205.706 227.897 207.539 228.917 208.215C230.199 209.06 232.169 209.645 233.662 209.973C237.189 210.747 239.289 208.476 241.503 206.045C244.713 202.521 244.619 204.569 247.596 207.012C250.916 209.737 253.69 208.405 256.697 206.08C258.528 211.453 259.213 217.323 259.73 222.958C259.905 224.861 260.557 227.563 258.852 228.908C257.649 229.856 255.096 229.893 253.648 230.418C248.474 232.292 243.502 234.952 239.172 238.355C237.487 239.682 236.017 241.306 233.713 241.004C231.516 240.717 229.382 238.875 227.615 237.659C225.699 236.339 223.76 234.842 221.52 234.107C220.208 233.678 218.106 233.832 216.959 233.044C214.825 231.575 217.336 227.726 216.805 225.143C216.403 223.18 215.275 219.088 212.578 220.24C208.564 221.951 210.9 228.629 213.108 230.714C208.591 229.911 203.592 228.738 199.236 227.247C195.872 226.096 194.278 222.291 194.399 218.84ZM270.135 232.616C279.404 230.008 288.079 228.25 297.727 227.776C301.996 227.565 306.131 227.698 310.354 227.737C312.785 227.758 314.637 225.796 312.695 223.535C310.007 220.407 301.809 221.599 298.175 221.457C288.438 221.081 279.51 222.19 270.289 225.405C271.264 223.606 273.605 223.372 275.213 222.442C277.182 221.299 278.521 219.419 279.362 217.33C281.552 211.899 279.348 206.779 277.058 201.818C281.556 203.032 286.211 205.686 290.733 206.361C291.682 206.501 292.289 206.41 293.129 206.756C293.642 206.968 293.805 207.702 294.444 207.862C294.753 207.94 295.493 207.241 295.841 207.34C297.219 207.731 296.13 207.833 297.001 208.399C297.692 208.847 297.635 209.423 298.903 209.212C299.466 209.118 300.075 208.247 300.371 208.224C300.75 208.194 300.661 207.732 301.239 207.867C302.29 208.112 302.196 209.468 302.547 210.135C302.921 210.845 302.389 211.79 303.523 212.179C304.371 212.47 304.583 211.572 305.304 211.638C305.741 211.677 306.65 212.309 307.036 212.692C308.281 213.932 309.984 215.3 311.659 216.106C311.494 215.941 312.447 215.541 312.219 215.447C312.066 215.385 313.067 215.627 313.053 215.623C314.018 215.843 314.529 217.33 315.016 217.871C315.916 218.865 317.311 219.914 318.57 220.352C320.746 221.111 320.681 220.205 321.474 222.795C323.022 220.359 323.615 224.44 325.534 224.889C326.529 225.121 326.412 224.696 327.315 225.217C327.935 225.574 328.35 226.669 328.817 227.196C329.017 226.434 329.217 225.673 329.417 224.912C330.8 227.535 333.784 231.696 337.056 230.943C337.056 231.658 336.762 232.515 337.315 233.126C337.701 233.553 338.326 233.067 338.628 233.316C338.892 233.532 339.524 234.396 339.726 234.538C340.125 234.817 340.847 235.021 341.194 235.299C341.499 235.546 341.649 236.719 341.987 237.141C342.623 237.938 343.721 238.096 344.24 239.05C344.358 238.11 344.477 237.168 344.596 236.226C345.626 237.022 345.715 237.642 345.968 238.809C346.329 240.472 345.849 240.081 346.995 240.782C348.119 241.472 348.705 241.396 349.736 242.592C350.747 243.765 350.756 244.489 352.213 243.266C352.486 244.171 352.573 245.341 353.297 246.033C353.842 246.556 356.107 246.579 356.323 247.816C352.07 244.221 354.869 249.681 356.326 247.825C356.633 249.812 358.085 250.454 359.744 251.869C361.29 253.187 361.543 253.091 362.071 255.307C362.058 255.26 362.848 255.749 362.905 255.847C361.398 256.062 363.733 257.749 364.128 258.058C364.417 258.281 364.792 257.744 365.27 258.109C365.817 258.526 366.264 259.472 366.708 260.043C367.916 261.592 368.81 262.923 370.079 264.183C371.452 265.542 372.117 267.26 373.435 268.848C374.894 270.612 375.685 272.64 376.905 274.556C378.067 276.377 379.609 277.839 380.953 279.507C383.097 282.161 383.825 288.006 387.822 288.159C387.586 288.402 387.912 290.213 387.951 290.547C388.14 292.194 388.015 293.776 388.985 295.265C389.208 293.565 390.095 294.222 390.867 295.114C392.149 296.6 391.023 296.225 391.09 297.732C391.174 299.556 391.381 298.145 392.075 299.738C392.618 300.986 392.916 301.795 393.206 303.181C390.95 303.36 389.916 301.513 389.082 299.722C388.734 298.974 388.613 297.742 387.997 297.158C387.34 296.536 386.437 296.486 385.762 295.79C384.466 294.456 383.905 292.373 382.377 291.074C380.652 289.605 380.27 288.911 378.844 287.156C377.267 285.215 375.087 283.85 373.433 281.973C371.774 280.092 371.908 281.118 369.826 280.438C367.613 279.713 364.032 272.739 361.242 275.424C361.353 273.667 358.726 272.015 357.398 271.378C356.824 271.103 356.155 271.352 355.581 270.94C354.958 270.491 354.913 269.629 354.285 269.093C354.287 269.093 353.322 269.327 353.127 269.228C352.728 269.025 352.725 268.31 352.374 268.076C351.402 267.425 350.242 266.743 349.212 266.188C346.703 264.841 344.488 263.182 342.067 261.56C339.995 260.169 337.485 257.66 335.089 256.927C332.996 256.287 331.68 256.613 329.966 255.332C329.033 254.633 329.307 254.399 327.808 253.966C326.379 253.553 325.577 253.766 324.821 252.247C323.496 249.592 324.332 244.411 324.077 241.433C323.804 238.275 323.482 235.037 322.659 231.965C321.686 228.333 320.401 226.434 316.514 227.29C308.81 228.986 301.2 230.601 293.462 232.089C278.041 235.056 262.885 239.899 247.804 244.198C246.657 244.526 240.247 245.995 241.557 242.677C242.16 241.146 246.216 240.575 247.574 240.094C255.027 237.452 262.515 234.758 270.135 232.616ZM267.544 225.86C266.418 226.289 265.292 226.718 264.166 227.15V224.012C265.292 224.628 266.418 225.244 267.544 225.86ZM262.864 209.271C263.843 210.073 265.832 208.144 266.664 207.754C268.086 207.086 269.896 206.513 271.484 206.65C274.411 206.904 276.553 209.792 276.017 212.72C275.108 217.676 268.063 220.018 264.178 221.956C264.052 220.199 263.486 218.088 264.715 216.571C265.781 215.252 267.85 215.346 268.835 213.944C271.314 210.419 264.598 210.099 263.096 212.903C262.505 211.111 261.913 209.32 261.32 207.528C262.749 207.292 262.122 208.664 262.864 209.271ZM269.795 199.574C268.396 200.479 266.999 201.385 265.6 202.29C264.908 199.155 267.27 198.743 269.795 199.574ZM397.192 308.667C395.361 309.544 394.904 307.452 393.587 307.363C395.142 306.405 395.142 306.405 397.192 308.667ZM404.64 354.312C404.866 357.318 404.689 360.357 405.088 363.349C405.392 365.625 406.313 367.744 406.41 370.045C406.626 375.088 404.927 380.223 401.493 383.919C398.246 387.417 393.601 390.426 389.217 391.895C387.243 392.557 385.182 394.025 383.262 394.568C381.139 395.169 379.124 393.861 377.373 396.205C376.206 386.152 377.059 375.647 376.967 365.531C376.875 355.394 376.983 345.252 375.271 335.223C373.746 326.29 370.742 316.244 365.201 308.937C362.951 305.97 360.179 303.539 357.258 301.264C355.742 300.084 354.225 298.823 352.535 297.891C349.936 296.456 347.723 296.655 344.897 296.245C340.851 295.661 337.091 295.166 333.029 296.307C329.251 297.37 325.088 298.58 321.702 300.425C318.329 302.265 314.412 303.023 310.912 304.671C308.53 305.791 303.583 309.535 300.939 308.861C298.382 308.208 294.595 303.859 292.962 301.912C290.875 299.423 289.148 296.536 287.296 293.858C286.646 292.918 285.322 291.464 285.152 290.256C284.858 288.16 285.697 288.845 287.696 289.08C292.835 289.683 297.669 290.639 302.595 292.259C305.046 293.065 309.839 296.328 312.291 294.373C316.034 291.388 310.347 286.258 308.263 284.535C304.714 281.599 300.589 279.418 296.805 276.808C292.785 274.034 287.47 271.084 284.884 266.813C292.436 269.047 299.983 271.605 307.316 274.485C310.671 275.804 313.987 277.195 317.139 278.948C318.908 279.931 322.485 282.592 324.617 281.317C329.249 278.547 318.607 270.5 317.072 268.855C314.687 266.3 312.35 263.768 309.727 261.45C307.957 259.885 305.178 258.787 304.357 256.479C307.293 257.543 309.665 259.63 312.415 261.046C313.855 261.789 315.169 262.217 316.759 262.444C318.453 262.687 318.655 262.957 319.99 263.633C321.031 264.158 322.099 264.863 323.266 265.219C324.098 265.475 325.552 265.519 326.28 265.991C326.651 266.523 327.034 267.045 327.432 267.56C327.875 267.689 328.312 267.84 328.743 268.01C329.387 268.587 329.77 269.382 330.396 269.976C334.951 274.29 341.042 277.377 346.148 280.992C350.977 284.411 356.103 287.504 360.742 291.235C366.081 295.53 371.622 300.147 376.163 305.296C378.729 308.208 380.84 311.506 382.995 314.725C384.557 317.055 386.827 318.989 388.174 321.391C391.117 326.631 393.559 332.295 396.725 337.448C399.951 342.7 404.155 347.919 404.64 354.312ZM361.242 384.711C362.122 381.075 367.085 376.829 370.256 375.227C368.659 379.187 364.399 381.889 361.242 384.711ZM369.426 397.392C366.72 403.015 354.825 403.66 356.44 395.338C357.229 391.262 360.587 388.76 363.468 386.091C364.799 384.858 368.061 380.449 370.124 381.158C370.026 384.329 369.84 387.514 369.847 390.685C369.851 392.804 370.384 395.403 369.426 397.392ZM365.989 332.586C367.087 335.056 368.179 337.113 366.143 339.322C365.224 340.319 362.23 342.5 360.875 342.015C356.526 340.463 364.817 333.697 365.989 332.586ZM339.689 310.614C340.736 310.557 341.754 310.713 342.788 310.649C343.818 310.585 343.928 310.401 344.882 310.532C344.983 310.679 345.084 310.827 345.185 310.972C345.316 311.959 345.833 312.065 346.735 311.295C347.988 311.574 348.805 311.76 350.005 312.44C346.766 314.778 342.827 317.498 338.857 318.283C332.583 319.523 334.315 310.91 339.689 310.614ZM243.507 363.207C242.855 364.518 240.984 361.243 240.522 360.632C241.384 360.63 244.164 361.885 243.507 363.207ZM293.917 328.697C298.791 325.847 304.582 323.345 309.818 321.225C310.737 325.668 306.248 331.403 303.482 334.444C301.246 336.903 298.551 339.453 295.519 340.867C292.24 342.397 288.658 341.726 288.817 337.432C288.876 335.863 289.231 333.34 289.869 331.905C290.692 330.058 292.245 329.672 293.917 328.697ZM228.024 247.875C228.75 247.832 236.631 246.812 236.589 247.793C236.465 250.747 228.816 248.428 228.024 247.875ZM172.292 304.886C176.455 299.74 183.174 294.186 183.273 286.996C183.419 276.414 171.697 281.695 165.802 282.135C168.919 279.067 184.578 266.199 175.316 261.628C172.653 260.315 168.869 261.598 166.197 262.286C161.457 263.507 157.05 265.622 152.393 267.093C155.72 263.546 161.469 259.513 161.282 254.138C161.051 247.598 155.691 249.179 151.056 250.139C149.274 250.508 141.319 253.679 139.824 251.526C139.277 250.737 140.163 249.736 140.35 249.033C140.681 247.791 140.579 247.358 140.589 246.088C140.612 243.527 142.31 240.241 140.926 237.86C140.609 238.401 140.338 238.964 140.113 239.549C139.656 238.163 139.962 236.692 139.506 235.306C151.077 238.271 162.849 239.895 174.493 242.425C180.387 243.706 185.935 245.912 191.911 246.904C197.937 247.905 203.858 249.436 209.896 250.391C215.404 251.262 220.681 252.712 226.137 253.822C231.454 254.906 236.908 252.532 242.098 251.329C253.724 248.636 265.343 245.877 276.984 243.263C290.416 240.246 304.39 237.666 317.247 232.636C317.497 239.341 318.032 246.034 318.85 252.694C313.171 250.006 304.745 246.499 299.004 251.312C296.707 253.235 295.999 256.56 296.907 259.387C297.895 262.464 300.923 263.892 302.921 266.209C296.842 264.648 281.159 253.64 278.367 264.767C276.396 272.624 286.012 277.7 290.715 282.124C286.046 281.207 279.792 277.468 277.049 283.478C274.68 288.675 277.534 294.328 280.458 298.615C282.042 300.936 283.824 303.122 285.51 305.372C286.398 306.563 287.27 307.769 288.204 308.924C289.143 310.083 290.914 311.295 291.572 312.542C292.897 315.057 290.223 315.211 288.146 316.118C285.55 317.253 283.323 319.157 280.948 320.675C275.514 324.151 270.765 327.378 264.344 328.491C257.733 329.633 251.367 330.828 244.842 332.423C238.338 334.013 233.03 335.54 226.381 333.486C223.349 332.549 220.881 331.715 217.666 331.892C214.289 332.077 212.315 331.901 209.538 329.806C197.591 320.792 184.623 313.396 172.292 304.886ZM150.753 295.837C155.371 293.516 160.019 291.184 164.789 289.19C168.738 287.538 174.732 285.614 179.054 286.338C177.836 289.473 175.612 292.045 173.228 294.355C171.119 296.395 168.485 299.478 165.931 300.902C163.615 302.196 160.919 300.146 158.633 299.288C156.122 298.345 152.665 297.905 150.753 295.837ZM151.915 307.544C154.215 306.588 159.16 309.801 161.253 310.637C165.365 312.28 169.501 313.996 173.126 316.586C168.701 321.711 163.688 326.395 157.731 329.687C153.813 331.851 147.208 334.336 143.513 330.404C138.868 325.464 144.451 315.396 147.739 311.164C147.847 311.888 147.957 312.612 148.067 313.336C149.115 311.653 149.915 308.376 151.915 307.544ZM236.387 351.396C233.517 352.003 232.541 351.455 230.646 349.251C229.365 347.761 228.106 346.212 226.662 344.872C225.187 343.504 221.547 340.205 226.186 342.106C230.413 343.836 234.036 344.702 238.687 344.022C244.005 343.248 248.962 340.995 254.207 339.856C251.332 342.375 248.479 344.92 245.598 347.432C242.556 350.087 240.254 350.582 236.387 351.396ZM237.044 371.664C230.753 376.407 218.089 375.892 222.351 365.459C222.999 363.874 223.904 362.382 224.952 361.031C225.303 360.581 225.924 359.647 226.422 359.344C227.813 358.499 227.427 358.396 228.766 359.805C229.919 361.023 238.939 370.957 237.044 371.664ZM235.179 353.533C235.755 353.345 238.183 351.934 238.737 352.715C239.296 353.504 234.535 356.239 235.179 353.533ZM280.977 425.861C279.562 429.25 268.242 434.158 270.351 427.325C271.284 424.296 272.166 422.005 275.689 421.774C277.722 421.643 282.221 422.875 280.977 425.861ZM301.281 379.915C303.146 377.196 309.299 373.521 311.926 377.574C313.192 379.528 310.12 380.529 308.263 380.026C307.266 379.755 306.45 379.159 305.366 379.114C303.971 379.056 302.609 380.152 301.281 379.915ZM306.223 382.613C304.955 383.898 297.313 390.341 296.073 389.347C298.57 385.774 301.435 381.781 306.223 382.613ZM293.74 447.805C291.087 447.956 292.412 443.949 292.668 442.347C293.311 443.463 296.688 447.638 293.74 447.805ZM300.484 440.624C299.625 439.094 297.311 436.816 297.835 434.848C298.235 433.342 301.846 431.317 303.358 432.181C305.366 433.329 302.455 440.879 300.484 440.624ZM363.455 424.578C362.32 428.496 361.143 427.484 357.584 428.244C354.012 429.005 351.544 432.043 348.399 433.672C349.492 431.36 350.17 428.54 351.997 426.665C352.42 426.23 355.013 425.375 353.536 424.37C352.245 423.494 350.389 426.342 349.835 427.117C347.112 430.937 345.207 435.6 343.634 439.996C342.86 442.155 342.242 444.354 341.876 446.62C341.55 448.641 341.901 450.754 341.57 452.722C341.033 455.889 336.737 455.905 334.154 456.723C331.815 457.463 329.486 458.265 327.059 458.662C324.953 459.008 322.768 458.378 320.728 458.794C318.52 459.244 317.527 460.557 315.018 460.259C312.971 460.018 311.055 459.076 308.98 458.98C307.039 458.893 305.102 459.565 303.172 459.019C301.224 458.465 301.318 458.251 301.761 456.334C302.039 456.852 302.317 457.369 302.593 457.885C303.37 457.277 303.907 455.417 304.383 454.544C305.12 453.192 305.722 452.723 305.447 451.04C305.046 448.552 302.806 446.783 302.299 444.416C301.768 441.948 303.592 439.928 304.668 437.868C306.14 435.047 306.12 432.955 304.886 430.038C305.818 430.283 306.747 430.529 307.679 430.776C306.404 428.003 302.078 429.128 299.909 429.949C298.818 430.361 297.092 431.984 295.918 431.942C294.306 431.885 293.465 429.763 292.773 428.593C290.768 425.211 288.481 421.872 286.11 418.731C285.458 417.869 284.603 417.314 284.83 416.329C285.021 415.495 286.889 414.31 287.496 413.795C289.77 411.87 292.665 410.802 294.8 408.773C298.028 405.709 301.752 403.514 305.053 400.51C308.491 397.382 312.034 394.509 315.617 391.551C319.246 388.558 322.389 385.028 325.993 382.003C326.926 383.698 328.736 389.766 330.804 390.236C333.215 390.783 333.143 387.924 333.024 386.205C332.852 383.753 331.494 381.371 331.342 379.033C331.181 376.529 333.584 375.411 335.397 373.963C338.198 371.727 344.399 366.635 341.067 362.444C338.195 358.833 328.858 365.755 326.285 367.836C324.098 369.605 322.409 371.206 319.946 372.601C318.214 373.582 315.31 377.352 313.256 377.005C310.816 376.591 309.862 373.919 306.875 374.008C303.957 374.093 301.478 376.199 299.668 378.314C295.576 383.093 294.17 389.487 290.441 394.468C288.603 396.924 286.218 398.952 284.224 401.277C282.035 403.826 281.57 406.765 279.411 409.261C273.232 401.016 266.499 393.208 259.983 385.232C256.731 381.249 253.543 377.219 250.36 373.181C249.166 371.667 247.82 370.248 246.726 368.658C245.23 366.481 245.499 364.731 244.911 362.304C244.651 361.228 243.431 359.938 243.758 358.909C244.198 357.527 247.282 356.443 248.394 355.877C252.936 353.567 257.056 350.68 261.292 347.858C269.136 342.633 277.07 337.734 285.412 333.271C285.269 335.194 284.019 337.187 284.858 339.116C285.249 338.005 285.867 333.062 287.346 332.849C287.062 332.889 287.296 339.189 287.525 340.088C288.208 342.773 290.188 344.608 293.023 344.59C298.42 344.554 303.257 338.674 306.253 334.777C308.282 332.139 310.23 329.071 310.944 325.769C311.586 322.806 310.88 320.744 313.956 319.237C320.268 316.15 326.63 313.634 333.382 311.996C333.079 314.909 332.236 318.497 334.88 320.593C337.798 322.907 341.617 320.845 344.365 319.315C347.087 317.798 351.284 313.634 354.481 314.844C357.626 316.034 359.815 319.984 361.575 322.609C363.126 324.921 364.813 326.587 363.018 329.165C361.005 332.054 359.694 334.871 358.081 338.009C357.46 339.215 356.868 340.001 357.307 341.238C357.449 341.639 359.066 344.026 359.505 344.368C362.306 346.552 366.086 342.398 368.087 340.823C368.792 347.612 368.95 354.37 369.235 361.18C369.442 366.168 371.37 371.078 367.283 374.724C363.2 378.369 359.79 382.111 357.3 387.046C355.971 389.683 354.777 392.389 353.339 394.97C352.378 396.697 350.35 399.225 351.592 401.255C352.9 400.011 353.29 398.12 354.38 396.716C355.034 399.628 355.693 402.859 358.766 404.093C362.304 405.514 365.821 403.056 368.955 401.688C367.831 409.474 365.64 417.039 363.455 424.578ZM359.838 433.526C357.41 438.723 355.218 444.992 350.735 448.82C349.748 449.661 345.566 452.942 343.974 452.392C342.623 451.925 343.367 449.191 343.602 448.018C344.797 442.068 346.864 438.326 351.678 434.531C353.672 432.96 356.231 430.952 358.8 430.565C361.568 430.146 360.771 431.528 359.838 433.526ZM428.326 556.92C422.031 548.344 413.134 541.679 404.725 535.238C400.916 532.319 396.719 530.132 392.872 527.213C388.521 523.912 384.101 520.729 379.229 518.241C369.991 513.525 359.91 510.239 351.191 504.662C346.94 501.942 342.288 499.314 338.29 496.26C336.535 494.919 334.984 493.203 333.398 491.668C331.923 490.24 328.757 488.167 328.171 486.079C330.625 485.676 332.02 483.291 334.211 483.048C334.931 482.968 339.45 484.166 338.832 481.969C340.472 481.928 340.663 481.903 342.037 481.543C342.607 481.394 343.28 481.628 343.855 481.424C344.736 481.112 345.336 480.214 346.225 479.868C346.857 479.623 349.203 479.897 349.559 479.593C350.531 478.761 349.499 478.835 348.918 477.796C350.807 477.748 352.103 478.704 353.996 477.687C354.572 477.379 355.059 476.665 355.618 476.296C356.608 475.64 356.966 476.656 357.644 475.296C358.279 477.173 358.262 476.653 359.792 476.101C361.316 475.551 362.416 475.154 364.153 475.017C368.298 474.687 372.459 475.193 376.587 474.896C378.097 474.788 379.386 474.446 380.888 474.643C382.209 474.816 381.81 475.737 382.908 474.497C383.163 474.21 382.338 473.42 382.734 473.007C382.908 472.824 383.476 472.952 383.692 472.859C385.622 472.015 385.63 473.193 385.973 474.729C387.105 474.463 388.259 474.224 389.242 473.558C388.746 473.115 387.914 472.625 388.394 471.814C390.026 472.433 391.092 472.148 390.278 473.942C391.919 474.485 392.225 473.777 393.7 473.622C394.573 473.53 395.792 474.073 396.518 473.374C397.311 472.613 396.059 471.784 397.518 471.129C397.817 471.282 398.037 471.513 398.182 471.819C398.97 472.057 398.828 472.368 397.757 472.751C400.626 474.24 399.951 472.575 401.155 470.815C401.433 470.409 402.68 469.149 403.246 469.758C404.107 470.68 402.35 470.973 402.726 471.892C403.379 473.484 405.656 471.443 406.355 470.638C406.885 470.029 407.101 468.862 407.671 468.406C408.463 467.774 409.601 468.75 410.593 468.576C415.124 467.779 419.4 461.679 415.988 457.594C415.071 456.498 414.295 456.716 413.203 456.022C412.123 455.339 411.517 454.154 410.649 453.176C408.67 450.944 406.247 449.27 403.48 448.202C397.061 445.722 390.145 443.912 383.404 442.581C380.282 441.963 376.958 441.02 373.762 441.027C371.88 441.03 369.044 442.498 367.283 441.795C363.862 440.429 368.886 433.436 369.715 431.177C372.151 424.541 373.989 417.464 375.193 410.498C375.429 409.135 375.338 407.37 375.829 406.069C376.392 404.577 376.512 404.788 377.716 404.666C379.893 404.446 382.272 405.588 384.537 405.194C387.05 404.756 389.764 404.96 392.298 404.181C393.463 403.825 394.545 403.436 395.312 402.449C395.552 402.141 395.283 401.873 395.437 401.656C395.483 401.587 396.351 400.652 396.379 400.597C396.371 400.113 396.413 399.632 396.505 399.156C397.383 399.887 396.951 401.418 398.432 401.454C398.695 399.82 398.699 399.491 399.769 398.572C399.687 398.643 400.576 397.887 400.461 397.967C400.516 397.676 400.622 397.405 400.781 397.153C401.282 396.912 401.81 396.782 402.366 396.768C403.524 395.575 403.044 394.94 403.044 393.334C403.977 393.821 404.911 394.307 405.846 394.793C406.07 390.039 408.96 387.436 410.88 383.584C411.698 381.943 412.532 380.66 412.726 378.68C412.84 377.537 412.546 376.529 413.017 375.452C413.445 374.476 414.403 373.949 414.805 372.884C415.593 370.791 415.005 368.118 415.048 365.943C415.108 362.928 415.409 359.922 415.506 356.908C415.699 350.99 415.106 344.909 414.223 339.061C413.799 336.264 413.093 333.55 412.537 330.781C412.08 328.507 410.988 326.372 410.596 324.257C410.435 323.377 410.685 322.587 410.421 321.615C410.072 320.336 409.49 319.079 409.056 317.823C408.043 314.89 407.041 311.962 405.902 309.074C403.694 303.477 401.111 298.049 398.657 292.561C396.294 287.282 394.34 281.84 391.28 276.913C388.268 272.058 385.024 267.285 381.704 262.639C378.246 257.801 373.872 253.641 370.519 248.758C364.222 239.588 355.438 232.033 346.248 225.792C327.285 212.917 306.791 200.062 284.054 195.647C280.626 194.981 277.155 194.52 273.662 194.433C271.496 194.38 267.905 195.43 265.853 194.694C263.555 193.873 263.765 191.287 263.19 189.257C262.45 186.651 260.782 184.942 258.887 183.1C256.892 181.159 255.082 178.893 252.594 177.575C250.073 176.238 247.1 175.738 244.306 175.334C241.812 174.973 238.085 175.31 235.808 174.222C233.733 173.229 234.758 172.197 236.7 173.046C236.842 172.188 236.957 171.633 237.508 170.97C237.782 170.636 239.086 170.169 239.117 169.857C239.153 169.493 238.06 168.455 237.905 167.986C237.568 166.974 237.759 165.573 238.158 164.623C240.118 166.368 240.685 167.14 242.873 165.473C243.796 164.769 244.079 164.458 245.148 164.103C245.439 164.007 246.09 164.304 246.344 164.137C247.31 163.5 246.42 163.65 246.88 162.896C246.765 163.087 247.576 161.083 247.537 161.502C247.636 160.435 247.951 160.763 247.309 159.452C246.05 156.887 242.841 156.783 244.476 153.856C245.12 152.704 245.685 152.819 245.867 151.149C245.965 150.252 245.843 149.222 245.839 148.309C245.832 146.442 246.183 145.134 244.435 144.184C242.756 143.269 241.207 144.272 240.527 142.004C239.812 139.624 240.53 136.573 237.958 134.943C236.077 133.753 233.361 134.771 231.282 134.188C229.2 133.605 227.286 131.47 225.172 133.109C223.67 134.274 222.873 137.138 220.044 135.589C218.767 134.891 218.064 132.546 217.258 131.231C215.975 129.134 214.946 128.377 212.971 130.419C211.755 131.678 209.188 134.743 209.032 136.486C208.86 138.411 210.535 139.214 208.431 140.353C206.338 141.485 205.165 140.655 203.465 142.954C201.781 145.234 203.084 146.494 201.133 148.676C198.693 151.404 197.393 152.581 197.427 156.256C197.451 158.777 195.227 160.954 196.525 163.345C197.979 166.025 202.22 167.14 204.793 168.23C203.934 169.819 202.756 170.838 203.759 172.474C204.665 173.956 207.233 174.263 208.823 173.994C209.892 173.814 209.931 173.976 210.774 173.222C211.325 172.729 210.569 172.113 211.705 171.839C212.913 171.547 214.845 173.922 215.631 174.515C213.876 176.797 209.056 177.223 206.507 178.38C204.952 179.085 203.525 180.128 201.942 180.76C200.506 181.331 198.76 181.198 197.458 182.083C195.21 183.611 194.275 187.398 192.897 189.625C191.339 192.144 189.827 193.315 186.834 193.837C183.102 194.49 180.097 194.753 176.616 196.38C172.364 198.369 168.175 200.468 164 202.613C157.266 206.07 151.012 209.619 144.757 213.801C138.217 218.176 131.853 222.744 125.542 227.315C119.298 231.836 114.057 237.398 108.634 242.867C104.249 247.287 100.403 252.059 96.037 256.477C90.8807 261.695 87.0897 268.282 82.3088 273.816C79.6935 276.845 77.1915 279.823 75.5501 283.389C74.2203 286.281 71.9078 289.119 70.3638 292.153C68.3912 296.032 66.5249 299.848 64.3092 303.598C63.4005 305.138 62.3202 306.458 61.3612 307.927C60.1325 309.808 60.205 311.625 59.8744 313.795C59.5293 313.265 59.1847 312.736 58.8394 312.207C58.2138 313.577 57.4572 314.924 56.9154 316.325C56.5694 317.22 56.6237 318.488 56.2765 319.271C55.8406 320.254 55.3099 320.123 54.7666 320.941C54.1857 321.815 53.9989 322.99 53.3864 323.929C50.7397 327.985 49.7216 333.131 48.3617 337.758C46.5374 343.965 46.8253 351.1 46.9243 357.502C47.0296 364.263 47.3986 371.023 48.4132 377.713C49.3324 383.772 51.2977 389.583 54.3746 394.896C57.0554 399.523 60.7525 402.22 65.4878 404.591C67.6617 405.681 69.6803 405.343 71.9627 405.517C74.4629 405.709 76.1681 406.389 78.8135 405.791C80.0831 405.503 80.6833 404.577 81.6926 404.268C82.3159 404.078 82.6523 404.391 83.2508 404.318C84.1078 404.213 85.8909 403.793 86.8205 403.894C89.7121 404.21 89.2269 408.589 89.512 410.826C89.9493 414.27 90.2698 417.754 90.8612 421.176C92.1043 428.377 94.7851 435.102 96.3699 442.178C89.025 443.076 82.7249 444.449 75.8405 447.233C68.933 450.026 61.9512 450.976 54.6829 452.363C47.8833 453.662 41.3431 456.091 35.9005 460.488C33.3495 462.548 30.6993 464.96 32.5725 468.354C33.7707 470.524 35.9297 471.074 37.7939 472.336C38.1705 471.859 37.0812 470.847 36.8818 470.567C38.4489 470.89 38.4007 471.623 39.5451 472.26C40.5452 472.817 41.364 472.797 42.4589 473.191C45.132 474.153 46.4453 476.554 49.0877 477.228C49.919 477.439 51.0062 477.946 51.8563 478.09C52.8773 478.262 53.6417 477.815 54.6767 478.005C55.2353 478.372 55.8393 478.637 56.4885 478.795C56.914 478.598 57.3345 478.388 57.7487 478.168C59.2355 478.323 60.1541 479.26 61.3619 480.03C61.4429 479.059 61.3263 478.051 62.2428 477.42C62.6005 478.362 62.0224 478.96 62.9988 479.607C64.2359 480.431 65.8609 479.403 66.9676 478.883C67.281 482.019 74.5266 481.834 76.8232 481.788C80.0034 481.728 83.18 480.463 86.3867 481.169C88.0246 481.527 89.7705 481.903 91.4013 482.37C93.3615 482.933 95.7342 483.433 97.666 484.143C98.4327 484.423 99.3747 485.326 100.191 485.266C100.843 485.216 101.016 484.254 101.774 484.283C102.631 484.315 102.92 485.271 103.662 485.559C104.772 485.988 105.792 485.17 106.847 485.584C107.226 485.733 107.741 486.37 108.226 486.577C108.963 486.891 110.422 486.895 111.242 487.047C112.403 487.264 113.445 487.118 114.442 487.189C115.245 487.248 115.228 487.789 115.612 487.823C116.053 487.864 116.82 486.345 117.413 486.123C118.275 485.798 119.84 486.57 120.72 486.707C114.348 495.36 106.663 503.008 98.3335 509.705C89.3491 516.93 80.1486 524.145 70.5143 530.481C61.7672 536.234 53.2993 541.211 46.517 549.332C40.7984 556.18 31.6951 563.508 33.0984 573.434C34.5008 583.351 45.2513 587.388 53.8655 589.281C64.6997 591.662 75.8529 590.704 86.7161 592.044C91.3482 592.615 96.4956 592.31 101.16 591.822C106.668 591.249 111.389 587.647 116.124 585.044C124.641 580.359 131.924 574.094 140.313 569.264C150.819 563.215 161.212 556.808 172.729 552.757C178.085 550.872 183.601 548.722 187.923 544.847C188.566 544.27 189.046 543.399 189.772 542.923C191.008 542.116 191.339 542.936 192.056 542.691C192.607 542.503 193.142 541.905 193.618 541.725C194.827 541.273 195.365 541.459 196.718 541.459C195.559 540.789 194.494 539.06 195.7 537.651C197.763 535.238 198.119 539.094 198.894 539.988C199.551 539.142 199.3 538.39 199.132 537.428C199.688 537.795 200.242 538.162 200.798 538.53C200.416 536.668 200.78 534.956 201.763 533.334C202.671 531.84 202.894 532.05 203.146 529.979C205.963 532.557 206.514 526.301 206.769 524.02C207.013 521.81 206.771 520.221 208.222 518.287C209.782 516.21 212.152 514.898 214.131 513.285C217.257 510.736 220.695 507.517 225.017 509.962C228.43 511.892 230.287 516.623 233.488 519.054C235.431 520.528 237.48 520.678 238.717 522.965C239.718 524.814 240.044 527.026 240.989 528.925C243.277 533.526 246.572 538.792 250.331 542.322C253.83 545.606 258.322 545.59 262.416 547.627C266.471 549.645 270.682 551.831 274.972 553.293C279.659 554.89 284.713 555.569 289.274 557.503C291.622 558.499 293.72 559.996 296.088 560.949C298.641 561.977 301.331 562.702 303.918 563.643C314.17 567.373 324.201 571.947 334.97 574.014C339.747 574.931 344.169 577.423 348.98 577.946C351.044 578.172 352.728 578.455 354.747 578.974C357.917 579.784 357.245 580.216 358.412 582.863C360.332 587.219 365.022 584.639 368.636 584.747C374.421 584.923 380.119 583.986 385.897 583.942C395.999 583.864 405.727 582.723 415.499 579.401C425.311 576.065 436.48 568.026 428.326 556.92Z" fill="black"/>
<path fill-rule="evenodd" clip-rule="evenodd" d="M311.549 216.53C311.687 216.668 312.013 216.753 311.549 216.53V216.53Z" fill="black"/>
<path fill-rule="evenodd" clip-rule="evenodd" d="M133.599 402.084C135.794 399.857 145.129 400.308 145.834 404.291C146.622 408.74 138.28 415.458 135.228 417.34C131.298 419.764 126.503 420.218 127.199 414.132C127.727 409.536 130.475 405.257 133.599 402.084ZM141.308 397.499C141.593 398.73 139.495 398.312 138.918 398.021C138.645 397.46 141.025 396.262 141.308 397.499ZM125.209 405.656C127.072 405.823 129.205 402.831 130.61 401.811C131.231 402.772 127.137 408.057 126.686 409.263C125.561 412.276 124.935 416.082 126.47 419.088C130.951 427.87 142.424 415.328 145.292 410.949C147.3 407.884 148.688 404.085 145.853 401.083C144.844 400.013 143.176 399.717 142.238 398.7C141.004 397.364 141.976 395.639 139.493 395.93C137.781 396.131 135.725 397.68 134.061 398.239C132.054 398.915 130.25 399.614 128.499 400.863C128.104 401.145 122.909 405.448 125.209 405.656Z" fill="black"/>
<path fill-rule="evenodd" clip-rule="evenodd" d="M256.812 408.603C255.641 414.636 249.672 420.825 243.394 421.066C237.14 421.306 235.114 414.741 236.219 409.51C237.161 405.047 241.01 397.297 246.501 398.15C250.82 398.821 257.814 403.431 256.812 408.603ZM252.83 398.519C248.863 395.444 243.385 394.023 238.79 396.461C237.283 397.261 231.268 400.787 233.097 403.175C235.565 401.259 237.697 398.601 240.904 397.964C240.364 400.453 237.285 402.694 236.199 405.12C234.93 407.952 234.236 411.195 234.445 414.31C234.815 419.851 238.519 424.157 244.256 423.394C249.508 422.697 254.097 418.666 256.605 414.132C259.95 408.078 258.064 402.575 252.83 398.519Z" fill="black"/>
<path fill-rule="evenodd" clip-rule="evenodd" d="M216.006 422.317C213.182 426.507 208.878 430.446 203.9 431.738C197.457 433.413 199.266 428.079 201.193 424.25C202.894 420.866 205.816 415.042 210.264 415.074C211.773 415.083 214.584 415.816 215.907 416.623C218.515 418.219 217.492 420.115 216.006 422.317ZM209.991 413.115C211.004 411.985 215.491 407.137 216.093 410.915C217.38 409.419 216.364 408.177 214.716 408.019C212.725 407.829 210.551 410.047 209.115 411.151C206.16 413.419 203.884 415.743 201.926 418.923C199.767 422.431 194.261 430.355 199.079 433.835C204.288 437.597 211.868 430.65 215.128 427.067C217.214 424.777 219.976 421.412 219.183 418.052C218.209 413.924 213.418 413.492 209.991 413.115Z" fill="black"/>
<path fill-rule="evenodd" clip-rule="evenodd" d="M187.771 345.626C184.856 348.957 178.937 353.81 174.059 353.238C169.609 352.717 171.346 347.715 172.922 345.294C175.286 341.655 178.455 338.239 183.034 338.041C185.01 337.955 187.571 337.994 189.103 339.494C191.192 341.541 189.31 343.866 187.771 345.626ZM187.461 336.373C184.047 335.191 182.707 334.74 179.389 336.619C176.724 338.128 174.362 340.259 172.532 342.679C169.797 346.304 167.036 354.454 174.062 355.474C181.77 356.592 200.102 340.75 187.461 336.373Z" fill="black"/>
<path fill-rule="evenodd" clip-rule="evenodd" d="M197.965 357.169C195.748 359.436 192.98 361.287 189.821 361.919C191.158 358.932 194.142 352.406 197.68 351.496C199.309 351.077 201.168 351.627 201.033 353.487C200.938 354.832 198.84 356.273 197.965 357.169ZM200.819 349.273C198.983 348.35 199.562 347.72 197.426 348.444C195.743 349.013 193.62 350.002 192.219 351.139C191.454 351.762 189.074 353.964 189.365 355.085C189.892 357.122 191.668 354 192.136 353.4C192.934 354.053 188.844 359.917 188.601 360.882C187.695 364.476 190.51 364.855 193.269 363.681C196.991 362.094 208.012 352.882 200.819 349.273Z" fill="black"/>
<path fill-rule="evenodd" clip-rule="evenodd" d="M214.268 393.483C215.086 391.801 216.024 391.242 217.685 390.508C216.577 391.555 215.445 392.522 214.268 393.483ZM215.466 389.338C214.289 390.52 211.592 392.323 211.971 394.355C212.316 396.209 213.729 396.102 215.011 395.524C217.699 394.314 219.197 389.014 222.009 388.517C218.889 386.537 218.161 386.627 215.466 389.338Z" fill="black"/>
<path fill-rule="evenodd" clip-rule="evenodd" d="M215.879 284.058C216.029 289.704 216.16 295.349 216.284 300.995C216.329 302.978 215.856 305.807 216.451 307.707C216.713 308.545 219.086 312.173 219.928 312.408C222.875 313.229 221.821 305.83 221.843 304.008C221.915 297.861 221.823 291.706 221.798 285.559C221.786 282.39 222.678 255.827 218.576 255.957C217.867 255.98 216.127 259.018 215.865 259.626C215.04 261.537 215.344 264.373 215.364 266.41C215.419 272.29 215.723 278.179 215.879 284.058Z" fill="black"/>
<path fill-rule="evenodd" clip-rule="evenodd" d="M240.723 300.516C240.955 302.075 240.833 304.678 242.588 305.487C244.114 306.192 244.699 305.354 245.269 304.047C246.583 301.037 246.108 296.438 246.083 293.328C246.036 287.161 245.343 281.022 244.863 274.881C244.653 272.186 245.09 269.478 244.754 266.658C244.607 265.422 244.46 260.443 242.17 260.675C240.098 260.883 240.286 266.101 240.173 267.446C239.234 278.637 239.071 289.344 240.723 300.516Z" fill="black"/>
<path fill-rule="evenodd" clip-rule="evenodd" d="M338.458 429.025C337.58 433.519 323.262 449.171 319.656 440.418C317.518 435.224 322.154 429.571 325.77 426.564C328.008 424.704 330.802 422.878 333.853 423.441C336.442 423.92 339.014 426.171 338.458 429.025ZM331.064 420.964C330.053 421.203 321.6 427.149 321.522 427.071C320.789 426.333 326.12 418.371 326.667 417.676C331.188 411.939 334.188 416.283 337.015 420.791C336.413 418.098 334.758 414.189 331.99 413.05C328.495 411.611 325.77 415.161 324.089 417.713C321.713 421.32 320.403 425.236 319.082 429.305C318.453 431.246 317.734 433.006 316.67 434.756C315.617 436.484 313.775 438.388 314.048 440.572C315.544 439.74 316.339 438.108 317.281 436.765C318.331 437.192 317.972 440.551 318.184 441.406C318.721 443.553 320.187 445.236 322.453 445.605C326.676 446.293 331.236 442.379 334.06 439.719C337.037 436.919 340.24 433.077 340.213 428.766C340.187 424.26 335.763 419.849 331.064 420.964Z" fill="black"/>
<path fill-rule="evenodd" clip-rule="evenodd" d="M342.515 348.744C340.119 352.419 335.914 356.823 331.464 357.676C328.199 358.302 326.044 355.877 327.356 352.605C328.465 349.837 332.24 348.091 334.715 346.874C336.679 345.908 345.832 343.66 342.515 348.744ZM340.751 342.734C335.843 342.549 331.884 346.103 328.224 348.941C329.049 345.681 330.919 342.136 333.554 340.014C337.136 337.127 340.534 338.919 344.305 340.363C343.374 337.421 339.197 336.364 336.535 336.779C333.171 337.304 330.751 340.182 329.049 342.966C327.02 346.288 326.326 350.201 323.937 353.316C322.843 354.741 316.07 360.077 317.603 362.258C320.134 359.568 322.664 356.878 325.192 354.188C325.849 357.367 326.572 360.987 330.625 360.678C333.862 360.432 337.552 357.674 339.919 355.568C342.975 352.848 348.99 343.046 340.751 342.734Z" fill="black"/>
<path fill-rule="evenodd" clip-rule="evenodd" d="M271.987 374.107C269.906 375.065 265.329 376.366 264.167 373.488C262.551 369.492 267.749 362.481 270.223 359.818C271.744 358.178 272.776 357.332 274.898 358.391C276.592 359.239 279.08 361.645 279.73 363.494C281.125 367.465 275.239 372.608 271.987 374.107ZM276.757 354.91C278.452 355.293 278.659 357.447 276.541 356.62C274.954 355.999 274.586 354.42 276.757 354.91ZM278.884 357.944C278.251 356.012 279.537 352.981 276.424 352.841C274.659 352.763 271.425 354.56 269.885 355.29C267.749 356.303 265.74 357.848 264.626 360.025C263.592 362.041 264.33 362.573 265.904 360.898C266.097 361.03 262.344 370.727 262.31 371.699C262.165 376.14 265.302 379.065 269.71 378.277C273.759 377.553 277.41 374.235 279.638 370.886C280.766 369.192 281.692 367.251 281.777 365.175C281.906 361.99 279.787 360.71 278.884 357.944Z" fill="black"/>
<path fill-rule="evenodd" clip-rule="evenodd" d="M304.109 349.093C300.562 347.47 296.603 353.018 298.312 356.315C300.553 360.638 311.491 352.472 304.109 349.093ZM299.88 355.295C299.142 353.982 304.151 352.044 304.943 352.012C304.548 352.736 300.891 357.098 299.88 355.295Z" fill="black"/>
<path fill-rule="evenodd" clip-rule="evenodd" d="M62.7991 345.917C62.6012 344.514 59.4591 346.552 59.4775 347.457C59.997 346.416 63.2115 348.843 62.7991 345.917Z" fill="black"/>
<path fill-rule="evenodd" clip-rule="evenodd" d="M234.639 239.806C238.639 239.512 233.543 219.296 230.627 221.083C227.468 223.021 230.969 240.076 234.639 239.806Z" fill="black"/>
<path fill-rule="evenodd" clip-rule="evenodd" d="M242.11 230.367C245.857 230.904 245.262 222.284 243.247 220.74C239.525 217.893 237.559 229.714 242.11 230.367Z" fill="black"/>
<path fill-rule="evenodd" clip-rule="evenodd" d="M-45.3472 39.7466C8.53645 39.7466 52.2177 -4.02626 52.2177 -58.0228C52.2177 -112.019 8.53645 -155.792 -45.3472 -155.792C-99.2308 -155.792 -142.912 -112.019 -142.912 -58.0228C-142.912 -4.02626 -99.2308 39.7466 -45.3472 39.7466Z" fill="white"/>
<g style="mix-blend-mode:overlay">
<path fill-rule="evenodd" clip-rule="evenodd" d="M231.588 384.69C299.749 384.69 355.005 329.318 355.005 261.014C355.005 192.71 299.749 137.338 231.588 137.338C163.428 137.338 108.172 192.71 108.172 261.014C108.172 329.318 163.428 384.69 231.588 384.69Z" fill="white" fill-opacity="0.5"/>
</g>
</g>
</g>
<defs>
<clipPath id="clip0_17_233">
<path d="M-1 0H431V404C431 412.837 423.837 420 415 420H15C6.16343 420 -1 412.837 -1 404V0Z" fill="white"/>
</clipPath>
</defs>
</svg>
