<svg width="430" height="420" viewBox="0 0 430 420" fill="none" xmlns="http://www.w3.org/2000/svg">
<g clip-path="url(#clip0_17_68)">
<mask id="mask0_17_68" style="mask-type:luminance" maskUnits="userSpaceOnUse" x="-267" y="0" width="698" height="421">
<path d="M430.472 0.0376587H-266.437V420.038H430.472V0.0376587Z" fill="white"/>
</mask>
<g mask="url(#mask0_17_68)">
<path d="M430.472 0.0376587H-266.437V420.038H430.472V0.0376587Z" fill="#B3FFF1"/>
<path fill-rule="evenodd" clip-rule="evenodd" d="M368.181 525.259C500.621 525.259 607.985 419.441 607.985 288.91C607.985 158.377 500.621 52.5598 368.181 52.5598C235.741 52.5598 128.376 158.377 128.376 288.91C128.376 419.441 235.741 525.259 368.181 525.259Z" fill="#D9F9FF"/>
<path fill-rule="evenodd" clip-rule="evenodd" d="M248.08 148.341C252.859 145.698 255.647 140.96 258.407 136.27C258.823 135.564 259.237 134.86 259.658 134.164C259.939 133.698 260.247 133.218 260.562 132.728C261.39 131.435 262.26 130.076 262.804 128.746C263.041 128.164 263.246 127.31 263.454 126.448C263.698 125.43 263.945 124.4 264.253 123.789C264.924 122.456 270.018 121.849 273.487 121.436C274.634 121.3 275.602 121.184 276.176 121.071C282.274 119.865 289.562 119.142 294.545 123.846C295.73 124.964 297.057 125.995 298.389 127.03C299.984 128.27 301.586 129.515 302.958 130.921C305.16 133.179 308.127 136.977 309.173 139.993C303.804 141.013 294.886 144.135 292.747 149.686C284.877 142.569 281.558 154.423 279.813 160.644C279.707 161.023 279.608 161.382 279.512 161.714C275.226 159.887 275.449 154.327 275.613 150.255C275.635 149.684 275.656 149.143 275.665 148.645C275.676 147.907 275.789 147.138 275.901 146.388C276.272 143.873 276.612 141.571 272.966 141.368C269.429 141.172 265.994 142.591 262.804 143.921C258.821 145.579 254.646 148.061 251.431 150.911L248.08 148.341ZM240.348 137.253C240.348 137.388 240.346 137.523 240.344 137.658C240.332 138.857 240.319 140.052 240.69 141.208C240.904 141.876 240.906 142.853 240.91 143.792C240.912 144.472 240.915 145.132 240.996 145.639C237.541 144.602 231.121 143.065 227.593 144.463C224.219 145.799 223.796 151.979 223.677 154.985C223.646 155.744 223.754 156.656 223.866 157.603C224.057 159.209 224.258 160.916 223.819 162.15C223.479 163.102 223.49 163.383 223.513 163.452C223.454 163.418 223.189 163.408 222.22 164.097C221.788 164.404 221.317 164.649 220.845 164.894C220.282 165.186 219.716 165.48 219.207 165.884C217.855 166.959 217.392 168.149 216.837 169.576C216.695 169.944 216.546 170.328 216.373 170.731C215.557 172.635 213.384 174.328 210.958 174.259C211.267 173.707 211.595 173.162 211.921 172.618C213.658 169.725 215.37 166.876 214.061 163.433C212.913 160.405 214.866 156.862 216.467 153.96L216.56 153.79C216.659 153.612 216.938 153.216 217.315 152.686C218.983 150.322 222.546 145.281 220.4 144.853C218.874 144.548 215.583 150.827 214.366 153.148C214.22 153.424 214.105 153.644 214.025 153.79C211.935 152.397 210.995 150.68 212.605 148.583C213.174 147.841 213.802 147.149 214.432 146.455C215.172 145.641 215.912 144.826 216.56 143.926C217.133 143.133 217.702 142.294 218.278 141.444C219.666 139.395 221.099 137.282 222.737 135.582C226.813 131.36 233.924 128.485 239.792 128.46C239.66 130.104 239.851 131.685 240.044 133.287C240.199 134.58 240.357 135.887 240.348 137.253ZM223.526 163.47C223.529 163.468 223.526 163.459 223.513 163.452C223.518 163.469 223.524 163.473 223.526 163.47ZM256.895 204.718C258.051 202.324 259.062 200.232 259.658 199.177C263.264 192.782 266.835 186.443 270.216 179.931C267.535 180.939 265.263 182.483 262.962 184.048C262.616 184.284 262.269 184.52 261.918 184.756C260.706 185.569 259.385 186.305 258.054 187.043C256.06 188.154 254.049 189.272 252.371 190.679C251.991 190.997 251.685 191.35 251.391 191.687C250.722 192.455 250.127 193.137 248.919 193.124C248.095 193.117 246.925 192.276 245.88 191.525C245.272 191.087 244.705 190.681 244.271 190.486C243.419 190.101 242.717 189.598 242.022 189.102C241.239 188.541 240.465 187.987 239.498 187.618C238.897 187.387 238.405 187.311 237.954 187.24C237.187 187.121 236.533 187.018 235.646 186.223C235.073 189.554 227.126 187.985 221.97 186.967C220.258 186.63 218.854 186.351 218.13 186.335C217.855 186.328 217.568 186.321 217.275 186.312C214.699 186.238 211.498 186.147 209.253 187.096C207.533 187.824 205.503 189.465 203.738 190.892C203.058 191.442 202.417 191.96 201.85 192.381C199.052 194.453 197.057 197.095 194.999 199.964C192.357 203.644 196.303 203.29 199.149 203.034C199.345 203.016 199.538 202.999 199.72 202.983C206.21 202.44 212.517 203.517 218.773 204.977C224.361 206.283 229.443 208.286 234.792 210.401C235.782 210.794 237.584 211.714 239.615 212.754C243.756 214.871 248.855 217.479 250.003 217.093C251.096 216.725 254.349 209.99 256.895 204.718Z" fill="#237365"/>
<path fill-rule="evenodd" clip-rule="evenodd" d="M293.155 163.249C295.41 163.136 297.651 163.631 299.905 163.415C297.948 161.737 295.993 160.059 294.038 158.381C293.173 159.876 293.11 161.576 293.155 163.249ZM239.714 128.746C233.885 128.771 226.772 131.657 222.723 135.871C220.577 138.105 218.803 141.104 216.989 143.613C215.772 145.297 214.583 146.921 213.105 148.401C210.95 150.557 211.568 151.05 213.995 152.674C214.764 151.255 218.836 143.671 220.544 144.012C223.139 144.53 218.128 152.542 217.581 153.54C215.961 156.493 213.343 160.618 214.519 163.732C216.071 167.843 213.82 170.187 211.867 173.69C213.919 173.748 214.121 172.96 214.828 171.236C215.736 169.02 216.726 167.168 218.647 165.636C220.134 164.45 222.566 163.951 223.265 162.518C224.129 160.747 223.587 157.251 223.657 155.281C223.763 152.288 223.771 145.213 227.119 143.883C230.624 142.489 236.931 143.803 240.359 144.835C239.932 142.197 238.582 140.474 238.6 137.543C238.62 134.475 239.477 131.737 239.714 128.746ZM194.924 177.696C197.974 176.744 200.865 175.742 204.003 175.093C207.287 174.415 207.506 173.638 209.357 170.863C210.76 168.76 212.463 167.121 212.065 164.545C211.811 162.893 210.893 162.088 211.168 160.23C211.339 159.078 211.885 157.821 212.279 156.726C212.763 155.382 213.764 153.858 211.435 153.792C210.149 153.755 210.086 154.424 209.217 155.546C207.609 157.62 205.762 159.502 204.052 161.491C201.083 164.943 197.936 168.617 194.621 171.813C190.974 175.329 187.825 179.57 185.469 184.071C185.033 184.903 182.385 189.799 183.513 190.759C184.552 191.641 190.32 189.584 191.374 189.345C195.914 188.305 201.068 187.934 205.359 186.048C207.544 185.086 212.369 183.94 214.096 182.453C215.7 181.071 215.628 177.721 214.697 175.772C212.09 177.37 193.244 183.399 194.924 177.696ZM251.661 150.216C254.704 147.508 258.301 145.335 262.058 143.725C265.42 142.285 269.594 140.68 273.334 140.93C277.993 141.241 276.047 144.938 276.029 148.087C276.007 152.265 274.149 158.284 279.212 160.452C280.865 154.667 284.348 140.986 292.695 148.567C294.828 143.004 302.434 141.122 307.79 140.1C306.82 137.29 303.871 134.746 301.828 132.636C299.269 129.998 297.251 126.905 294.689 124.316C289.629 119.203 280.461 120.845 274.054 122.12C271.915 122.545 265.715 123.079 264.68 124.626C264.03 125.597 264.392 127.968 263.911 129.155C263.247 130.79 262.114 132.306 261.203 133.816C257.885 139.326 254.51 144.873 248.829 148.028L251.661 150.216ZM270.234 179.903C267.229 181.039 265.018 182.939 262.354 184.538C259.122 186.479 255.332 188.294 252.432 190.692C251.372 191.566 250.774 193.08 249.31 193.179C248.036 193.264 246.095 191.806 244.964 191.297C243.07 190.44 241.261 189.141 239.356 188.376C237.792 187.75 237.098 187.877 235.745 186.657C234.985 191.11 221.169 186.948 218.271 186.878C215.59 186.816 211.91 187.13 209.415 188.191C207.036 189.203 205.179 191.43 203.142 192.947C200.352 195.028 197.691 197.133 195.635 200.012C192.817 203.96 197.07 202.843 199.905 202.605C206.378 202.06 212.673 203.579 218.913 205.045C224.489 206.354 229.998 207.926 235.336 210.05C238.339 211.246 241.498 212.344 244.323 213.897C245.812 214.717 248.226 216.722 249.935 216.143C251.501 215.613 253.062 211.189 254.011 209.42C255.856 205.99 257.797 202.617 259.702 199.221C263.299 192.803 266.862 186.44 270.234 179.903ZM233.258 264.833C235.109 263.786 238.128 264.068 240.175 263.628C242.49 263.133 244.817 262.324 247.024 261.481C249.258 260.628 251.368 259.755 253.41 258.688C254.344 258.2 255.588 257.719 256.45 257.042C257.147 256.495 257.399 255.48 258.042 254.985C259.714 253.693 260.206 254.504 260.429 252.011C260.672 249.302 259.131 247.769 257.21 245.742C255.493 243.927 253.26 242.36 251.1 241.084C250.144 240.52 249.125 239.885 248.149 239.346C246.674 238.529 244.698 237.174 243.924 238.925C245.537 239.33 245.891 241.358 244.437 242.087C243.637 242.488 242.427 241.899 241.527 242.325C240.136 242.983 238.798 244.816 237.608 245.803C233.701 249.044 229.964 250.26 224.849 250.519C214.164 251.062 202.973 249.862 192.492 248.301C189.795 247.898 187.101 248.335 184.379 248.239C181.729 248.145 178.967 247.573 176.364 247.133C171.348 246.285 166.061 245.586 161.123 244.337C155.151 242.825 149.159 240.871 143.553 238.341C138.176 235.912 132.096 231.9 126.056 231.591C128.634 234.077 132.495 235.035 135.596 236.675C138.131 238.013 142.093 238.872 143.695 241.077C144.738 242.511 145.26 245.148 146.047 246.83C146.918 248.693 147.721 250.585 148.527 252.474C149.338 254.376 150.18 256.28 150.837 258.239C151.244 259.453 151.421 261.973 152.382 262.805C153.916 264.13 159.05 264.719 161.117 265.159C164.975 265.985 169.379 265.875 173.314 265.931C174.942 265.954 176.582 266.173 178.136 266.203C180.32 266.244 180.111 265.871 180.08 264.004C180.062 262.883 180.085 260.844 181.607 261.767C182.644 262.397 181.931 265.184 181.738 266.174C190.427 267.028 199.493 267.456 208.142 267.172C216.647 266.889 224.856 265.809 233.258 264.833ZM272.498 245.18C274.032 234.331 275.901 223.301 277.991 212.595C280.105 201.773 282.647 191.052 285.504 180.27C283.617 179.825 281.729 179.381 279.84 178.938C279.772 181.209 278.992 183.182 278.659 185.443C278.2 188.564 277.323 191.593 276.798 194.703C275.802 200.616 273.953 206.402 272.326 212.167C270.666 218.046 270.111 224.102 268.588 230.009C267.331 234.876 266.689 240.236 265.987 245.24C264.285 257.379 261.86 269.54 260.015 281.684C258.283 293.071 258.11 304.688 258.209 316.179C258.27 323.196 259.358 330.193 259.3 337.218C259.286 338.955 259.435 340.687 259.527 342.42C259.59 343.643 258.924 347.034 259.489 348.059C259.848 348.709 261.387 349.307 261.93 350.208C262.791 351.633 262.973 353.336 264.357 354.415C265.477 349.958 264.948 344.076 264.703 339.528C264.465 335.147 264.926 330.617 265.016 326.167C265.194 317.439 265.663 308.838 266.118 300.106C266.615 290.528 268.032 280.719 269.414 271.214C270.671 262.572 271.51 253.775 272.498 245.18ZM231.462 109.132C230.853 109.076 230.245 109.021 229.638 108.965C229.728 110.227 229.458 112.271 230.36 112.93C231.044 113.429 232.43 113.265 233.26 113.424C235.979 113.948 239.131 114.386 241.83 113.432C242.878 113.061 242.204 112.481 243.648 112.722C245.389 113.013 244.753 113.285 245.256 114.354C245.643 115.179 245.843 116.584 246.282 117.575C246.869 118.901 248.061 121.273 247.551 122.804C247.056 124.293 245.209 124.742 244.424 126.428C243.841 127.681 243.978 129.503 243.675 130.883C243.27 132.724 242.759 134.558 242.532 136.433C242.247 138.794 242.345 141.566 245.315 141.932C248.072 142.273 250.043 141.4 251.892 139.422C255.42 135.646 259.451 130.315 261.525 125.565C261.768 125.01 262.364 124.084 262.282 123.49C262.118 122.315 262.046 123.504 261.668 122.688C261.308 121.908 260.74 121.2 260.407 120.334C259.21 117.223 258.36 113.962 257.882 110.67C257.664 109.178 257.59 107.705 257.628 106.198C257.64 105.684 257.954 104.139 257.766 103.787C257.575 103.43 256.583 103.266 256.274 102.912C255.7 102.255 254.713 100.402 254.077 99.9105C253.294 99.3066 251.546 99.7848 251.227 98.5839C250.72 96.6619 262.748 93.5312 257.129 90.9664C252.932 89.0515 246.498 98.7314 245.031 91.1144C244.775 89.7952 245.259 88.0041 244.672 86.795C244.024 85.4585 242.256 84.959 241.021 84.3085C239.448 83.4795 237.856 82.6273 236.326 81.7192C235.275 81.0969 233.762 79.444 232.644 79.2927C233.086 81.5361 232.241 83.7597 232.229 85.9987C234.648 85.3533 236.314 85.3396 238.703 86.4873C239.84 87.0335 244.129 90.1335 241.956 91.6246C240.197 90.5995 238.314 89.7107 236.353 89.1079C235.579 88.87 234.612 88.5465 233.789 88.53C231.879 88.4922 232.149 88.689 231.431 90.1082C230.74 91.4753 230.889 95.0408 229.371 95.9138C227.802 96.8165 229.011 95.5531 227.672 95.8448C226.907 96.0114 226.075 96.5714 225.375 96.8878C226.332 97.9132 228.268 98.8494 228.905 99.9882C229.832 101.649 229.51 105.083 229.656 106.9C230.869 106.472 232.148 106.454 233.379 106.136C234.537 105.837 236.141 104.541 236.261 106.446C236.396 108.569 232.99 109.132 231.462 109.132ZM247.265 165.021C247.36 163.187 247.463 161.353 247.67 159.526C247.81 158.3 248.993 154.742 248.325 153.664C247.598 152.492 245.162 152.418 243.99 152.136C241.745 151.597 239.59 151.155 237.307 150.798C235.206 150.471 233.228 150.402 231.112 150.307C228.808 150.205 228.235 149.602 227.726 152.104C227.326 154.072 226.79 156.121 226.714 158.136C226.644 160.026 227.224 161.668 225.322 162.942C229.497 162.942 234.936 159.278 238.748 162.554C244.199 167.239 234.713 168.589 232.211 169.623C234.29 170.619 237.378 171.401 238.357 173.675C239.455 176.225 237.862 177.309 235.422 177.513C235.651 178.496 236.53 179.133 236.791 180.315C237.174 182.048 235.932 181.474 237.516 182.815C239.605 184.579 243.902 185.759 246.464 186.882C247.063 187.146 247.67 187.395 248.284 187.625C249.242 188.466 249.951 188.307 250.408 187.144C251.723 186.326 252.891 184.499 254.056 183.434C256.648 181.069 259.509 178.993 262.589 177.285C261.313 176.764 259.786 177.941 258.56 177.368C257.57 176.905 257.943 176.062 257.35 175.431C257.588 174.608 257.336 174.307 256.596 174.528C256.227 174.566 255.883 174.505 255.564 174.343C254.945 173.586 254.666 173.338 254.625 172.17C254.582 170.93 255.311 170.492 255.59 169.5C256.499 168.889 256.479 168.289 255.528 167.701C255.138 167.072 254.924 166.389 254.889 165.653C254.708 162.918 257.241 161.816 259.174 160.369C255.714 159.995 255.845 155.997 258.24 154.249C260.721 152.437 265.974 153.179 268.973 153.588C269.598 153.672 271.283 154.465 271.913 153.96C272.3 153.65 272.027 151.03 272.045 150.568C272.086 149.518 272.344 148.267 272.174 147.223C271.82 145.037 272.572 146.138 270.975 146.077C267.173 145.932 262.332 149.201 258.989 150.743C255.244 152.469 252.839 152.734 252.799 157.013C252.763 161.064 251.609 165.1 251.107 169.087C250.885 170.828 250.729 179.873 247.495 176.536C246.241 175.241 247.045 173.25 247.137 171.653C247.265 169.456 247.189 167.224 247.265 165.021ZM38.1381 300.635C39.9889 300.958 43.0026 299.911 45.0208 299.801C48.5513 299.611 52.188 299.279 55.6464 298.555C58.3523 297.989 61.4345 297.491 62.8945 294.909C64.198 292.604 64.6589 289.715 65.3628 287.197C65.7355 285.861 66.6987 283.924 66.6987 282.541C66.6969 280.744 66.452 281.097 64.549 280.114C62.142 278.87 59.798 277.135 57.2019 276.429C56.4151 276.278 55.6302 276.129 54.8435 275.983C53.8245 275.401 53.2501 275.689 53.1169 276.84C52.1249 277.873 51.5416 279.775 50.7081 280.982C48.8087 283.734 46.5511 285.609 43.604 287.196C38.2984 290.051 33.3565 292.254 27.6746 294.121C24.5438 295.15 21.6561 296.593 18.5955 297.727C16.1435 298.635 12.7606 298.912 10.8757 300.935C8.75129 303.217 12.0171 304.045 13.8336 305.589C15.3207 306.852 15.3495 307.143 17.3857 306.53C18.9016 306.072 20.2446 305.197 21.7011 304.604C26.688 302.576 32.7227 301.224 38.1381 300.635ZM152.108 336.827C150.249 336.432 148.391 336.034 146.531 335.64C148.36 339.001 152.204 343.921 149.444 347.813C148.414 349.266 146.698 349.681 145.166 350.417C143.312 351.312 141.6 352.454 139.846 353.519C132.616 357.904 125.269 362.352 117.652 366.116C120.037 366.873 123.704 367.398 126.16 366.738C129.019 365.968 131.667 364.201 134.604 363.429C139.871 362.043 145.416 360.863 150.767 360.154C155.142 359.572 166.092 360.885 165.56 354.403C165.055 348.247 161.324 342.376 160.213 336.292C157.49 336.888 154.89 336.785 152.108 336.827ZM262.888 238.323C265.007 228.078 266.271 217.661 268.77 207.488C270.018 202.415 270.896 197.271 272.113 192.196C272.68 189.834 273.109 187.45 273.66 185.093C274.22 182.707 275.422 180.505 275.696 178.038C273.672 178.532 273.204 183.101 272.59 184.818C271.465 187.971 270.237 191.002 268.792 194.02C266.491 198.818 264.051 203.448 261.457 208.1C258.722 213.006 255.835 217.726 252.418 222.207C251.294 223.679 249.771 224.833 249.047 226.447C247.909 228.988 247.431 232.015 246.345 234.659C247.11 235.043 249.087 235.138 250.027 235.321C251.771 235.66 252.995 235.962 254.672 236.78C257.626 238.221 260.109 239.929 262.082 242.522C262.579 241.191 262.706 239.732 262.888 238.323ZM180.548 316.487C180.512 306.622 180.37 296.671 180.534 286.878C180.579 284.158 180.804 281.225 181.205 278.526C181.456 276.83 182.935 273.224 181.963 272.411C181.131 271.716 176.748 272.174 175.671 272.149C173.583 272.101 171.503 272.009 169.411 271.854C169.411 275.511 170.862 279.663 171.536 283.28C172.164 286.655 172.679 290.047 173.197 293.436C174.319 300.777 174.639 308.219 175.857 315.577C176.96 322.251 178.417 328.896 179.22 335.568C179.659 339.232 180.55 342.686 181.243 346.347C181.605 348.256 182.925 356.117 184.586 356.89C184.937 354.069 183.503 350.664 183.245 347.813C182.98 344.869 182.775 341.906 182.291 338.946C181.72 335.47 181.434 331.911 181.216 328.394C181.083 326.241 181.041 324.094 180.852 321.944C180.717 320.384 180.118 318.019 180.548 316.487ZM232.731 184.552C232.799 183.479 229.978 183.521 229.452 182.286C228.385 179.779 230.815 180.23 232.31 179.971C231.777 178.576 221.801 179.083 224.125 175.319C225.738 172.707 231.852 176.705 233.485 174.223C234.56 172.593 231.636 172.369 230.479 172.205C228.734 171.959 224.624 172.755 224.759 170.524C224.93 167.722 232.918 165.788 235.159 164.965C234.911 163.046 225.296 165.774 223.906 166.552C220.755 168.312 218.343 171.471 217.88 174.982C217.342 179.066 219.444 182.283 223.585 183.285C225.312 183.704 226.588 183.75 228.185 184.378C229.236 184.792 232.637 185.823 233.357 184.779C233.149 184.703 232.94 184.628 232.731 184.552ZM289.175 159.146C289.333 157.401 290.824 154.118 289.108 152.972C286.705 151.367 285.709 154.011 285.164 155.598C284.499 157.537 281.7 162.282 284.147 163.49C284.717 163.771 287.414 163.444 287.891 163.258C289.216 163.599 289.643 163.11 289.175 161.79V159.146ZM230.536 300.012C230.385 295.244 232.551 289.513 233.779 284.845C235.17 279.553 235.903 274.157 237.378 268.925C235.737 269.12 234.083 269.278 232.463 269.603C230.252 270.044 230.212 269.975 230.371 272.112C230.608 275.321 230.297 278.467 230.129 281.676C229.793 288.099 230.612 294.629 230.066 301.011C230.554 301.132 230.709 300.8 230.536 300.012ZM291.751 175.065C297.062 175.866 302.154 177.525 306.987 179.756C309.652 180.984 312.586 182.304 315.564 182.795C318.871 183.34 322.38 183.085 325.758 183.296C326.95 183.37 330.08 183.94 331.242 183.25C332.392 182.565 332.302 181.406 332.356 180.026C332.495 176.473 330.863 172.994 329.394 169.806C328.136 167.071 327.184 164.983 325.23 162.631C322.722 159.609 320.537 156.348 318.187 153.195C316.416 150.818 314.626 148.474 312.821 146.1C311.53 144.4 311.591 143.815 309.643 144.005C307.726 144.193 305.796 145.309 303.99 145.901C301.311 146.779 298.065 147.261 295.62 148.666C294.041 149.574 293.971 149.741 293.989 151.326C294.005 152.802 294.49 154.602 295.384 155.757C297.246 158.155 300.333 159.424 302.982 160.62C304.514 161.311 305.837 162.292 307.202 163.246C308.671 164.275 311.636 164.881 312.759 166.053C316.034 169.468 310.075 168.793 308.41 168.69C304.816 168.468 301.243 168.501 297.622 168.499C293.67 168.496 289.751 168.315 285.855 168.442C283.574 168.516 280.956 167.376 279.478 165.475C278.762 164.554 278.483 163.684 277.548 162.729C276.321 161.478 275.255 160.16 273.762 159.192C271.321 157.609 266.885 156.713 263.979 157.304C265.02 157.447 269.913 159.089 267.758 161.152C267.497 161.403 264.348 161.568 263.664 161.878C262.429 162.437 260.872 163.249 260.148 164.429C262.256 164.081 270.079 163.677 266.089 167.665C265.11 168.644 262.298 169.62 264.69 170.661C265.239 170.9 266.34 170.562 267.047 170.777C268.098 171.098 268.959 171.956 269.944 172.414C272.74 173.713 276.591 174.514 279.509 174.229C283.542 173.835 287.744 174.544 291.751 175.065ZM184.793 295.207C184.932 300.935 184.721 306.696 184.846 312.451C184.979 318.595 185.778 324.618 186.16 330.7C186.502 336.153 187.249 341.501 187.856 346.927C188.205 350.052 188.608 353.042 189.145 356.143C189.647 359.045 189.733 361.603 186.212 362.384C179.479 363.876 178.433 354.332 177.131 350.311C175.189 344.31 173.945 338.009 172.981 331.788C171.19 320.201 168.806 308.776 167.877 297.092C167.305 289.896 166.475 282.774 166.003 275.586C165.911 274.177 166.277 272.007 165.02 271.379C164.266 271.003 162.187 270.999 161.232 270.726C158.577 269.965 156.127 268.843 153.536 267.681C155.374 277.156 155.983 286.584 157.362 296.14C158.094 301.212 159.495 306.467 160.709 311.459C161.965 316.631 162.246 322.201 163.697 327.26C164.336 329.49 164.876 330.399 163.949 332.688C162.811 335.498 163.566 336.171 164.993 338.93C167.618 344.007 169.622 349.999 169.175 355.721C168.814 360.397 165.229 362.844 160.79 364.103C155.235 365.681 149.419 365.495 143.832 367.285C138.962 368.846 134.017 369.998 129.289 372.058C127.383 372.888 125.571 373.873 123.456 374.026C120.552 374.233 118.595 372.574 115.853 372.228C114.139 372.012 111.63 372.817 110.643 371.048C109.86 369.645 110.746 366.582 111.729 365.454C114.489 362.279 120.016 359.513 123.737 357.639C128.027 355.48 132.177 352.777 136.152 349.992C138.561 348.302 141.018 346.681 143.425 344.99C145.019 343.868 145.623 343.861 145.46 342.081C145.33 340.664 144.682 339.287 144.568 337.833C144.48 336.719 144.876 335.202 144.343 334.476C143.951 333.94 142.477 333.562 141.897 333.156C139.778 331.676 139.295 329.845 138.332 327.592C136.147 322.478 133.635 317.506 131.523 312.35C126.99 301.277 124.225 289.637 120.466 278.34C116.627 266.797 113.194 254.682 111.079 242.708C108.25 243.556 105.58 247.311 103.326 249.167C100.282 251.678 97.1639 254.105 94.1772 256.685C89.2856 260.912 84.3311 265.025 80.2858 270.087C78.3378 272.525 76.7427 275.151 74.9802 277.712C73.9612 279.193 73.0106 280.868 71.907 282.275C71.7306 282.502 71.7252 282.966 71.5343 283.159C71.1149 283.581 70.3119 283.017 70.0419 283.296C68.3802 285.01 68.4018 289.873 67.8833 292.134C67.1703 295.25 66.3674 298.83 63.8991 300.977C60.086 304.294 53.0539 304.808 48.2272 304.98C42.0341 305.2 36.0264 306.902 30.1501 308.728C27.41 309.58 24.74 310.577 21.9891 311.404C20.4066 311.879 18.6027 312.829 16.9122 312.646C14.8742 312.426 13.2665 310.737 11.774 309.48C9.385 307.472 7.17419 305.492 7.25341 302.196C7.33802 298.708 9.25538 296.075 12.2763 294.341C18.1184 290.991 24.6518 288.844 30.9476 286.529C33.3619 285.641 35.4268 284.658 37.7349 283.464C40.9935 281.775 44.7472 280.396 47.6385 278.166C48.4919 277.507 51.6263 275.492 51.8927 274.452C51.9287 274.317 51.1438 272.729 51.142 272.479C51.133 271.831 51.5218 271.129 51.7613 270.575C53.2681 267.085 55.7958 263.724 57.7276 260.434C61.2652 254.407 64.8173 248.347 68.9203 242.678C77.0992 231.375 86.2881 220.308 96.2043 210.442C101.04 205.632 105.219 200.176 110.121 195.433C112.063 193.554 114.114 192.024 116.507 190.805C119.175 189.444 122.171 189.178 125.228 188.763C132.639 187.758 138.827 189.918 145.786 191.799C152.362 193.575 158.948 195.074 165.562 196.925C172.827 198.957 180.015 200.907 187.256 203.121C191.125 204.305 195.106 205.03 198.993 206.166C200.865 206.713 207.94 210.137 209.501 209.012C204.584 206.739 199.549 204.667 194.288 203.295C192.74 202.892 191.752 203.339 191.807 201.586C191.84 200.63 192.931 199.34 193.323 198.552C194.263 196.669 195.327 194.828 196.245 192.94C192.911 193.871 183.949 197.101 181.436 193.763C178.807 190.269 181.002 183.42 182.651 179.999C186.952 171.069 194.269 163.617 201.398 156.886C202.941 155.43 206.264 153.53 207.087 151.676C207.337 151.113 206.793 150.285 207.357 149.552C207.692 149.117 209.038 148.819 209.577 148.35C211.537 146.64 213.102 143.042 214.456 140.8C215.874 138.453 217.153 135.911 218.935 133.804C221.851 130.36 224.862 126.709 229.584 125.903C231.899 125.508 234.358 125.719 236.578 124.931C239.262 123.978 241.812 122.477 244.523 121.489C243.85 120.127 243.304 117.961 242.001 117.813C240.744 117.669 238.902 118.733 237.464 118.725C235.365 118.714 233.573 118.383 231.546 117.989C229.305 117.552 228.565 117.631 227.748 115.234C226.891 112.723 227.107 109.807 227.114 107.199C227.117 105.924 227.373 104.342 227.263 103.091C227.098 101.207 226.727 101.134 225.227 99.9357C223.353 98.4381 221.045 96.4563 223.339 93.8541C224.579 92.4481 227.128 93.5416 228.226 92.0309C229.344 90.4922 229.29 86.6266 229.631 84.8192C226.183 86.4895 227.447 80.2452 227.447 78.7426C227.445 76.5562 225.958 72.6245 228.099 70.8056C229.094 69.9609 229.832 70.6595 230.97 70.1742C232.268 69.6204 233.086 68.1677 234.466 67.6045C237.21 66.4849 240.013 67.8333 242.831 67.6106C246.062 67.3556 249.236 66.8632 252.486 67.3742C254.027 67.6155 254.675 68.1919 255.977 68.8379C257.23 69.4591 258.501 69.6291 259.862 70.0289C261.074 70.3849 262.134 70.5648 262.953 71.6044C263.599 72.427 263.337 73.8105 263.99 74.5195C264.633 75.2183 265.907 75.1168 266.676 75.9465C267.412 76.7427 267.854 78.0588 268.237 79.0498C268.754 80.3845 268.815 80.8857 269.726 81.9539C270.522 82.8862 271.665 83.6357 272.327 84.6991C273.89 87.2056 273.93 90.8303 273.431 93.6502C273.262 94.6103 271.85 97.0924 272.072 97.9093C272.281 98.687 273.606 98.4824 274.205 98.9743C274.724 99.3993 275.179 101.293 275.588 101.409C276.472 101.658 277.561 99.9399 278.231 99.6823C279.392 99.2343 279.878 98.7747 280.523 100.463C281 101.716 280.335 103.417 279.986 104.613C279.54 106.135 279.048 107.968 277.867 109.119C276.481 110.473 275.37 109.733 273.838 110.462C271.544 111.554 272.221 114.969 269.398 115.945C266.707 116.875 263.743 113.949 261.709 112.604C262.13 115.87 263.716 119.016 262.955 122.363C269.143 119.974 275.262 116.584 282.006 115.837C285.445 115.456 288.917 115.005 292.163 116.411C295.962 118.058 298.29 121.689 300.863 124.706C305.695 130.377 310.655 135.889 315.292 141.742C319.548 147.111 323.135 153.332 327.819 158.36C332.567 163.458 336.151 171.73 335.631 178.789C335.584 179.428 335.083 180.874 335.161 181.562C335.222 182.087 335.708 182.755 335.701 183.18C335.674 184.609 335.195 185.43 333.812 186.224C331.418 187.599 327.848 188.294 325.14 188.635C321.543 189.089 317.138 189.137 313.539 188.653C309.827 188.152 306.564 186.106 303.151 184.868C300.157 183.784 297.149 183.106 294.003 182.412C292.268 182.031 290.347 180.973 289.274 181.997C288.289 182.937 288.086 187.766 287.855 189.048C285.365 202.963 282.407 216.406 279.788 230.25C276.819 245.941 274.788 261.627 272.723 277.451C270.848 291.836 270.234 306.382 269.814 320.753C269.613 327.609 269.584 334.391 269.627 341.251C269.65 345.094 271.6 357.918 265.819 358.409C262.422 358.699 259.705 353.901 258.794 351.283C257.428 347.351 256.715 343.118 256.497 338.987C256.056 330.626 255.478 322.258 255.136 313.893C254.765 304.83 255.237 295.601 255.991 286.568C256.753 277.476 258.67 268.515 259.259 259.407C257.494 261.889 256.929 262.354 253.991 263.435C250.916 264.567 247.958 265.905 244.856 266.959C243.799 267.317 242.152 267.542 241.288 268.13C239.691 269.212 240.739 267.984 240.229 270.092C239.686 272.346 239.583 275.052 239.437 277.366C238.758 288.232 235.703 299.02 234.294 309.83C233.953 312.438 234.439 323.518 229.881 320.026C226.37 317.337 226.44 308.891 225.94 304.936C225.276 299.663 225.647 294.24 225.751 288.936C225.872 282.895 225.974 276.556 227.438 270.658C224.82 270.216 221.178 271.418 218.544 271.622C216.261 271.796 213.988 271.907 211.719 272.03C206.309 272.323 200.735 272.557 195.234 272.452C194.233 272.433 187.688 271.53 186.853 272.257C186.581 272.495 186.498 275.746 186.448 276.141C186.255 277.635 185.994 279.128 185.798 280.613C185.177 285.361 184.617 290.461 184.793 295.207Z" fill="black"/>
<path fill-rule="evenodd" clip-rule="evenodd" d="M281.966 340.333C286.096 341.923 290.478 342.5 294.643 343.948C298.366 345.243 301.822 346.984 305.488 348.301C305.704 346.625 305.817 343.788 305.189 342.209C304.3 339.973 301.961 339.918 299.657 339.122C294.05 337.184 288.151 336.774 282.584 334.51C283.538 336.318 283.111 338.712 281.966 340.333ZM353.247 334.485C344.328 334.744 335.805 336.788 327.016 338.053C322.74 338.667 318.459 339.217 314.178 339.791C312.531 340.012 309.528 339.751 308.331 341.157C307.339 342.321 308.426 346.294 307.985 348.001C309.789 348.132 312.988 346.473 314.945 346.198C317.991 345.77 320.998 345.172 324.076 344.982C328.95 344.679 333.74 344.422 338.607 343.888C343.556 343.345 348.345 342.333 353.334 341.964C355.759 341.785 356.734 342.234 356.877 339.711C356.932 338.724 357.069 337.074 356.79 336.102C357.238 334.906 356.841 334.325 355.595 334.359C354.804 334.272 354.023 334.313 353.247 334.485ZM335.998 326.435C338.411 326.213 340.832 325.893 343.25 325.759C343.74 325.732 346.226 325.879 346.633 325.43C347.207 324.795 346.566 322.471 346.462 321.752C346.103 319.307 345.707 317.886 343 317.88C340.715 317.875 338.351 318.35 336.075 318.569C325.745 319.568 315.467 319.988 305.252 321.883C305.875 324.492 306.581 327.183 305.837 329.852C310.738 330.101 316.117 329.173 320.906 328.22C325.801 327.246 330.995 326.761 335.998 326.435ZM319.649 301.87C315.959 301.886 312.057 303.486 308.417 303.13C308.361 303.797 309.528 303.243 309.85 303.868C310.536 303.87 310.777 304.091 310.567 304.533C310.579 304.833 310.423 305.011 310.097 305.062C309.936 305.076 309.776 305.089 309.616 305.103C308.912 305.124 308.797 305.593 309.27 306.508C309.067 307.64 309.371 309.079 309.416 310.217C315.96 309.34 322.319 308.428 328.91 308.036C332.021 307.851 335.13 307.851 338.238 307.599C341.657 307.321 345.389 307.917 348.732 307.285C350.518 306.948 350.331 306.971 350.201 304.682C350.122 303.291 350.15 301.639 349.002 300.624C347.083 298.93 342.712 299.909 340.414 299.969C333.501 300.149 326.471 300.782 319.649 301.87ZM323.426 334.567C333.314 333.683 343.126 331.745 353.069 331.745C352.365 331.053 350.835 330.874 349.96 330.496C348.962 330.067 348.021 329.149 347.045 328.773C345.09 328.019 343.099 329.068 341.089 329.52C336.241 330.615 331.269 330.652 326.413 331.724C321.394 332.833 316.31 333.855 311.198 334.419C308.764 334.687 306.152 335.232 303.747 334.599C303.552 334.46 303.356 334.324 303.162 334.185C302.951 333.303 302.368 333.069 301.41 333.479C300.195 333.252 298.647 333.546 297.424 333.577C297.374 334.057 301.894 335.567 302.757 335.942C304.834 336.843 306.242 337.503 308.46 337.117C313.456 336.247 318.369 335.209 323.426 334.567ZM288.647 306.086C289.035 307.571 290.657 306.895 292.054 307.058C293.928 307.278 295.793 307.915 297.61 308.396C300.908 309.269 304.206 310.13 307.49 311.052C307.36 309.746 307.654 306.771 306.953 305.612C306.217 304.397 302.73 303.864 301.108 303.493C297.015 302.56 292.642 303.091 288.485 303.288C288.559 304.219 288.613 305.152 288.647 306.086ZM327.958 315.371C331.841 315.047 335.728 314.795 339.622 314.66C344.074 314.507 340.839 313.806 340.746 311.13C334.893 312.05 328.989 312.231 323.156 313.017C318.324 313.67 312.567 315.371 307.637 314.457C305.313 314.026 302.939 313.859 300.465 313.616C298.132 313.386 295.932 312.316 293.625 312.05C291.038 311.75 288.395 313.183 285.821 313.561C284.73 313.723 284.476 314.452 283.961 313.159C283.428 311.815 284.957 310.719 285.56 309.917C286.264 308.978 285.972 310.501 286.363 309.037C286.471 308.627 286.176 307.596 286.12 307.154C285.983 306.036 285.627 304.824 285.571 303.71C285.52 302.686 285.511 301.123 286.638 300.525C287.328 300.159 287.816 300.692 288.415 300.589C293.102 299.787 298.614 299.719 303.365 300.495C308.518 301.334 312.952 299.111 318.029 298.209C323.986 297.152 330.005 296.994 336.014 296.547C341.151 296.165 350.538 294.183 352.495 300.649C353.049 302.48 353.856 307.525 352.365 309.083C350.408 311.13 345.878 310.477 343.349 311.008C343.727 312.069 344.854 312.791 344.463 314.055C348.01 314.22 348.636 317.518 349.191 320.599C349.765 323.787 348.645 325.054 351.737 326.713C356.045 329.027 360.609 331.362 360.524 336.872C360.483 339.641 360.168 343.818 357.282 345.256C354.459 346.661 349.861 346.423 346.748 346.934C340.722 347.923 334.675 349.083 328.613 349.676C322.157 350.307 315.595 350.827 309.128 351.109C305.605 351.264 302.56 351.789 299.158 350.62C295.813 349.472 292.54 348.632 289.089 347.781C285.681 346.94 275.249 345.806 278.29 340.064C278.776 339.146 280.438 338.415 280.706 337.546C281.14 336.144 279.676 335.051 279.738 333.784C279.849 331.469 282.503 331.178 284.334 331.178C281.194 329.242 285.4 326.951 285.374 325.308C285.331 322.414 281.677 320.537 281.471 318.109C280.967 312.206 299.977 318.352 302.903 319.63C300.65 322.921 290.203 320.073 287.092 319.575C287.515 320.673 287.922 321.661 288.044 322.786C288.143 323.702 287.789 324.749 288.115 325.672C288.628 327.132 288.61 326.852 290.428 327.249C291.773 327.544 293.103 327.884 294.443 328.195C296.502 328.674 299.741 329.959 301.783 329.888C303.572 329.827 303.219 330.374 303.547 328.415C303.723 327.363 303.423 326.243 303.241 325.212C302.867 323.051 302.316 321.007 304.231 319.456C306.059 317.978 309.908 317.273 312.147 316.752C317.12 315.595 322.857 315.311 327.958 315.371Z" fill="black"/>
<path fill-rule="evenodd" clip-rule="evenodd" d="M351.616 278.487C346.217 277.596 340.731 277.376 335.267 277.646C335.564 278.978 335.859 280.309 336.157 281.642C341.275 280.343 346.467 279.582 351.616 278.487ZM307.711 288.819C305.545 288.663 307.052 289.618 307.587 291.014C308.244 292.73 308.104 294.9 308.255 296.705C314.59 294.325 321.961 292.932 328.698 292.13C331.891 291.75 335.132 291.642 338.344 291.479C339.294 291.431 342.724 291.823 343.419 291.193C343.934 290.725 343.572 288.143 343.077 287.574C340.38 284.477 329.958 287.149 326.188 287.428C320.006 287.882 313.937 288.972 307.711 288.819ZM316.709 280.52C322.319 281.053 327.736 281.001 333.346 281.83C332.921 278.316 333.429 277.419 329.384 277.232C325.779 277.067 322.186 276.932 318.598 276.934C310.529 276.94 302.478 276.787 294.401 276.787V280.357C301.871 279.605 309.224 280.966 316.709 280.52ZM289.733 293.653C293.274 293.637 296.619 294.953 300.161 295.296C302.28 295.5 301.613 295.759 303.084 296.806C305.374 298.44 306.033 297.57 305.747 295.351C304.773 287.843 295.127 289.527 289.569 289.11C289.935 290.901 289.094 292.418 287.857 293.653H289.733ZM328.001 284.014C322.91 284.096 317.811 284.381 312.754 284.277C310.491 284.231 307.558 283.789 305.34 284.168C303.714 284.447 302.355 285.261 300.573 285.565C303.191 286.954 304.517 286.016 307.27 285.7C310.021 285.384 312.812 285.391 315.573 285.226C320.108 284.955 324.942 283.885 329.409 284.176C329.492 283.556 329.022 283.501 328.001 284.014ZM287.61 300.273C285.275 300.268 288.489 297.649 288.912 297.389C286.325 297.389 285.699 295.862 286.447 293.406C287.153 291.092 287.677 291.8 285.9 289.873C284.562 288.423 284.359 287.355 285.936 285.733C287.54 284.083 290.79 284.55 292.212 283.187C294.632 280.87 291.508 276.253 294.862 274.477C297.129 273.277 300.784 273.426 303.286 273.173C305.704 272.928 308.208 272.881 310.644 272.848C315.951 272.777 321.466 273.653 326.75 274.136C328.678 274.312 330.844 275.078 332.741 275.08C334.677 275.084 336.704 274.658 338.704 274.706C341.026 274.764 343.266 274.596 345.662 274.972C347.497 275.259 351.783 275.41 353.188 276.755C357.863 281.237 346.775 283.295 344.867 283.799C346.809 285.895 346.728 288.665 346.435 291.303C347.36 291.303 348.953 290.908 349.432 291.93C350.026 293.197 347.826 293.527 347.306 293.676C344.316 294.526 340.814 294.293 337.73 294.602C331.567 295.219 325.477 295.576 319.377 296.728C316.405 297.288 313.451 297.982 310.48 298.527C309.967 298.623 309.45 298.697 308.934 298.756C308.138 298.688 307.88 299.18 308.161 300.232C307.337 300.628 304.264 299.639 303.313 299.489C297.871 298.619 293.002 298.979 287.61 300.273Z" fill="black"/>
<path fill-rule="evenodd" clip-rule="evenodd" d="M397.497 352.341C393.989 355.063 390.725 357.63 386.924 359.996C389.61 359.912 398.547 355.691 397.497 352.341ZM396.127 347.905C394.212 346.283 392.309 346.448 389.938 345.957C387.754 345.504 385.631 344.725 383.453 344.205C381.743 343.799 380.05 343.249 378.345 342.864C375.94 342.319 375.703 342.919 373.49 344.161C365.642 348.567 356.86 351.599 348.595 355.175C351.022 357.281 356.482 357.371 359.514 358.042C361.728 358.532 363.837 359.202 365.957 359.976C367.932 360.7 371.115 362.361 373.198 362.416C374.955 362.464 376.385 360.759 377.899 359.839C379.89 358.631 381.872 357.444 383.88 356.266C388.127 353.773 392.096 350.717 396.127 347.905ZM360.663 365.753C359.757 364.896 357.03 364.934 355.894 364.671C353.656 364.157 351.452 363.621 349.184 363.234C345.504 362.607 339.692 362.325 339.293 357.623C338.96 353.714 343.754 352.786 346.557 351.462C350.772 349.47 355.074 347.632 359.397 345.875C363.45 344.228 367.562 342.835 371.688 341.412C372.493 341.135 373.146 341.173 373.803 340.539C374.322 340.037 374.162 339.065 374.73 338.541C376.03 337.344 377.719 337.974 379.282 338.28C382.832 338.98 386.519 339.895 389.902 341.189C393.42 342.534 396.565 342.814 397.411 346.744C399.21 345.912 400.562 345.792 400.346 348.235C400.284 348.952 399.755 349.732 399.627 350.472C399.44 351.565 399.768 352.715 399.582 353.81C398.909 357.788 393.465 360.735 390.091 362.297C385.932 364.224 380.564 367.07 375.919 367.446C370.97 367.847 365.576 365.931 360.663 365.753Z" fill="black"/>
<path fill-rule="evenodd" clip-rule="evenodd" d="M297.662 299.748C296.187 299.757 294.711 299.767 293.235 299.776C294.707 299.503 296.184 299.499 297.662 299.748Z" fill="black"/>
<path fill-rule="evenodd" clip-rule="evenodd" d="M211.336 145.908C210.893 146.635 210.452 147.361 210.009 148.089C210.158 147.152 210.497 146.349 211.336 145.908Z" fill="black"/>
<path fill-rule="evenodd" clip-rule="evenodd" d="M297.662 320.597C298.549 320.606 299.437 320.613 300.319 320.62C299.43 320.613 298.546 320.606 297.662 320.597Z" fill="black"/>
<path fill-rule="evenodd" clip-rule="evenodd" d="M300.319 299.769C299.433 299.762 298.548 299.753 297.662 299.746C298.551 299.506 299.437 299.515 300.319 299.769Z" fill="black"/>
<path fill-rule="evenodd" clip-rule="evenodd" d="M335.551 176.006C335.526 175.133 335.501 174.261 335.476 173.389C335.501 174.262 335.526 175.134 335.551 176.006Z" fill="black"/>
<path fill-rule="evenodd" clip-rule="evenodd" d="M185.021 307.741C185.004 307.014 184.986 306.286 184.968 305.559C184.988 306.288 185.004 307.014 185.021 307.741Z" fill="black"/>
<path fill-rule="evenodd" clip-rule="evenodd" d="M209.123 272.189C209.715 272.189 210.306 272.19 210.893 272.191C210.301 272.191 209.712 272.189 209.123 272.189Z" fill="black"/>
<path fill-rule="evenodd" clip-rule="evenodd" d="M269.583 328.679C269.562 328.095 269.538 327.513 269.519 326.933C269.54 327.517 269.562 328.099 269.583 328.679Z" fill="black"/>
<path fill-rule="evenodd" clip-rule="evenodd" d="M270.46 306.432C270.444 305.85 270.428 305.268 270.412 304.688C270.43 305.27 270.444 305.85 270.46 306.432Z" fill="black"/>
<path fill-rule="evenodd" clip-rule="evenodd" d="M255.352 316.464C255.373 317.048 255.395 317.63 255.416 318.21C255.395 317.626 255.373 317.046 255.352 316.464Z" fill="black"/>
<path fill-rule="evenodd" clip-rule="evenodd" d="M212.664 271.762C213.109 271.757 213.552 271.751 213.993 271.744C213.546 271.751 213.105 271.757 212.664 271.762Z" fill="black"/>
<path fill-rule="evenodd" clip-rule="evenodd" d="M341.048 294.465C341.491 294.446 341.936 294.426 342.375 294.408C341.93 294.428 341.487 294.446 341.048 294.465Z" fill="black"/>
<path fill-rule="evenodd" clip-rule="evenodd" d="M256.232 330.423C256.257 331.005 256.282 331.588 256.307 332.168C256.282 331.584 256.257 331.004 256.232 330.423Z" fill="black"/>
<path fill-rule="evenodd" clip-rule="evenodd" d="M303.684 327.37C303.653 327.952 303.624 328.535 303.594 329.114C303.624 328.532 303.653 327.95 303.684 327.37Z" fill="black"/>
<path fill-rule="evenodd" clip-rule="evenodd" d="M252.661 67.455C252.034 67.3764 251.409 67.2985 250.783 67.2201C251.402 67.3613 252.083 66.8373 252.661 67.455Z" fill="black"/>
<path fill-rule="evenodd" clip-rule="evenodd" d="M225.749 291.165C225.733 291.747 225.715 292.329 225.699 292.909C225.715 292.325 225.733 291.745 225.749 291.165Z" fill="black"/>
<path fill-rule="evenodd" clip-rule="evenodd" d="M330.865 295.322C331.31 295.313 331.753 295.303 332.194 295.296C331.747 295.305 331.306 295.313 330.865 295.322Z" fill="black"/>
<path fill-rule="evenodd" clip-rule="evenodd" d="M180.564 189.529C180.568 190.111 180.57 190.693 180.573 191.273C180.57 190.69 180.566 190.109 180.564 189.529Z" fill="black"/>
<path fill-rule="evenodd" clip-rule="evenodd" d="M171.275 320.391C171.273 320.973 171.271 321.557 171.267 322.135C171.269 321.553 171.273 320.971 171.275 320.391Z" fill="black"/>
<path fill-rule="evenodd" clip-rule="evenodd" d="M281.612 316.901C281.596 317.483 281.579 318.067 281.563 318.645C281.32 318.047 281.349 317.467 281.612 316.901Z" fill="black"/>
<path fill-rule="evenodd" clip-rule="evenodd" d="M270.001 314.284C269.996 313.702 269.992 313.12 269.987 312.539C269.992 313.123 269.996 313.703 270.001 314.284Z" fill="black"/>
<path fill-rule="evenodd" clip-rule="evenodd" d="M360.526 365.956C360.97 365.968 361.415 365.981 361.854 365.993C361.408 365.981 360.967 365.968 360.526 365.956Z" fill="black"/>
<path fill-rule="evenodd" clip-rule="evenodd" d="M344.589 310.584C344.884 310.579 345.182 310.573 345.475 310.568C345.176 310.573 344.883 310.579 344.589 310.584Z" fill="black"/>
<path fill-rule="evenodd" clip-rule="evenodd" d="M333.521 311.885C333.818 311.885 334.115 311.885 334.407 311.883C334.109 311.885 333.816 311.885 333.521 311.885Z" fill="black"/>
<path fill-rule="evenodd" clip-rule="evenodd" d="M161.117 314.72C161.099 314.284 161.081 313.847 161.063 313.411C161.081 313.849 161.099 314.285 161.117 314.72Z" fill="black"/>
<path fill-rule="evenodd" clip-rule="evenodd" d="M342.375 314.388C341.991 314.771 341.496 314.546 341.048 314.571C341.491 314.509 341.932 314.449 342.375 314.388Z" fill="black"/>
<path fill-rule="evenodd" clip-rule="evenodd" d="M289.693 300.433C289.11 300.704 288.52 300.743 287.924 300.452C288.514 300.445 289.105 300.44 289.693 300.433Z" fill="black"/>
<path fill-rule="evenodd" clip-rule="evenodd" d="M328.208 315.382C327.617 315.377 327.029 315.371 326.438 315.368C327.029 315.371 327.619 315.377 328.208 315.382Z" fill="black"/>
<path fill-rule="evenodd" clip-rule="evenodd" d="M168.19 298.144C168.18 298.582 168.167 299.018 168.155 299.453C168.167 299.015 168.178 298.578 168.19 298.144Z" fill="black"/>
<path fill-rule="evenodd" clip-rule="evenodd" d="M269.96 321.699C269.983 321.262 270.004 320.826 270.028 320.391C270.004 320.828 269.983 321.264 269.96 321.699Z" fill="black"/>
<path fill-rule="evenodd" clip-rule="evenodd" d="M185.014 295.09C185.002 294.653 184.989 294.217 184.977 293.782C184.989 294.22 185.002 294.655 185.014 295.09Z" fill="black"/>
<path fill-rule="evenodd" clip-rule="evenodd" d="M258.978 261.502C258.944 261.941 258.91 262.377 258.874 262.812C258.91 262.374 258.944 261.939 258.978 261.502Z" fill="black"/>
<path fill-rule="evenodd" clip-rule="evenodd" d="M339.719 274.702C339.127 275.004 338.538 274.966 337.948 274.7C338.538 274.7 339.129 274.702 339.719 274.702Z" fill="black"/>
<path fill-rule="evenodd" clip-rule="evenodd" d="M269.59 335.221C269.563 334.785 269.538 334.348 269.512 333.912C269.538 334.35 269.563 334.785 269.59 335.221Z" fill="black"/>
<path fill-rule="evenodd" clip-rule="evenodd" d="M269.578 338.712C269.56 338.275 269.542 337.839 269.522 337.402C269.542 337.84 269.56 338.275 269.578 338.712Z" fill="black"/>
<path fill-rule="evenodd" clip-rule="evenodd" d="M185.872 281.132C185.879 280.696 185.884 280.258 185.89 279.823C185.884 280.261 185.877 280.696 185.872 281.132Z" fill="black"/>
<path fill-rule="evenodd" clip-rule="evenodd" d="M311.829 350.719C312.126 350.71 312.421 350.703 312.714 350.694C312.417 350.703 312.122 350.712 311.829 350.719Z" fill="black"/>
<path fill-rule="evenodd" clip-rule="evenodd" d="M169.094 354.415C169.07 353.979 169.046 353.542 169.022 353.106C169.047 353.542 169.07 353.979 169.094 354.415Z" fill="black"/>
<path fill-rule="evenodd" clip-rule="evenodd" d="M264.903 358.113C265.2 358.12 265.497 358.125 265.789 358.131C265.49 358.125 265.196 358.12 264.903 358.113Z" fill="black"/>
<path fill-rule="evenodd" clip-rule="evenodd" d="M265.086 320.826C265.111 319.518 265.136 318.209 265.161 316.901C265.136 318.21 265.111 319.518 265.086 320.826Z" fill="black"/>
<path fill-rule="evenodd" clip-rule="evenodd" d="M230.57 272.844C230.585 273.863 230.601 274.881 230.617 275.898C230.601 274.878 230.586 273.861 230.57 272.844Z" fill="black"/>
<path fill-rule="evenodd" clip-rule="evenodd" d="M154.227 336.735C153.489 336.744 152.749 336.753 152.015 336.762C152.756 336.753 153.491 336.744 154.227 336.735Z" fill="black"/>
<path fill-rule="evenodd" clip-rule="evenodd" d="M214.877 249.96C214.139 249.949 213.399 249.937 212.664 249.926C213.406 249.939 214.142 249.949 214.877 249.96Z" fill="black"/>
<path fill-rule="evenodd" clip-rule="evenodd" d="M195.842 266.957C196.58 266.957 197.318 266.955 198.055 266.955C197.317 266.955 196.58 266.955 195.842 266.957Z" fill="black"/>
<path fill-rule="evenodd" clip-rule="evenodd" d="M205.582 249.493C204.99 249.502 204.397 249.513 203.81 249.522C204.404 249.513 204.993 249.502 205.582 249.493Z" fill="black"/>
<path fill-rule="evenodd" clip-rule="evenodd" d="M157.77 336.753C157.178 336.749 156.586 336.747 155.999 336.744C156.593 336.747 157.182 336.749 157.77 336.753Z" fill="black"/>
<path fill-rule="evenodd" clip-rule="evenodd" d="M247.375 165.101C247.402 164.374 247.431 163.647 247.458 162.92C247.429 163.648 247.402 164.375 247.375 165.101Z" fill="black"/>
<path fill-rule="evenodd" clip-rule="evenodd" d="M229.487 171.862C229.042 171.862 228.599 171.862 228.158 171.863C228.605 171.863 229.046 171.862 229.487 171.862Z" fill="black"/>
<path fill-rule="evenodd" clip-rule="evenodd" d="M191.858 248.191C191.413 248.196 190.969 248.201 190.529 248.205C190.976 248.201 191.417 248.196 191.858 248.191Z" fill="black"/>
<path fill-rule="evenodd" clip-rule="evenodd" d="M180.555 288.111C180.564 287.529 180.573 286.947 180.582 286.367C180.573 286.949 180.564 287.531 180.555 288.111Z" fill="black"/>
<path fill-rule="evenodd" clip-rule="evenodd" d="M231.258 264.859C231.847 264.803 232.439 264.746 233.028 264.689C232.437 264.746 231.847 264.803 231.258 264.859Z" fill="black"/>
<path fill-rule="evenodd" clip-rule="evenodd" d="M271.712 254.524C271.748 253.942 271.782 253.358 271.818 252.779C271.782 253.361 271.748 253.942 271.712 254.524Z" fill="black"/>
<path fill-rule="evenodd" clip-rule="evenodd" d="M219.304 250.386C218.861 250.382 218.416 250.377 217.977 250.373C218.422 250.377 218.865 250.382 219.304 250.386Z" fill="black"/>
<path fill-rule="evenodd" clip-rule="evenodd" d="M180.6 320.826C180.578 320.389 180.557 319.953 180.536 319.518C180.557 319.955 180.578 320.391 180.6 320.826Z" fill="black"/>
<path fill-rule="evenodd" clip-rule="evenodd" d="M230.236 298.58C231.204 300.944 230.66 299.27 230.686 299.815C229.861 299.925 229.71 299.513 230.236 298.58Z" fill="black"/>
<path fill-rule="evenodd" clip-rule="evenodd" d="M189.644 248.223C189.201 248.207 188.756 248.191 188.317 248.175C188.763 248.191 189.202 248.207 189.644 248.223Z" fill="black"/>
<path fill-rule="evenodd" clip-rule="evenodd" d="M280.134 203.923C280.162 203.341 280.189 202.759 280.218 202.179C280.189 202.761 280.161 203.343 280.134 203.923Z" fill="black"/>
<path fill-rule="evenodd" clip-rule="evenodd" d="M180.572 316.464C180.57 315.882 180.568 315.302 180.566 314.72C180.568 315.304 180.57 315.884 180.572 316.464Z" fill="black"/>
<path fill-rule="evenodd" clip-rule="evenodd" d="M180.523 303.378C180.554 302.942 180.584 302.505 180.615 302.07C180.584 302.507 180.554 302.943 180.523 303.378Z" fill="black"/>
<path fill-rule="evenodd" clip-rule="evenodd" d="M272.589 246.235C272.63 245.799 272.671 245.362 272.713 244.926C272.671 245.364 272.63 245.801 272.589 246.235Z" fill="black"/>
<path fill-rule="evenodd" clip-rule="evenodd" d="M174.755 304.688C174.794 305.124 174.834 305.561 174.874 305.995C174.832 305.559 174.794 305.124 174.755 304.688Z" fill="black"/>
<path fill-rule="evenodd" clip-rule="evenodd" d="M173.862 301.197C173.907 301.634 173.95 302.07 173.993 302.505C173.95 302.069 173.907 301.632 173.862 301.197Z" fill="black"/>
<path fill-rule="evenodd" clip-rule="evenodd" d="M262.418 241.437C262.451 241.001 262.485 240.564 262.517 240.128C262.483 240.566 262.451 241.001 262.418 241.437Z" fill="black"/>
<path fill-rule="evenodd" clip-rule="evenodd" d="M36.4692 300.612C37.0597 300.566 37.6503 300.52 38.2408 300.475C37.6485 300.52 37.0597 300.566 36.4692 300.612Z" fill="black"/>
<path fill-rule="evenodd" clip-rule="evenodd" d="M258.509 311.23C258.491 311.668 258.474 312.105 258.458 312.539C258.475 312.101 258.491 311.666 258.509 311.23Z" fill="black"/>
<path fill-rule="evenodd" clip-rule="evenodd" d="M265.517 312.539C265.551 312.103 265.583 311.666 265.616 311.23C265.583 311.668 265.551 312.103 265.517 312.539Z" fill="black"/>
<path fill-rule="evenodd" clip-rule="evenodd" d="M262.841 239.691C262.886 239.255 262.935 238.82 262.98 238.384C262.933 238.82 262.886 239.257 262.841 239.691Z" fill="black"/>
<path fill-rule="evenodd" clip-rule="evenodd" d="M40.0123 300.193C40.6028 300.136 41.1933 300.078 41.782 300.021C41.1933 300.078 40.601 300.136 40.0123 300.193Z" fill="black"/>
<path fill-rule="evenodd" clip-rule="evenodd" d="M227.717 249.939C227.42 249.942 227.123 249.946 226.831 249.947C227.128 249.946 227.422 249.942 227.717 249.939Z" fill="black"/>
<path fill-rule="evenodd" clip-rule="evenodd" d="M180.572 299.453C180.57 299.015 180.568 298.578 180.566 298.144C180.568 298.582 180.57 299.017 180.572 299.453Z" fill="black"/>
<path fill-rule="evenodd" clip-rule="evenodd" d="M266.487 298.58C266.33 298.129 266.253 297.684 266.556 297.271C266.532 297.709 266.51 298.144 266.487 298.58Z" fill="black"/>
<path fill-rule="evenodd" clip-rule="evenodd" d="M258.945 290.292C258.933 290.728 258.92 291.167 258.908 291.601C258.92 291.163 258.933 290.728 258.945 290.292Z" fill="black"/>
<path fill-rule="evenodd" clip-rule="evenodd" d="M259.327 333.477C259.356 333.914 259.383 334.35 259.41 334.785C259.383 334.348 259.356 333.912 259.327 333.477Z" fill="black"/>
<path fill-rule="evenodd" clip-rule="evenodd" d="M291.908 174.823C292.351 174.885 292.794 174.947 293.235 175.009C292.792 174.946 292.351 174.885 291.908 174.823Z" fill="black"/>
<path fill-rule="evenodd" clip-rule="evenodd" d="M290.136 174.863C290.73 174.899 291.384 174.617 291.908 175.029L290.136 174.863Z" fill="black"/>
<path fill-rule="evenodd" clip-rule="evenodd" d="M214.436 266.96C215.025 266.957 215.617 266.953 216.206 266.951C215.615 266.953 215.025 266.957 214.436 266.96Z" fill="black"/>
<path fill-rule="evenodd" clip-rule="evenodd" d="M227.717 174.404L229.487 174.555C228.896 174.505 228.306 174.454 227.717 174.404Z" fill="black"/>
<path fill-rule="evenodd" clip-rule="evenodd" d="M198.497 266.841C199.088 266.843 199.679 266.847 200.269 266.849C199.677 267.131 199.086 267.157 198.497 266.841Z" fill="black"/>
<path fill-rule="evenodd" clip-rule="evenodd" d="M182.39 340.019C182.356 339.583 182.323 339.146 182.289 338.712C182.323 339.148 182.356 339.585 182.39 340.019Z" fill="black"/>
<path fill-rule="evenodd" clip-rule="evenodd" d="M246.964 175.134C246.97 174.697 246.977 174.261 246.984 173.825C246.977 174.263 246.97 174.699 246.964 175.134Z" fill="black"/>
<path fill-rule="evenodd" clip-rule="evenodd" d="M209.566 267.026C210.156 266.98 210.747 266.932 211.336 266.886C210.745 266.932 210.156 266.98 209.566 267.026Z" fill="black"/>
<path fill-rule="evenodd" clip-rule="evenodd" d="M259.797 343.946C259.806 344.383 259.817 344.819 259.826 345.254C259.817 344.817 259.806 344.381 259.797 343.946Z" fill="black"/>
<path fill-rule="evenodd" clip-rule="evenodd" d="M269.047 275.461C269.089 275.025 269.13 274.588 269.17 274.152C269.128 274.59 269.089 275.025 269.047 275.461Z" fill="black"/>
<path fill-rule="evenodd" clip-rule="evenodd" d="M289.422 158.994C289.456 158.557 289.49 158.121 289.524 157.686C289.49 158.122 289.456 158.558 289.422 158.994Z" fill="black"/>
<path fill-rule="evenodd" clip-rule="evenodd" d="M247.404 121.481C247.412 121.917 247.42 122.354 247.428 122.789C247.42 122.352 247.412 121.916 247.404 121.481Z" fill="black"/>
<path fill-rule="evenodd" clip-rule="evenodd" d="M231.701 113.338C232.29 113.387 232.882 113.435 233.471 113.483C232.88 113.435 232.29 113.387 231.701 113.338Z" fill="black"/>
<path fill-rule="evenodd" clip-rule="evenodd" d="M232.585 109.049C232.29 109.049 231.993 109.048 231.701 109.048C231.998 109.049 232.292 109.049 232.585 109.049Z" fill="black"/>
<path fill-rule="evenodd" clip-rule="evenodd" d="M123.681 366.942C124.273 366.642 124.862 366.728 125.453 366.944C124.862 366.944 124.272 366.942 123.681 366.942Z" fill="black"/>
<path fill-rule="evenodd" clip-rule="evenodd" d="M353.443 334.111C352.851 334.123 352.259 334.137 351.672 334.151C352.266 334.137 352.855 334.123 353.443 334.111Z" fill="black"/>
<path fill-rule="evenodd" clip-rule="evenodd" d="M344.589 325.46C345.327 325.404 346.064 325.349 346.802 325.294C346.114 325.72 345.327 325.404 344.589 325.46Z" fill="black"/>
<path fill-rule="evenodd" clip-rule="evenodd" d="M336.178 326.358C336.916 326.305 337.653 326.254 338.391 326.2C337.654 326.254 336.916 326.305 336.178 326.358Z" fill="black"/>
<path fill-rule="evenodd" clip-rule="evenodd" d="M326.881 334.199C327.472 334.155 328.06 334.107 328.651 334.061C328.06 334.107 327.472 334.153 326.881 334.199Z" fill="black"/>
<path fill-rule="evenodd" clip-rule="evenodd" d="M332.194 318.86C331.749 318.863 331.305 318.867 330.865 318.869C331.312 318.865 331.753 318.861 332.194 318.86Z" fill="black"/>
<path fill-rule="evenodd" clip-rule="evenodd" d="M343.261 342.89C343.851 342.842 344.442 342.793 345.032 342.743C344.481 343.125 343.858 342.906 343.261 342.89Z" fill="black"/>
<path fill-rule="evenodd" clip-rule="evenodd" d="M324.224 300.981C323.779 300.979 323.336 300.979 322.897 300.979C323.343 300.979 323.783 300.979 324.224 300.981Z" fill="black"/>
<path fill-rule="evenodd" clip-rule="evenodd" d="M319.797 301.85C319.502 301.852 319.205 301.852 318.913 301.854C319.21 301.852 319.503 301.85 319.797 301.85Z" fill="black"/>
<path fill-rule="evenodd" clip-rule="evenodd" d="M309.173 303.066C309.024 303.424 308.242 303.378 308.289 303.009C308.584 303.029 308.878 303.046 309.173 303.066Z" fill="black"/>
<path fill-rule="evenodd" clip-rule="evenodd" d="M288.561 304.688C288.579 305.124 288.597 305.561 288.614 305.995C288.595 305.559 288.579 305.122 288.561 304.688Z" fill="black"/>
<path fill-rule="evenodd" clip-rule="evenodd" d="M349.016 307C349.457 306.993 349.902 306.985 350.343 306.978C349.907 307.285 349.463 307.243 349.016 307Z" fill="black"/>
<path fill-rule="evenodd" clip-rule="evenodd" d="M332.194 300.537C331.897 300.541 331.6 300.546 331.308 300.55C331.605 300.546 331.899 300.541 332.194 300.537Z" fill="black"/>
<path fill-rule="evenodd" clip-rule="evenodd" d="M326.881 344.691C327.472 344.478 328.064 344.406 328.651 344.697C328.06 344.695 327.472 344.693 326.881 344.691Z" fill="black"/>
<path fill-rule="evenodd" clip-rule="evenodd" d="M325.941 284.564L325.11 284.28C326.143 284.268 327.176 284.255 328.208 284.243C328.212 284.243 326.062 284.573 325.941 284.564Z" fill="black"/>
<path fill-rule="evenodd" clip-rule="evenodd" d="M318.027 276.989C317.287 276.987 316.547 276.987 315.813 276.987C316.554 276.987 317.291 276.989 318.027 276.989Z" fill="black"/>
<path fill-rule="evenodd" clip-rule="evenodd" d="M290.136 293.663C290.873 293.372 291.611 293.429 292.351 293.654C291.613 293.658 290.874 293.66 290.136 293.663Z" fill="black"/>
<path fill-rule="evenodd" clip-rule="evenodd" d="M334.849 286.576C334.405 286.582 333.96 286.587 333.521 286.592C333.967 286.587 334.408 286.582 334.849 286.576Z" fill="black"/>
<path fill-rule="evenodd" clip-rule="evenodd" d="M308.73 288.775C308.433 288.769 308.138 288.762 307.844 288.757C308.142 288.762 308.437 288.769 308.73 288.775Z" fill="black"/>
<path fill-rule="evenodd" clip-rule="evenodd" d="M318.027 284.431C317.73 284.412 317.435 284.394 317.141 284.376C317.438 284.394 317.732 284.412 318.027 284.431Z" fill="black"/>
<path fill-rule="evenodd" clip-rule="evenodd" d="M312.271 284.415C311.974 284.408 311.679 284.399 311.386 284.392C311.685 284.399 311.978 284.408 312.271 284.415Z" fill="black"/>
<path fill-rule="evenodd" clip-rule="evenodd" d="M328.208 284.011C328.208 284.122 329.542 283.549 329.537 284.083L328.208 284.011Z" fill="black"/>
<path fill-rule="evenodd" clip-rule="evenodd" d="M323.34 276.987C323.043 276.987 322.746 276.987 322.454 276.989C322.751 276.987 323.045 276.987 323.34 276.987Z" fill="black"/>
<path fill-rule="evenodd" clip-rule="evenodd" d="M166.182 256.302C166.66 254.375 166.529 252.866 168.237 254.098C169.174 254.774 170.718 258.204 170.601 259.364C170.457 260.798 169.795 261.369 168.425 260.913C166.851 260.388 166.228 257.744 166.182 256.302Z" fill="black"/>
<path fill-rule="evenodd" clip-rule="evenodd" d="M252.432 244.599C256.396 244.599 254.666 248.757 251.363 248.849C249.843 248.892 247.659 248.597 248.151 246.594C248.414 245.526 252.266 244.083 252.432 244.599Z" fill="black"/>
<path fill-rule="evenodd" clip-rule="evenodd" d="M209.908 252.779C212.771 254.142 208.743 260.134 206.143 258.651C202.813 256.752 208.731 253.633 209.908 252.779Z" fill="black"/>
<path fill-rule="evenodd" clip-rule="evenodd" d="M202.944 258.449C203.881 259.456 208.102 262.87 205.776 264.242C202.914 265.929 200.737 260.358 202.944 258.449Z" fill="black"/>
<path fill-rule="evenodd" clip-rule="evenodd" d="M154.971 255.831C154.04 254.057 155.32 249.415 158.165 250.263C161.025 251.119 156.544 255.361 154.971 255.831Z" fill="black"/>
<path fill-rule="evenodd" clip-rule="evenodd" d="M218.127 256.853C219.983 256.119 219.63 258.296 219.911 258.999C220.228 259.797 221.862 261.742 221.454 262.592C220.845 263.853 219.39 263.05 218.6 262.23C217.216 260.794 217.315 258.493 218.127 256.853Z" fill="black"/>
<path fill-rule="evenodd" clip-rule="evenodd" d="M189.84 258.874C188.291 258.874 184.599 254.479 186.768 253.741C189.462 252.825 191.714 259.197 189.84 258.874Z" fill="black"/>
<path fill-rule="evenodd" clip-rule="evenodd" d="M243.302 251.906C244.719 252.251 246.595 256.204 244.46 256.662C242.096 257.169 241.673 252.999 243.302 251.906Z" fill="black"/>
<path fill-rule="evenodd" clip-rule="evenodd" d="M234.713 259.322C233.6 257.214 233.327 252.699 236.04 256.323C236.629 257.107 237.235 256.789 236.933 258.085C236.668 259.215 235.615 259.322 234.713 259.322Z" fill="black"/>
<path fill-rule="evenodd" clip-rule="evenodd" d="M176.179 248.416C177.311 250.096 176.978 255.365 174.611 252.249C173.604 250.923 174.297 248.48 176.179 248.416Z" fill="black"/>
<path fill-rule="evenodd" clip-rule="evenodd" d="M233.113 90.1166C235.309 89.5575 235.836 94.6624 234.555 95.2251C232.76 96.0125 232.985 90.9704 233.113 90.1166Z" fill="black"/>
<path fill-rule="evenodd" clip-rule="evenodd" d="M372.105 349.463C370.066 349.346 367.209 348.797 370.298 347.371C372.259 346.468 375.171 346.405 377.242 346.776C378.668 347.032 380.808 348.196 378.632 349.708C377.357 350.591 373.654 349.507 372.105 349.463Z" fill="black"/>
<path fill-rule="evenodd" clip-rule="evenodd" d="M369.819 353.106C369.229 353.04 368.64 352.974 368.051 352.91C368.525 352.064 369.898 351.887 369.819 353.106Z" fill="black"/>
<path fill-rule="evenodd" clip-rule="evenodd" d="M372.478 349.379C373.071 349.392 373.663 349.406 374.25 349.417C373.656 349.404 373.067 349.392 372.478 349.379Z" fill="black"/>
</g>
</g>
<defs>
<clipPath id="clip0_17_68">
<path d="M-0.5 0H430.5V404C430.5 412.837 423.337 420 414.5 420H15.5C6.66344 420 -0.5 412.837 -0.5 404V0Z" fill="white"/>
</clipPath>
</defs>
</svg>
